<svg xmlns="http://www.w3.org/2000/svg" viewBox="0 0 3000 3000" width="3000" height="3000"><g transform="translate(152.4 651.6) rotate(0.0 770.4 862.8) scale(1.4181825210476953 1.4186146310664767)"><svg width="1086.461" height="1216.398" viewBox="0 0 1086.461 1216.398"><path d="m21.764 1187.7 104.416 10.491s93.058-8.506 124.524-8.19c33.63.338 87.777 7.852 121.407 8.19 33.625.338 113.989-5.823 147.614-5.485 32.323.325 96.552 13.347 128.875 13.672 37.949.382 114.267-11.228 152.216-10.846 31.483.317 98.61 10.539 130.094 10.856 34.647.348 134.426-8.196 134.426-8.196s9.62-19.561 11.091-146.065c.432-37.102-6.887-105.435-6.387-148.409.437-37.556 5.935-94.943 6.405-135.357.349-29.975-5.167-80.989-4.808-111.81l.983-84.472 1.225-105.264c.381-32.723-9.422-68.579-9.055-100.092.503-43.207 11.167-81.372 11.623-120.622.404-34.739-7.609-74.735-7.258-104.936.508-43.695 3.868-123.383 3.868-123.383s-89.681-8.169-119.919-7.769c-37.54.496-79.242 14.24-116.782 14.736-47.712.63-91.261-11.988-138.973-11.358-61.386.811-134.338 9.092-195.725 9.902-48.008.634-107.118-6.194-180.2-5.619-64.228.505-135.228 11.089-189.423 11.44-70.484.457-115.938-9.389-115.938-9.389s-6.195 36.71-6.061 92.336c.082 33.985 6.997 74.253 8.404 108.205 1.497 36.115-10.553 77.797-8.065 113.854 2.269 32.885 5.992 70.589 8.701 103.443 2.644 32.065-.772 62.682 1.934 94.742 3.697 43.816-3.996 92.45-.967 136.313 2.158 31.237.507 74.088 1.934 105.376 1.514 33.188-4.031 62.564-4.834 103.443-.691 35.184 11.329 70.024 9.668 105.376-1.958 41.667 7.095 78.949 4.834 113.111-4.033 60.918-9.846 91.774-9.846 91.774z" fill="#fff"/><path d="M933.051 1216.399c-.775 0-1.519-.004-2.242-.011-16.224-.163-41.533-2.868-66.009-5.484-24.004-2.565-48.825-5.218-64.085-5.371-18.437-.195-47.206 2.641-75.03 5.375-28.353 2.786-57.682 5.678-77.187 5.47-16.8-.168-41.665-3.605-65.71-6.93-23.422-3.237-47.641-6.586-63.165-6.741-16.507-.173-45.326 1.306-73.197 2.729-28.17 1.439-57.302 2.945-74.418 2.755-17.212-.173-39.727-2.187-61.5-4.134-21.381-1.913-43.49-3.891-59.907-4.056-30.607-.347-122.587 8.064-123.513 8.149a9.91 9.91 0 0 1-1.91-.009L20.762 1197.65a10 10 0 0 1-8.827-11.802c.09-.481 5.771-31.313 9.695-90.583 1.059-15.994-.52-33.086-2.192-51.183-1.81-19.59-3.681-39.846-2.653-61.737.815-17.334-1.849-34.525-4.669-52.726-2.634-16.999-5.357-34.577-5.008-52.377.355-18.067 1.595-33.609 2.795-48.64 1.478-18.521 2.874-36.015 2.047-54.151-.648-14.213-.671-30.276-.694-47.282-.028-20.123-.057-40.931-1.226-57.861-1.508-21.836-.426-44.898.621-67.201 1.085-23.122 2.207-47.033.357-68.96-1.4-16.589-1.208-32.844-1.022-48.563.179-15.101.363-30.715-.913-46.198-.979-11.868-2.068-24.118-3.22-37.087-1.985-22.329-4.037-45.417-5.491-66.488-1.358-19.684 1.365-40.704 3.999-61.031 2.436-18.801 4.736-36.559 4.051-53.098-.606-14.617-2.234-30.23-3.957-46.76C2.291 153.133.049 131.635.002 112.087c-.134-55.834 5.941-92.491 6.2-94.024a10 10 0 0 1 11.977-8.109c.441.096 45.372 9.642 113.756 9.162 25.677-.166 55.203-2.666 86.464-5.312 34.034-2.882 69.228-5.861 102.945-6.127 39.903-.312 75.84 1.571 107.549 3.234 27.328 1.434 50.926 2.676 72.597 2.386 30.419-.402 64.425-2.703 97.312-4.929 33.158-2.244 67.446-4.564 98.413-4.974 24.577-.32 48.138 2.77 70.923 5.763 22.081 2.9 44.913 5.907 68.05 5.595 17.945-.237 37.674-3.783 56.754-7.212C912.82 3.968 933.375.274 952.97.016c30.404-.381 117.275 7.474 120.958 7.81a10 10 0 0 1 9.084 10.38c-.033.796-3.358 80.037-3.859 123.078-.163 13.988 1.565 30.364 3.394 47.702 2.006 19.013 4.08 38.673 3.864 57.233-.23 19.794-2.882 38.68-5.69 58.673-2.794 19.896-5.683 40.468-5.933 61.949-.173 14.859 2.035 30.773 4.372 47.622 2.401 17.309 4.884 35.206 4.683 52.47l-2.208 189.735c-.176 15.143 1.138 35.86 2.408 55.896 1.267 19.988 2.578 40.656 2.4 55.915-.242 20.828-1.804 46.119-3.315 70.577-1.48 23.963-2.878 46.597-3.09 64.779-.255 21.901 1.571 50.745 3.337 78.639 1.677 26.497 3.262 51.525 3.05 69.77-1.426 122.561-10.344 146.756-12.117 150.362a10.002 10.002 0 0 1-8.12 5.551c-4.009.343-96.68 8.242-133.138 8.243zm-134.065-30.875c.654 0 1.297.003 1.93.009 16.224.163 41.533 2.868 66.009 5.484 24.004 2.565 48.826 5.219 64.085 5.371 28.545.28 103.523-5.684 126.613-7.587 2.573-11.813 7.754-46.497 8.805-136.791.204-17.496-1.358-42.161-3.011-68.273-1.789-28.262-3.639-57.484-3.376-80.135.218-18.684 1.631-41.561 3.126-65.78 1.496-24.212 3.042-49.249 3.279-69.576.169-14.51-1.118-34.797-2.362-54.417-1.294-20.403-2.632-41.501-2.447-57.394l2.208-189.735c.183-15.767-2.195-32.91-4.495-49.489-2.336-16.836-4.751-34.246-4.561-50.603.265-22.763 3.245-43.979 6.126-64.498 2.716-19.342 5.282-37.61 5.497-56.124.202-17.393-1.809-36.461-3.755-54.902-1.892-17.936-3.679-34.877-3.503-50.033.4-34.401 2.585-91.603 3.487-114.145-23.784-2.063-85.771-7.176-109.407-6.893-17.945.237-37.674 3.783-56.754 7.212-19.878 3.571-40.433 7.266-60.028 7.524-24.577.318-48.135-2.771-70.919-5.763-22.083-2.901-44.91-5.906-68.054-5.595-30.424.401-64.435 2.703-97.326 4.93-33.154 2.243-67.436 4.563-98.398 4.973-22.325.296-47.381-1.02-73.909-2.411-31.427-1.648-67.048-3.526-106.344-3.207-32.952.259-67.757 3.205-101.416 6.056-31.66 2.68-61.564 5.212-88.021 5.384-51.784.35-90.01-4.747-107.539-7.66-1.779 14.383-4.615 43.253-4.525 80.583.045 18.533 2.233 39.517 4.348 59.811 1.679 16.107 3.416 32.763 4.048 48.005.756 18.244-1.763 37.689-4.199 56.495-2.508 19.36-5.102 39.381-3.881 57.085 1.44 20.874 3.484 43.862 5.459 66.094 1.156 13.002 2.247 25.283 3.231 37.215 1.354 16.422 1.164 32.515.979 48.078-.18 15.247-.367 31.014.952 46.646 1.96 23.235.807 47.812-.309 71.58-1.02 21.732-2.075 44.205-.646 64.884 1.216 17.605 1.245 38.758 1.274 59.213.023 16.778.045 32.627.673 46.397.884 19.39-.56 37.49-2.09 56.654-1.176 14.736-2.392 29.975-2.735 47.441-.315 16.062 2.157 32.023 4.776 48.922 2.848 18.378 5.792 37.381 4.883 56.728-.963 20.499.843 40.051 2.59 58.958 1.747 18.908 3.397 36.768 2.233 54.343-2.711 40.952-6.194 68.323-8.254 82.227l92.894 9.333c10.488-.95 94.323-8.45 124.576-8.145 17.21.174 39.719 2.188 61.488 4.135 21.385 1.913 43.499 3.892 59.919 4.057 16.509.162 45.326-1.307 73.197-2.73 28.17-1.438 57.301-2.919 74.418-2.756 16.798.17 41.659 3.606 65.702 6.93 23.425 3.238 47.647 6.587 63.173 6.743 18.425.185 47.206-2.643 75.03-5.376 27.432-2.695 55.77-5.479 75.256-5.479z"/><path d="M298.813 411.676h-136.76c-5.523 0-10-4.478-10-10V210.211c0-5.522 4.477-10 10-10h136.76c5.523 0 10 4.478 10 10v191.465c0 5.522-4.477 10-10 10zm-126.76-20h116.76V220.211h-116.76zm126.76 307.197h-136.76c-5.523 0-10-4.478-10-10V497.408c0-5.522 4.477-10 10-10h136.76c5.523 0 10 4.478 10 10v191.465c0 5.522-4.477 10-10 10zm-126.76-20h116.76V507.408h-116.76zm126.76 316.966h-136.76c-5.523 0-10-4.478-10-10V794.374c0-5.522 4.477-10 10-10h136.76c5.523 0 10 4.478 10 10v191.465c0 5.522-4.477 10-10 10zm-126.76-20h116.76V804.374h-116.76z"/><path d="M247.601 356.706a10.002 10.002 0 0 1-8.163-4.223l-36.105-51.003c-3.191-4.507-2.124-10.748 2.384-13.939s10.749-2.124 13.94 2.385l28.6 40.401 83.01-99.305c3.542-4.238 9.848-4.803 14.086-1.26 4.237 3.542 4.801 9.849 1.259 14.086l-91.34 109.271a10 10 0 0 1-7.672 3.587zm0 278.469a10.004 10.004 0 0 1-8.163-4.222l-36.105-51.003c-3.191-4.507-2.124-10.748 2.384-13.939s10.749-2.123 13.94 2.385l28.6 40.4 83.01-99.305c3.542-4.237 9.848-4.803 14.086-1.26 4.237 3.542 4.801 9.849 1.259 14.086l-91.34 109.271a10 10 0 0 1-7.672 3.587z" fill="#72caaf"/><path d="M271.941 968.172a9.985 9.985 0 0 1-8.045-4.051l-85.292-115.216c-3.286-4.439-2.352-10.701 2.087-13.987 4.439-3.285 10.701-2.351 13.987 2.087l85.292 115.216c3.286 4.439 2.352 10.701-2.087 13.987a9.96 9.96 0 0 1-5.942 1.964z"/><path d="M201.902 952.894a9.956 9.956 0 0 1-5.679-1.776c-4.542-3.142-5.678-9.37-2.537-13.912l72.731-105.17c3.141-4.543 9.371-5.679 13.913-2.537s5.678 9.37 2.537 13.912l-72.731 105.17a9.99 9.99 0 0 1-8.234 4.313zm430.592-645.555c-5.369 0-10.757-.19-16.164-.606-14.253-1.099-28.261-3.771-41.809-6.357-11.003-2.1-22.38-4.271-33.494-5.491-17.176-1.886-35.036-1.652-52.308-1.424l-132.415 1.738c-5.504.096-10.058-4.346-10.13-9.868-.073-5.522 4.345-10.058 9.868-10.13l132.414-1.738c17.875-.233 36.358-.477 54.752 1.541 11.903 1.307 23.676 3.554 35.062 5.727 13.606 2.597 26.458 5.05 39.596 6.062 32.386 2.497 65.347-4.068 97.223-10.416l60.441-12.034c5.415-1.077 10.682 2.438 11.76 7.854 1.079 5.417-2.438 10.682-7.854 11.761l-60.441 12.034c-28.092 5.594-56.993 11.349-86.5 11.349zm-44.821 68.258c-11.951 0-23.716-2.873-33.8-5.918-2.25-.68-4.508-1.384-6.772-2.091-14.692-4.587-28.569-8.92-41.952-6.95-4.125.606-8.363 1.85-12.85 3.166-6.81 1.997-13.851 4.063-21.681 4.305-11.358.347-21.449-3.183-31.21-6.601-3.878-1.357-7.541-2.641-11.188-3.646-9.852-2.717-21.931-2.479-26.707 4.179-3.219 4.488-9.467 5.516-13.954 2.296-4.488-3.219-5.516-9.467-2.296-13.954 11.09-15.457 32.209-16.231 48.275-11.8 4.3 1.186 8.458 2.642 12.479 4.05 8.405 2.942 16.341 5.729 23.983 5.486 5.272-.163 10.808-1.787 16.669-3.506 4.947-1.451 10.063-2.952 15.569-3.762 17.896-2.628 34.634 2.593 50.822 7.646 2.204.688 4.402 1.375 6.594 2.036 14.069 4.249 31.957 8.229 45.527 1.244 4.909-2.526 10.94-.597 13.468 4.314s.596 10.94-4.314 13.469c-8.565 4.408-17.667 6.037-26.662 6.037zm87.012 201.758c-5.08 0-10.01-.284-14.769-.974-17.208-2.49-32.201-5.276-45.43-7.734-18.964-3.523-38.573-7.168-43.905-5.01-7.59 3.073-21.343 1.827-48.773-1.529-11.16-1.366-26.446-3.241-30.074-2.562-17.341 3.373-33.741-1.255-49.601-5.729-3.871-1.093-7.527-2.124-11.2-3.043-11.81-2.955-33.289-6.125-44.469 5.851-3.769 4.037-10.097 4.255-14.134.485-4.037-3.769-4.254-10.097-.485-14.134 13.472-14.431 36.18-18.552 63.943-11.604 3.963.991 7.935 2.112 11.777 3.196 14.236 4.017 27.681 7.811 40.354 5.346 6.32-1.228 17.919.091 36.321 2.342 12.746 1.561 34.047 4.171 38.956 2.796 10.75-4.279 27.41-1.185 54.946 3.933 13.044 2.424 27.829 5.171 44.641 7.604 12.923 1.868 29.019-.042 46.059-2.065 13.726-1.63 27.919-3.315 42.511-3.387 11.045-.044 22.284.669 33.158 1.367 24.843 1.595 50.531 3.245 79.034-3.53 5.373-1.283 10.764 2.043 12.042 7.416 1.277 5.373-2.043 10.764-7.416 12.041-31.419 7.468-58.628 5.72-84.941 4.032-11.021-.708-21.427-1.385-31.78-1.326-13.458.065-27.078 1.684-40.25 3.248-12.752 1.514-25.015 2.971-36.514 2.971zm-111.574-32.271-.036.015.036-.015zm-79.192 90.325c-19.691 0-36.546-3.994-52.916-7.874-19.844-4.702-38.587-9.144-61.167-6.043-5.472.753-10.516-3.075-11.267-8.547s3.075-10.516 8.547-11.268c26.28-3.608 47.743 1.478 68.5 6.396 18.072 4.283 35.142 8.325 55.647 7.119 6.55-.386 17.427-3.354 27.946-6.226 13.787-3.763 26.81-7.317 36.631-7.37 19.979-.104 40.153.451 59.662.99 5.521.152 9.873 4.751 9.72 10.272-.152 5.521-4.778 9.858-10.272 9.72-19.348-.534-39.353-1.084-59.004-.982-7.195.038-20.092 3.559-31.471 6.664-12.037 3.285-23.406 6.389-32.036 6.896-2.899.171-5.739.251-8.519.251zM371.29 934.034c-5.369 0-9.808-4.26-9.988-9.666-.716-21.439 20.195-37.342 40.174-38.743 16.993-1.196 32.851 5.412 46.841 11.24l2.226.926c12.313 5.109 26.497 10.333 38.991 7.618 5.92-1.286 11.762-4.381 17.949-7.657 7.397-3.918 15.046-7.969 24.072-9.727 18.768-3.654 36.342 4.001 51.846 10.754 4.228 1.842 8.221 3.581 12.212 5.11 34.559 13.249 74.385 10.206 106.532-8.137 4.797-2.739 10.905-1.067 13.641 3.729 2.737 4.797 1.067 10.904-3.73 13.642-37.299 21.281-83.505 24.812-123.602 9.441-4.409-1.69-8.797-3.602-13.041-5.45-14.077-6.132-27.373-11.919-40.037-9.459-6.111 1.19-12.146 4.387-18.534 7.77-7.108 3.765-14.458 7.657-23.062 9.527-18.145 3.944-35.79-2.417-50.904-8.689l-2.251-.937c-13.102-5.458-25.478-10.615-37.75-9.751-10.451.733-21.902 8.64-21.586 18.124.184 5.521-4.141 10.145-9.661 10.328a9.681 9.681 0 0 1-.34.006z"/><path d="M239.795 1067.564c-19.378 0-38.824-2.682-57.629-8.074-39.214-11.246-62.983-35.228-86.606-67.776-25.927-35.723-32.921-65.812-24.14-103.855 10.115-43.822 36.171-80.079 73.368-102.09 35.107-20.774 68.186-25.942 106.489-31.928l6.993-1.096c5.458-.861 10.575 2.865 11.436 8.32s-2.865 10.575-8.32 11.436l-7.02 1.101c-37.762 5.9-67.588 10.561-99.391 29.38-32.441 19.196-55.193 50.937-64.065 89.375-7.423 32.158-1.58 56.722 20.838 87.609 21.799 30.034 42.105 50.598 75.934 60.3 38.595 11.068 80.179 9.518 117.091-4.361 37.604-14.14 69.469-40.6 89.724-74.505 18.249-30.548 25.804-65.259 21.274-97.738-7.315-52.448-46.895-101.472-105.874-131.14-38.955-19.595-81.341-23.778-126.216-28.207-15.877-1.566-32.294-3.188-48.548-5.544-5.466-.793-9.254-5.866-8.461-11.332.792-5.465 5.865-9.249 11.332-8.461 15.802 2.291 31.989 3.889 47.642 5.434 44.72 4.414 90.962 8.978 133.239 30.243 29.819 14.999 56.188 35.514 76.257 59.324 22.197 26.335 36.18 56.392 40.438 86.919 5.158 36.979-3.334 76.313-23.913 110.76-22.568 37.775-58.031 67.24-99.854 82.968-22.89 8.607-47.395 12.939-72.015 12.939z" fill="#f283a5"/></svg></g><g transform="translate(748.8 565.1999999999999) rotate(0.0 1074.0 948.6000000000001) scale(1.4178882310656142 1.4186401782048954)"><svg width="1514.929" height="1337.337" viewBox="0 0 1514.929 1337.337"><path d="M524.296 902.24c-63.911 4.071-127.961-3.416-191.39-12.248-73.19-10.191-171.378-10.098-228.692-56.744-12.806-10.422-45.306-58.658-14.46-92.195 24.045-26.143 99.224-10.402 124.031-12.856 85.34-8.44 223.186-8.647 302.203-36.622 32.379-11.464 63.589-26.406 96.797-35.182 33.209-8.777 69.611-10.955 101.045 2.893 26.311 11.591 47.551 34.42 56.735 61.665s6.016 58.496-8.883 83.086c-20.489 33.816-68.588 53.28-103.858 68.306-42.201 17.979-87.88 26.99-133.529 29.897z" fill="#fff"/><path d="M487.142 913.387c-53.424 0-105.86-6.562-155.615-13.49-14.587-2.031-30.061-3.637-46.443-5.337-65.207-6.766-139.114-14.435-187.182-53.556-11.314-9.208-28.95-35.24-30.872-61.873-1.232-17.072 4.081-32.58 15.364-44.848 20.604-22.401 65.659-19.376 101.862-16.946 11.557.776 22.472 1.509 28.545.909 23.062-2.281 49.839-3.96 78.188-5.737 77.411-4.853 165.15-10.354 221.661-30.36 11.529-4.081 23.187-8.723 34.461-13.211 20.323-8.091 41.337-16.457 63.119-22.213 40.847-10.795 78.065-9.615 107.632 3.409 28.963 12.76 52.208 38.04 62.18 67.623 10.209 30.286 6.544 64.478-9.807 91.461-21.394 35.311-69.42 55.72-104.488 70.622l-4.003 1.703c-40.22 17.135-86.251 27.456-136.812 30.677-12.633.805-25.242 1.167-37.789 1.167zm37.154-11.147h.01zM147.357 735.736c-20.997 0-41.364 2.433-50.242 12.086-7.669 8.339-10.985 18.108-10.136 29.869 1.564 21.669 17.264 42.687 23.548 47.801 43.442 35.355 114.196 42.697 176.621 49.175 16.561 1.718 32.204 3.342 47.137 5.421 60.42 8.413 124.822 16.28 189.375 12.173 48.294-3.077 92.115-12.874 130.245-29.118l4.02-1.709c34.375-14.608 77.155-32.788 95.205-62.579 13.335-22.008 16.311-49.937 7.959-74.709-8.208-24.35-27.382-45.176-51.291-55.709-32.06-14.123-69.062-9.087-94.458-2.376-20.615 5.448-41.06 13.587-60.832 21.458-11.451 4.559-23.291 9.272-35.184 13.483-59.146 20.939-148.367 26.533-227.085 31.468-28.164 1.766-54.767 3.434-77.471 5.679-7.724.764-18.906.013-31.853-.856-10.587-.71-23.183-1.556-35.56-1.556z"/><path d="M1173.528 509.277c45.193 49.68 64.805 113.614 85.745 177.426 19.624 59.801 26.334 125.229 30.97 187.993 2.701 36.572 8.308 70.112 5.868 106.699-2.477 37.13-37.502 122.98-47.651 149.983-10.952 29.139-26.139 51.352-43.724 77.022-13.799 20.143-28.717 44.552-47.124 60.68-26.789 23.472-57.997 41.546-92.282 50.884-43.602 11.875-89.907 8.842-133.091-5.045-25.91-8.332-48.934-35.724-71.338-50.995-59.744-40.724-105.676-85.972-137.689-150.802-72.6-147.02-152.161-307.576-102.264-463.768 21.436-67.102 75.079-124.71 125.692-173.705 80.597-78.02 249.731-80.16 347.875-21.161 25.566 15.369 58.953 32.738 79.014 54.79z" fill="#fff"/><path d="M1008.999 1337.34c-26.197 0-53.113-4.312-79.824-12.902-18.783-6.04-35.152-20.157-50.982-33.81-8.003-6.902-15.562-13.422-22.927-18.442-67.411-45.95-110.904-93.643-141.023-154.638l-.473-.958c-36.637-74.192-74.521-150.91-97.38-229.634-26.223-90.312-27.849-169.028-4.97-240.646 21.82-68.304 74.541-125.843 128.263-177.847 39.777-38.507 101.522-61.508 173.862-64.769 68.509-3.079 136.349 12.303 186.12 42.223 4.311 2.591 8.807 5.217 13.566 7.996 23.449 13.694 50.026 29.215 67.693 48.635 44.678 49.114 65.247 111.974 85.139 172.763l2.71 8.274c20.697 63.07 27.081 131.338 31.441 190.375.74 10.025 1.718 19.989 2.664 29.626 2.585 26.338 5.027 51.216 3.208 78.476-2.245 33.653-28.753 102.242-42.995 139.091-2.106 5.449-3.924 10.154-5.274 13.744-11.415 30.37-26.902 52.979-44.834 79.155-2.213 3.23-4.454 6.57-6.735 9.969-12.015 17.903-25.633 38.196-42.049 52.581-29.448 25.802-61.829 43.637-96.245 53.01-18.934 5.157-38.732 7.729-58.957 7.729zm-78.058-914.036c-5.487 0-10.984.122-16.495.371-66.482 2.996-125.11 24.558-160.853 59.157C701.747 533.02 650.948 588.3 630.471 652.395c-48.559 152.005 31.02 313.157 101.231 455.339l.473.958c28.511 57.737 69.948 103.063 134.355 146.968 8.303 5.659 16.651 12.859 24.725 19.822 14.318 12.349 29.125 25.118 44.042 29.916 43.634 14.031 87.689 15.732 127.401 4.916 31.46-8.568 61.176-24.973 88.32-48.756 14.448-12.659 26.738-30.973 38.623-48.684 2.317-3.452 4.594-6.846 6.842-10.126 17.198-25.104 32.05-46.786 42.613-74.89 1.382-3.676 3.216-8.422 5.34-13.917 12.871-33.302 39.652-102.597 41.694-133.213 1.708-25.614-.655-49.695-3.157-75.19-.958-9.754-1.948-19.841-2.706-30.106-4.272-57.857-10.505-124.687-30.498-185.611l-2.715-8.29c-20.123-61.495-39.129-119.578-80.926-165.524-15.604-17.154-40.775-31.854-62.984-44.823-4.816-2.812-9.365-5.469-13.785-8.126-42.522-25.562-99.506-39.754-158.421-39.754z"/><path d="M1403.525 771.984c30.851 56.12 51.298 117.278 70.264 178.446 21.885 70.581 42.152 145.751 24.292 217.456-3.991 16.021-2.877 69.917-47.044 63.054-35.098-5.453-60.301-82.503-73.066-103.914-43.914-73.66-102.694-198.346-161.602-257.978-24.14-24.436-50.93-46.334-72.99-72.663s-39.505-58.354-40.331-92.693c-.692-28.743 10.944-57.673 31.702-77.566 20.757-19.893 50.392-30.31 78.982-27.275 39.318 4.173 77.381 39.437 105.974 64.976 34.211 30.557 61.784 68.074 83.819 108.158z" fill="#fff"/><path d="M1458.45 1241.541c-2.874 0-5.856-.24-8.948-.72-32.25-5.011-53.905-52.535-69.716-87.235-4.138-9.082-7.712-16.925-10.404-21.439-11.868-19.906-24.769-43.43-38.427-68.335-37.297-68.007-79.57-145.088-121.7-187.736-8.596-8.701-17.753-17.282-26.609-25.58-15.96-14.956-32.464-30.421-46.932-47.688-27.133-32.385-41.886-66.575-42.663-98.876-.762-31.639 12.24-63.424 34.779-85.025 23.075-22.115 55.585-33.328 86.957-30 41.057 4.356 79.945 39.155 108.34 64.564l3.24 2.897c32.606 29.123 61.514 66.4 85.921 110.798 32.06 58.32 52.68 121.05 71.053 180.302 22.432 72.349 42.797 149.149 24.444 222.835-.526 2.111-1.008 5.494-1.565 9.412-2.34 16.439-5.877 41.283-23.238 54.146-6.898 5.11-15.124 7.681-24.532 7.681zm-254.691-633.216c-22.718 0-45.402 9.027-62.089 25.021-18.552 17.78-29.253 43.987-28.624 70.105.843 35.023 21.129 66.377 37.999 86.512 13.693 16.343 29.75 31.388 45.277 45.938 8.994 8.429 18.295 17.144 27.162 26.12 44.094 44.636 87.081 123.019 125.007 192.174 13.57 24.743 26.387 48.113 38.07 67.71 3.256 5.461 7.042 13.77 11.425 23.389 12.34 27.082 32.995 72.41 54.587 75.765 7.838 1.219 13.891.148 18.503-3.268 10.645-7.886 13.472-27.75 15.343-40.894.635-4.464 1.184-8.319 1.958-11.428 17.108-68.684-2.544-142.43-24.139-212.077-18.069-58.273-38.317-119.91-69.477-176.591-23.312-42.406-50.806-77.907-81.718-105.517l-3.253-2.909c-27.834-24.907-62.475-55.904-97.114-59.58a84.668 84.668 0 0 0-8.918-.47z"/><path d="M266.438 603.337c-10.128-7.977-24.808-6.232-32.783 3.895L19.931 878.574C11.952 888.702 10 924.872 10 924.872s42.003-11.561 46.608-17.409l213.724-271.342c7.979-10.128 6.236-24.806-3.894-32.784z" fill="#fff"/><path d="M10.001 934.872a10 10 0 0 1-9.986-10.539c.498-9.227 2.839-40.241 12.061-51.947l213.723-271.342c5.51-6.996 13.416-11.428 22.26-12.479 8.845-1.047 17.57 1.405 24.566 6.917 6.997 5.512 11.43 13.418 12.48 22.262 1.051 8.846-1.406 17.569-6.919 24.566L64.463 913.652c-1.642 2.085-6.638 8.43-51.81 20.862-.874.24-1.767.358-2.653.358zm242.02-326.542c-.531 0-1.066.031-1.602.095a13.253 13.253 0 0 0-8.908 4.994L27.786 884.762c-2.563 3.253-4.999 14.444-6.499 26.386 12.766-3.953 24.642-8.217 27.907-10.433l213.282-270.781a13.25 13.25 0 0 0 2.769-9.831 13.255 13.255 0 0 0-4.995-8.91 13.243 13.243 0 0 0-8.229-2.862z"/><path d="m233.021 727.577-61.67-15.052c-8.092-1.975-17.664-3.618-23.89 1.914-4.527 4.022-5.678 10.893-4.155 16.754s5.295 10.874 9.386 15.338c13.872 15.137 32.524 25.828 52.597 30.146" fill="#fff"/><path d="M205.298 786.679c-.697 0-1.404-.073-2.113-.226-22.065-4.746-42.616-16.524-57.867-33.165-4.292-4.685-9.5-11.143-11.692-19.579-2.611-10.046.212-20.544 7.191-26.746 10.761-9.559 25.717-5.907 32.905-4.152l61.669 15.052c5.365 1.31 8.653 6.721 7.344 12.086-1.31 5.365-6.719 8.654-12.086 7.344l-61.669-15.052c-3.271-.799-11.958-2.921-14.879-.325-1.331 1.183-1.812 4.091-1.118 6.763.846 3.254 3.029 6.677 7.08 11.098 12.473 13.61 29.281 23.243 47.327 27.125 5.399 1.161 8.835 6.479 7.674 11.879-1.009 4.69-5.156 7.899-9.767 7.899z"/><path d="M1150.872 70.434c73.781 49.626 116.736 139.558 115.176 228.462s-15.383 178.934-82.364 237.414c-66.98 58.48-185.512 86.037-274.348 89.857-88.835 3.82-220.66 12.966-299.72-27.726-56.355-29.006-93.287-84.789-113.442-144.262-28.681-84.63-27.181-184.461 14.452-263.528 41.632-79.067 103.262-115.384 187.859-144.166 113.169-38.503 252.456-50.817 365.289-15.92 30.594 9.462 60.44 21.938 87.098 39.869z" fill="#fff"/><path d="M795.893 639.798c-68.316 0-139.777-6.177-190.852-32.464-28.046-14.436-52.847-35.83-73.713-63.589-18.557-24.688-33.571-53.741-44.624-86.355-31.344-92.485-25.708-193.942 15.074-271.396 20.562-39.051 46.993-69.924 80.805-94.384 29.335-21.222 64.087-38.059 112.681-54.591 126.191-42.933 265.057-48.918 371.465-16.007 35.604 11.012 64.953 24.464 89.725 41.125 37.218 25.033 68.068 60.771 89.216 103.351 20.676 41.631 31.181 87.824 30.378 133.585-.951 54.205-6.37 96.39-17.053 132.758-13.825 47.063-36.307 83.703-68.732 112.014-71.359 62.304-195.7 88.668-280.495 92.315-5.884.253-11.958.529-18.191.812-29.258 1.332-62.096 2.825-95.682 2.826zM915.9 19.932c-69.822 0-143.966 12.127-214.194 36.021-79.596 27.082-141.047 61.145-182.231 139.359-38.277 72.694-43.447 168.268-13.829 255.658 21.896 64.607 60.445 113.823 108.548 138.581 71.447 36.771 189.948 31.38 276.473 27.441 6.251-.284 12.341-.562 18.241-.815 81.562-3.507 200.742-28.501 268.201-87.399 67.424-58.868 77.605-153.869 78.942-230.057 1.532-87.352-41.943-173.702-110.759-219.988-23.128-15.557-50.759-28.188-84.472-38.613-43.672-13.507-93.108-20.188-144.919-20.188z"/><path d="M1011.965 223.63c26.466 19.217 42.523 70.155 50.474 101.881 10.033 40.036 15.352 102.546-14.509 131.038-29.861 28.493-95.517 34.82-135.754 44.014-106.073 24.24-233.323 22.14-304.418-6.336-19.881-7.963-36.271-53.199-46.483-72.024-10.294-18.977-20.732-61.213-13.855-81.678 6.876-20.465 10.519-71.13 26.107-86.067 34.614-33.168 65.534-29.796 112.074-41.3 29.97-7.408 75.221-13.58 105.927-16.392 21.653-1.983 52.487 3.706 73.9 1.913 46.745-3.914 109.907-1.647 146.536 24.951z"/><path d="M759.717 527.29c-4.376 0-8.726-.042-13.062-.127-57.474-1.123-106.789-9.302-142.615-23.651-19.018-7.618-32.821-37.13-43.912-60.843-2.807-6.001-5.458-11.669-7.643-15.696-11.245-20.73-22.501-65.953-14.545-89.632 2.018-6.008 3.881-15.684 5.853-25.927 4.682-24.32 9.988-51.886 22.815-64.177 28.091-26.918 54.364-31.706 84.786-37.251 10.039-1.83 20.42-3.722 31.807-6.536 30.221-7.469 75.724-13.74 107.415-16.642 11.806-1.083 25.767-.067 39.267.912 12.263.892 24.944 1.811 34.71.994 38.942-3.262 110.64-4.107 153.247 26.824 22.182 16.106 40.451 52.289 54.299 107.542 3.595 14.344 9.413 42.869 7.995 72.753-1.446 30.45-9.958 53.312-25.3 67.951-25.747 24.566-73.977 33.664-112.731 40.975-10.005 1.887-19.456 3.67-27.698 5.554-48.263 11.028-102.702 16.976-154.688 16.977zm42.231-320.947c-3.362 0-6.559.112-9.507.382-30.94 2.833-75.233 8.923-104.439 16.142-11.989 2.963-22.68 4.911-33.02 6.796-29.482 5.373-50.783 9.256-74.535 32.017-8.229 7.885-13.306 34.258-17.013 53.516-2.102 10.922-4.088 21.237-6.534 28.517-5.43 16.159 2.84 54.688 13.166 73.725 2.469 4.552 5.115 10.209 8.179 16.76 8.059 17.23 21.547 46.069 33.232 50.75 68.232 27.33 193.758 29.799 298.472 5.87 8.615-1.969 18.248-3.785 28.446-5.709 36.163-6.821 81.167-15.311 102.632-35.792 25.095-23.944 21.993-80.348 11.712-121.372-12.318-49.149-28.885-83.321-46.649-96.22-38.768-28.15-110.7-25.515-139.827-23.078-11.324.948-24.797-.03-37.828-.977-9.016-.654-18.249-1.325-26.487-1.325z"/><circle cx="859.978" cy="354.388" fill="#d3cfff" r="52.191"/><path d="M859.942 416.585c-30.08 0-56.6-21.931-61.404-52.56-2.574-16.412 1.397-32.843 11.182-46.268 9.784-13.425 24.211-22.235 40.622-24.809 33.879-5.315 65.763 17.926 71.076 51.803 5.313 33.878-17.926 65.763-51.803 71.076-3.249.51-6.483.757-9.673.757zm-41.645-55.659c3.605 22.983 25.237 38.747 48.219 35.145 22.982-3.605 38.748-25.236 35.144-48.219s-25.234-38.744-48.219-35.145c-11.133 1.746-20.92 7.724-27.558 16.831s-9.332 20.254-7.585 31.388z"/><circle cx="633.908" cy="375.949" fill="#d3cfff" r="52.191"/><path d="M633.872 438.145c-30.08.002-56.599-21.931-61.403-52.56-2.574-16.412 1.397-32.843 11.181-46.268s24.211-22.235 40.622-24.809c16.411-2.578 32.842 1.396 46.267 11.181s22.235 24.211 24.809 40.622c5.313 33.878-17.926 65.763-51.803 71.076-3.248.51-6.483.757-9.673.757zm.127-104.396c-2.199 0-4.413.172-6.628.519-11.134 1.746-20.921 7.724-27.558 16.831-6.638 9.107-9.332 20.254-7.586 31.388 3.604 22.983 25.234 38.745 48.219 35.145 22.983-3.605 38.748-25.236 35.144-48.219-1.746-11.134-7.724-20.921-16.831-27.56-7.296-5.317-15.902-8.104-24.76-8.104z"/><g fill="#d3cfff"><path d="M717.858 920.958c-4.69 0-8.875-3.315-9.805-8.092-12.3-63.205-3.492-129.87 24.803-187.713a10.014 10.014 0 0 1 9.752-5.576 10 10 0 0 1 8.781 7.007 1320.177 1320.177 0 0 0 68.839 176.038c2.375 4.986.259 10.954-4.727 13.329-4.984 2.379-10.953.261-13.329-4.726-23.626-49.586-44.334-101.031-61.706-153.265-18.012 47.95-22.588 100.697-12.783 151.085 1.055 5.421-2.484 10.671-7.906 11.726-.645.126-1.288.187-1.921.187zm172.99-5.773c-4.679 0-8.859-3.301-9.8-8.065l-35.396-179.297c-1.07-5.418 2.456-10.678 7.874-11.747 5.419-1.069 10.678 2.456 11.748 7.874l35.396 179.297c1.07 5.418-2.456 10.678-7.874 11.747-.654.129-1.306.191-1.948.191z"/><path d="M915.278 916.553c-.061 0-.123 0-.184-.002l-52.662-.954c-5.522-.1-9.917-4.657-9.817-10.18.099-5.46 4.557-9.818 9.995-9.818.062 0 .123 0 .185.002l52.661.954c5.522.1 9.917 4.657 9.818 10.179-.099 5.46-4.557 9.819-9.995 9.819zm-85.69-183.441c-5.407 0-9.856-4.313-9.992-9.75-.138-5.521 4.226-10.108 9.747-10.247l50.149-1.254c5.512-.128 10.109 4.226 10.247 9.747s-4.226 10.108-9.747 10.247l-50.149 1.254-.255.003zm-111.624 103.62c-5.357 0-9.793-4.244-9.987-9.641-.198-5.52 4.115-10.154 9.635-10.353 10.784-.388 19.897-.485 28.71-.58 8.689-.094 17.675-.19 28.208-.568 5.524-.225 10.154 4.115 10.353 9.634.198 5.52-4.115 10.154-9.635 10.353-10.784.388-19.897.485-28.71.58-8.689.094-17.675.19-28.208.568a8.922 8.922 0 0 1-.365.007z"/></g></svg></g></svg>