<svg xmlns="http://www.w3.org/2000/svg" viewBox="0 0 3000 3000" width="3000" height="3000"><g transform="translate(1644.0 1016.4) rotate(0.0 510.5999999999999 407.40000000000003) scale(1.2079974827471176 1.2074116224482538)"><svg width="845.366" height="674.832" viewBox="0 0 845.366 674.832"><path d="M844.214 451.615 358.867 160.957 27.754 325.963l-.957 26.777a6.409 6.409 0 0 0 2.926 5.612l484.373 313.122a14.719 14.719 0 0 0 14.904.633l306.133-178.422a15.63 15.63 0 0 0 8.045-13.116z"/><path d="M522.078 674.828c-2.979 0-5.942-.845-8.525-2.514L29.18 359.192a7.446 7.446 0 0 1-3.382-6.488l.957-26.777a.999.999 0 0 1 .553-.858L358.42 160.062c.306-.153.667-.137.96.037l485.347 290.659a1 1 0 0 1 .486.894l-1.036 28.955c-.207 5.796-3.487 11.143-8.56 13.954L529.503 672.972a15.808 15.808 0 0 1-7.425 1.856zM28.732 326.592l-.936 26.184a5.433 5.433 0 0 0 2.469 4.736l484.374 313.122a13.729 13.729 0 0 0 13.891.591l306.1-178.404c4.481-2.483 7.367-7.188 7.549-12.287l1.015-28.364-484.371-290.074z"/><path d="M525.896 645.167 836.118 467.67c10.525-5.718 11.093-20.616 1.034-27.119L370.513 140.237a24.09 24.09 0 0 0-24.392-1.037L33.442 318.016c-6.383 3.396-6.678 12.435-.531 16.241l483.58 310.644a9.37 9.37 0 0 0 9.405.266z" fill="#fff"/><path d="M521.425 647.3c-1.899 0-3.795-.519-5.46-1.549L32.371 335.098c-3.181-1.969-5.015-5.392-4.893-9.147s2.176-7.052 5.494-8.817l312.652-178.801a25.117 25.117 0 0 1 25.432 1.065L837.693 439.71c5.025 3.248 7.888 8.756 7.66 14.733s-3.502 11.25-8.758 14.105L526.393 646.036l-.019.011a10.374 10.374 0 0 1-4.949 1.253zM357.432 137.38c-3.719 0-7.445.896-10.841 2.703L33.939 318.884c-2.705 1.439-4.363 4.101-4.461 7.132-.099 3.031 1.381 5.794 3.96 7.39l483.594 310.653a8.384 8.384 0 0 0 8.38.233l310.21-177.491c4.649-2.525 7.533-7.17 7.733-12.436.201-5.265-2.321-10.115-6.746-12.976L369.972 141.078a23.089 23.089 0 0 0-12.54-3.698zm168.464 507.788h.01z"/><path d="m132.047 313.975 93.22-49.749a26.097 26.097 0 0 1 26.15.913l377.507 236.703c11.446 7.177 10.816 24.056-1.132 30.361l-93.148 49.149a26.097 26.097 0 0 1-26.01-.951l-377.627-236.03c-11.457-7.161-10.88-24.035 1.04-30.396z" fill="#fff"/><path d="M522.474 585.356a27.115 27.115 0 0 1-14.371-4.106L130.477 345.218c-5.687-3.554-8.945-9.677-8.716-16.378.229-6.703 3.898-12.59 9.815-15.747l93.22-49.749c8.543-4.559 18.947-4.196 27.152.948l377.507 236.703c5.682 3.563 8.924 9.691 8.674 16.393s-3.94 12.57-9.871 15.7l-93.148 49.149a27.053 27.053 0 0 1-12.636 3.119zM132.047 313.975l.471.882c-5.279 2.818-8.553 8.07-8.757 14.052-.205 5.979 2.703 11.443 7.776 14.614l377.627 236.031c7.553 4.722 17.138 5.071 25.014.914l93.148-49.149c5.291-2.791 8.583-8.026 8.806-14.005.223-5.978-2.669-11.445-7.738-14.623L250.886 265.987a25.155 25.155 0 0 0-25.148-.878l-93.22 49.748z"/><path d="m501.364 262.977 132.048 82.796c11.447 7.178 10.816 24.061-1.136 30.363l-73.029 38.507a26.096 26.096 0 0 1-26.003-.954l-131.837-82.395c-11.458-7.161-10.881-24.035 1.039-30.396l72.768-38.834a26.095 26.095 0 0 1 26.15.913z" fill="#fff"/><path d="M547.084 418.642a27.12 27.12 0 0 1-14.37-4.105l-131.837-82.396c-5.687-3.554-8.945-9.677-8.716-16.379.229-6.703 3.898-12.59 9.815-15.747l72.768-38.834c8.543-4.559 18.947-4.196 27.152.948l132.048 82.796c5.683 3.563 8.925 9.692 8.674 16.395-.25 6.702-3.942 12.572-9.875 15.701l-73.029 38.507a27.078 27.078 0 0 1-12.63 3.114zm-59.589-158.643c-4.057 0-8.121.978-11.81 2.947l-72.768 38.833c-5.279 2.818-8.553 8.07-8.758 14.052-.204 5.98 2.703 11.443 7.777 14.615l131.837 82.396c7.551 4.719 17.132 5.069 25.007.917l73.029-38.507c5.292-2.791 8.586-8.027 8.81-14.007.224-5.979-2.669-11.446-7.738-14.624l-132.048-82.797a25.107 25.107 0 0 0-13.338-3.825z"/><path d="m543.359 654.778-24.972-330.986a14.719 14.719 0 0 0-7.137-13.147L34.417 1.914a6.413 6.413 0 0 0-6.491-.062L4.241 13.006l26.392 319.956 490.151 326.073z"/><path d="M520.784 660.034c-.196 0-.389-.058-.554-.167L30.079 333.795a1 1 0 0 1-.443-.751L3.244 13.087a1 1 0 0 1 .571-.987L27.5.947c2.255-1.298 5.129-1.272 7.431.109l476.863 308.749c4.86 2.915 7.778 8.269 7.595 13.965l24.967 330.933a.999.999 0 0 1-.812 1.058l-22.576 4.256c-.06.011-.123.017-.184.017zM31.589 332.397l489.409 325.578 21.296-4.015-24.904-330.094a1.028 1.028 0 0 1-.002-.111 13.718 13.718 0 0 0-6.651-12.253L33.873 2.753a5.405 5.405 0 0 0-5.449-.034L5.294 13.614z"/><path d="M495.087 338.872a14.719 14.719 0 0 0-7.137-13.147L10.704 13.08C6.52 10.57 1.177 13.469 1 18.345l25.797 334.396a6.4 6.4 0 0 0 2.928 5.61l484.371 313.124c1.882 1.216 6.13 2.238 6.13 2.238z" fill="#adc4cb"/><path d="M520.226 674.713c-.078 0-.156-.009-.234-.027-.18-.044-4.436-1.076-6.438-2.37L29.182 359.191a7.437 7.437 0 0 1-3.386-6.427L.003 18.422A1.073 1.073 0 0 1 0 18.309a7.343 7.343 0 0 1 3.872-6.245 7.346 7.346 0 0 1 7.346.16l477.28 312.665c4.856 2.913 7.773 8.268 7.59 13.964l25.134 334.786a1.001 1.001 0 0 1-.996 1.074zM2.001 18.327l25.793 334.338c.003.038.003.075.002.113a5.424 5.424 0 0 0 2.47 4.732l484.372 313.126c1.034.668 3.031 1.33 4.484 1.748L494.09 338.948a1.028 1.028 0 0 1-.002-.111 13.72 13.72 0 0 0-6.652-12.254L10.156 13.917c-1.625-.974-3.63-1.018-5.33-.096a5.364 5.364 0 0 0-2.825 4.506z"/><path d="M492.489 329.991s-2.705-3.166-4.542-4.266L10.706 13.082c-2.074-1.245-4.426-1.161-6.299-.169L27.928 1.852a6.395 6.395 0 0 1 6.485.063l476.838 308.73c2.295 1.379 5.358 5.596 5.358 5.596z" fill="#fff"/><path d="M492.49 330.991a.997.997 0 0 1-.761-.351c-.724-.847-2.906-3.226-4.295-4.057L10.158 13.919a5.336 5.336 0 0 0-4.783-.355l-.542.255a1 1 0 0 1-.894-1.789c.208-.11.42-.21.634-.299L27.503.948c2.259-1.301 5.131-1.272 7.427.111l476.866 308.747c2.413 1.449 5.494 5.669 5.624 5.848a1.002 1.002 0 0 1-.314 1.457l-24.121 13.75c-.156.087-.326.13-.495.13zM9.702 11.528a7.56 7.56 0 0 1 1.52.697l477.274 312.663c1.425.854 3.291 2.819 4.205 3.831l22.422-12.782c-1.117-1.418-2.998-3.601-4.386-4.435L33.87 2.754c-1.647-.992-3.743-1.012-5.443-.035z"/><ellipse cx="235.084" cy="328.233" fill="#fff" rx="28.236" ry="54.173" transform="matrix(.8448 -.5351 .5351 .8448 -139.1434 176.7234)"/><path d="M255.116 377.452c-5.071 0-10.823-1.781-16.905-5.31-10.117-5.87-19.999-15.908-27.826-28.267s-12.679-25.582-13.661-37.237c-1.002-11.887 2.137-20.771 8.839-25.016s16.075-3.286 26.394 2.701c10.117 5.869 19.999 15.908 27.826 28.266s12.679 25.583 13.662 37.238c1.002 11.887-2.137 20.771-8.839 25.016-2.753 1.744-5.957 2.609-9.49 2.609zm-40.051-96.439c-3.161 0-6.005.763-8.431 2.299-6.042 3.826-8.853 12.051-7.916 23.158.956 11.34 5.7 24.244 13.357 36.335 7.658 12.092 17.296 21.896 27.14 27.606 9.642 5.595 18.278 6.568 24.32 2.742s8.853-12.051 7.916-23.158c-.956-11.341-5.7-24.245-13.358-36.336s-17.296-21.896-27.14-27.606c-5.769-3.347-11.179-5.04-15.888-5.04z"/></svg></g><g transform="translate(970.8 879.6) rotate(0.0 387.6 541.8) scale(1.2000501568951025 1.2024074780956777)"><svg width="645.973" height="901.192" viewBox="0 0 645.973 901.192"><path d="M644.973 715.397c0 102.059-143.887 184.794-321.381 184.794S2.21 817.456 2.21 715.397c0-10.122-2.723-529.839 0-539.518C26.942 87.956 163.7 85.764 323.592 85.764c161.578 0 321.381 100.031 321.381 100.031v529.602z" fill="#87c159"/><path d="M323.592 901.192c-86.016 0-166.899-19.269-227.75-54.258C34.818 811.845 1.21 765.131 1.21 715.397c0-1.157-.036-8.969-.095-21.914-1.538-337.858-1.493-512.096.132-517.875 11.478-40.804 46.676-65.824 110.771-78.738C167.68 85.656 237.76 84.764 323.592 84.764c83.631 0 166.704 27.24 221.667 50.092 59.536 24.753 99.845 49.84 100.246 50.091a1 1 0 0 1 .469.848v529.603c0 49.733-33.607 96.447-94.632 131.536-60.851 34.989-141.734 54.258-227.75 54.258zm0-814.428c-85.719 0-155.698.889-211.178 12.067C49.137 111.58 14.425 136.149 3.172 176.15c-1.083 3.85-1.971 96.726-.057 517.324.059 12.951.095 20.766.095 21.923 0 101.345 143.723 183.794 320.382 183.794s320.381-82.45 320.381-183.794V186.352c-4.671-2.869-43.581-26.41-99.519-49.665-54.785-22.775-137.575-49.923-220.862-49.923z"/><path d="M323.592 525.578c166.862 0 305.549-73.42 321.381-166.976v38.557s-2.593 11.241-4.398 16.787c-27.912 85.708-159.824 147.863-316.983 147.863-120.309 0-227.289-34.888-282.635-91.091-38.747-39.347-39.843-57.16-39.843-57.16s-.032-23.709-.032-36.053c0-6.113.257-11.95-.032-18.605 15.834 93.555 155.679 166.678 322.542 166.678z" fill="#1d1d1b"/><path d="M323.592 562.809c-58.983 0-116.38-8.478-165.986-24.518-49.44-15.986-90.023-39.11-117.361-66.872C1.679 432.255.162 414.361.117 413.619c-.002-.06-.034-23.77-.034-36.115 0-1.954.026-3.88.053-5.814.055-4.053.112-8.244-.083-12.748a1 1 0 0 1 .894-1.038 1.008 1.008 0 0 1 1.091.828c7.622 45.037 44.595 86.837 104.109 117.702 59.863 31.046 137.087 48.144 217.446 48.144 80.25 0 157.267-17.15 216.864-48.291 59.131-30.897 95.899-72.751 103.532-117.852a1 1 0 0 1 1.986.167v38.557c0 .076-.009.151-.025.225-.106.461-2.624 11.348-4.422 16.872-13.613 41.802-52.874 79.684-110.551 106.668-57.734 27.01-131.384 41.885-207.385 41.885zM2.171 368.796c-.01.983-.023 1.957-.037 2.922-.026 1.924-.052 3.841-.052 5.787 0 12.344.032 36.052.032 36.052.432 6.032 9.257 25.692 39.555 56.46 27.114 27.533 67.417 50.484 116.552 66.372 49.41 15.976 106.594 24.421 165.371 24.421 75.714 0 149.063-14.808 206.535-41.697 57.17-26.748 96.057-64.207 109.497-105.476 1.676-5.148 4.075-15.413 4.349-16.592v-28.99c-10.913 42.159-46.956 80.934-102.591 110.005-59.877 31.288-137.224 48.518-217.79 48.518-80.674 0-158.225-17.177-218.367-48.368-55.794-28.936-91.981-67.488-103.054-109.414z"/><path d="M323.592 712.773c166.862 0 305.549-73.42 321.381-166.976v40.848s-1.484 5.094-4.336 14.993c-25.235 87.581-157.576 147.366-317.045 147.366-154.385 0-271.453-53.062-315.384-139.588-2.907-5.725-6.556-17.992-6.556-17.992s.14-38.662-.149-45.318c15.834 93.557 155.226 166.667 322.089 166.667z" fill="#1d1d1b"/><path d="M323.592 750.004c-153.491 0-271.725-52.387-316.275-140.135-2.914-5.74-6.472-17.655-6.622-18.159a1.01 1.01 0 0 1-.042-.289c.001-.387.137-38.715-.147-45.271a1 1 0 0 1 1.985-.21c7.625 45.052 44.517 86.851 103.882 117.696 59.744 31.042 136.887 48.137 217.219 48.137 80.25 0 157.267-17.15 216.864-48.291 59.131-30.897 95.899-72.751 103.532-117.852a1 1 0 0 1 1.986.167v40.848c0 .095-.014.189-.04.28 0 .001-1.484 5.094-4.335 14.991-25.124 87.192-155.893 148.088-318.007 148.088zM2.653 591.28c.414 1.373 3.78 12.431 6.446 17.684 44.203 87.063 161.77 139.041 314.492 139.041 77.412 0 151.438-14.471 208.442-40.748 28.316-13.053 51.917-28.651 70.147-46.361 18.744-18.209 31.359-38.239 37.495-59.534 2.583-8.963 4.044-13.988 4.297-14.859V555.25c-10.912 42.159-46.956 80.934-102.591 110.005-59.877 31.288-137.224 48.518-217.79 48.518-80.647 0-158.118-17.175-218.141-48.362-55.611-28.895-91.706-67.403-102.8-109.303.078 12.954.011 32.96.003 35.172z"/><ellipse cx="323.592" cy="185.794" fill="#fff" rx="321.381" ry="184.794"/><path d="M323.592 371.589c-86.016 0-166.899-19.269-227.75-54.258C34.818 282.241 1.21 235.528 1.21 185.794S34.818 89.347 95.842 54.258C156.692 19.269 237.576 0 323.592 0s166.899 19.269 227.75 54.258c61.024 35.089 94.632 81.803 94.632 131.536s-33.607 96.447-94.632 131.536c-60.851 34.99-141.734 54.259-227.75 54.259zm0-369.589C146.933 2 3.21 84.45 3.21 185.794s143.723 183.794 320.382 183.794 320.381-82.45 320.381-183.794S500.25 2 323.592 2z"/><circle cx="272.133" cy="445.51" fill="#dbf301" r="31.952"/><path d="M272.133 478.463c-18.17 0-32.952-14.782-32.952-32.952s14.782-32.953 32.952-32.953 32.953 14.783 32.953 32.953-14.783 32.952-32.953 32.952zm0-63.905c-17.067 0-30.952 13.885-30.952 30.953 0 17.067 13.885 30.952 30.952 30.952s30.953-13.885 30.953-30.952c0-17.068-13.885-30.953-30.953-30.953z"/><circle cx="272.133" cy="635.368" fill="#dbf301" r="31.952"/><path d="M272.133 668.32c-18.17 0-32.952-14.782-32.952-32.952s14.782-32.953 32.952-32.953 32.953 14.783 32.953 32.953-14.783 32.952-32.953 32.952zm0-63.905c-17.067 0-30.952 13.885-30.952 30.953 0 17.067 13.885 30.952 30.952 30.952s30.953-13.885 30.953-30.952-13.885-30.953-30.953-30.953z"/><circle cx="272.133" cy="819.034" fill="#dbf301" r="31.952"/><path d="M272.133 851.987c-18.17 0-32.952-14.782-32.952-32.952s14.782-32.953 32.952-32.953 32.953 14.783 32.953 32.953-14.783 32.952-32.953 32.952zm0-63.905c-17.067 0-30.952 13.885-30.952 30.953 0 17.067 13.885 30.952 30.952 30.952s30.953-13.885 30.953-30.952c0-17.068-13.885-30.953-30.953-30.953zm69.092-336.714a2 2 0 0 1-.061-4c107.126-3.341 203.951-37.06 259.004-90.199a2 2 0 1 1 2.778 2.878c-55.749 53.81-153.565 87.948-261.657 91.319-.022.002-.043.002-.064.002zm0 186.256a2 2 0 0 1-.061-4c107.126-3.341 203.951-37.06 259.004-90.199a2 2 0 1 1 2.778 2.878c-55.749 53.81-153.565 87.948-261.657 91.319-.022.002-.043.002-.064.002zm0 183.391a2 2 0 0 1-.061-4c107.126-3.341 203.951-37.06 259.004-90.199a2 2 0 1 1 2.778 2.878c-55.749 53.81-153.565 87.948-261.657 91.319l-.064.002z"/></svg></g><g transform="translate(216.0 1317.6) rotate(0.0 486.0 504.5999999999999) scale(1.200263761666144 1.2009281846849524)"><svg width="809.822" height="840.35" viewBox="0 0 809.822 840.35"><path d="M808.822 278.506a13.89 13.89 0 0 0-7.174-12.159L322.634 1.754a6.05 6.05 0 0 0-6.124.161l-23.323 13.957 18.431 349.362 455.148 260.929-476.615-247.15L1 527.916v25.287c0 2.13 1.12 4.103 2.949 5.194l467.398 278.99a13.891 13.891 0 0 0 14.078.095l316.284-183.057a13.892 13.892 0 0 0 6.933-12.015z" fill="#1d1d1b"/><path d="M478.466 840.349c-2.643 0-5.284-.702-7.632-2.104L3.436 559.256A7.08 7.08 0 0 1 0 553.203v-25.287c0-.375.209-.718.542-.889l289.151-148.903c.288-.148.629-.148.918.001l434.512 225.316-414.002-237.34a.997.997 0 0 1-.501-.815L292.188 15.925a.999.999 0 0 1 .485-.911l23.323-13.957a7.048 7.048 0 0 1 7.121-.179l479.014 264.593a14.894 14.894 0 0 1 7.691 13.035l-.181 363.903a14.932 14.932 0 0 1-7.432 12.88L485.926 838.347a14.883 14.883 0 0 1-7.46 2.002zM2 528.526v24.677a5.07 5.07 0 0 0 2.461 4.335l467.398 278.99a12.9 12.9 0 0 0 13.064.088l316.284-183.057a12.93 12.93 0 0 0 6.434-11.15l.181-363.903c0-4.691-2.551-9.015-6.658-11.283L322.15 2.63a5.053 5.053 0 0 0-5.111.134l-22.822 13.657 18.371 348.216 454.676 260.658a1 1 0 0 1-.958 1.756L290.149 380.138zm806.822-250.019h.01z"/><path d="M290.151 353.123 3.974 522.104c-3.954 2.335-3.967 8.05-.025 10.404l467.398 278.99a13.891 13.891 0 0 0 14.078.095l301.93-174.753z" fill="#fff"/><path d="M478.467 814.459c-2.643 0-5.285-.702-7.633-2.103L3.436 533.367c-2.157-1.288-3.442-3.558-3.436-6.07s1.301-4.776 3.465-6.054l286.177-168.98c.31-.182.692-.184 1.004-.007L787.85 635.97a1 1 0 0 1 .005 1.734l-301.93 174.754a14.888 14.888 0 0 1-7.458 2.001zM290.16 354.28 4.482 522.965c-1.55.915-2.478 2.536-2.482 4.336s.916 3.425 2.461 4.348l467.398 278.989a12.898 12.898 0 0 0 13.064.088l300.424-173.881z"/><path d="m699.924 631.5-103.897 60.312a15.785 15.785 0 0 1-15.827.013L198.45 471.059c-5.138-2.971-5.127-10.393.02-13.348l103.916-59.672a15.785 15.785 0 0 1 15.744.013l381.774 220.056c5.154 2.97 5.166 10.405.02 13.392z" fill="#fff"/><path d="M588.102 694.939c-2.905 0-5.811-.749-8.403-2.248l-381.75-220.766c-2.727-1.577-4.351-4.398-4.346-7.547s1.638-5.965 4.369-7.534l103.916-59.672a16.839 16.839 0 0 1 16.741.014l381.774 220.056c2.733 1.576 4.368 4.4 4.373 7.556s-1.622 5.984-4.35 7.568l-103.897 60.312a16.79 16.79 0 0 1-8.427 2.261zm-277.855-297.99c-2.546 0-5.091.652-7.363 1.957l-103.916 59.672a6.633 6.633 0 0 0-3.365 5.802 6.634 6.634 0 0 0 3.347 5.813L580.7 690.959a14.824 14.824 0 0 0 14.825-.012l103.897-60.312a6.667 6.667 0 0 0 3.354-5.836 6.667 6.667 0 0 0-3.372-5.826L317.63 398.918a14.784 14.784 0 0 0-7.383-1.969z"/><path d="m344.534 702.294-145.058-83.887c-5.139-2.972-5.126-10.395.022-13.349l85.305-48.953a15.785 15.785 0 0 1 15.739.015l144.775 83.44c5.155 2.971 5.166 10.406.021 13.393l-84.976 49.329a15.789 15.789 0 0 1-15.828.012z" fill="#fff"/><path d="M352.436 705.408c-2.905 0-5.811-.75-8.403-2.249l-145.058-83.887c-2.727-1.577-4.352-4.398-4.346-7.548.005-3.15 1.639-5.966 4.371-7.534l85.305-48.953a16.837 16.837 0 0 1 16.736.016l144.775 83.439c2.733 1.576 4.369 4.4 4.374 7.555.004 3.155-1.622 5.985-4.351 7.569l-84.976 49.329a16.772 16.772 0 0 1-8.427 2.263zm-59.777-150.39c-2.544 0-5.088.651-7.359 1.954l-85.305 48.953c-2.104 1.208-3.362 3.377-3.366 5.803s1.247 4.599 3.347 5.813l145.058 83.887a14.821 14.821 0 0 0 14.825-.012l84.976-49.329c2.104-1.222 3.358-3.403 3.354-5.836s-1.265-4.611-3.373-5.826l-144.775-83.439a14.774 14.774 0 0 0-7.382-1.968z"/><path d="m290.311 21.017-.16 332.106 497.204 283.715V293.516a13.89 13.89 0 0 0-7.174-12.159L299.285 15.724c-4.031-2.226-8.972.688-8.974 5.293z" fill="#adc4cb"/><path d="M787.354 637.838c-.171 0-.342-.044-.496-.131L289.655 353.992a1 1 0 0 1-.504-.869l.16-332.106c.001-2.52 1.298-4.789 3.469-6.069s4.783-1.317 6.989-.099l480.895 265.632a14.895 14.895 0 0 1 7.691 13.035v343.323a1 1 0 0 1-1.001.999zM291.151 352.543l495.203 282.573V293.515c0-4.691-2.551-9.015-6.658-11.284L298.802 16.6a5 5 0 0 0-5.006.07 5.005 5.005 0 0 0-2.485 4.347z"/><path d="M784.605 285.226s-2.658-2.895-4.427-3.87l-480.89-265.63c-1.998-1.105-4.213-.946-5.946.053l23.171-13.864a6.033 6.033 0 0 1 6.119-.159L801.65 266.348c2.211 1.223 5.242 5.097 5.242 5.097z" fill="#fff"/><path d="M784.605 286.226c-.272 0-.542-.111-.737-.323-.709-.772-2.843-2.937-4.174-3.671l-480.89-265.63a5.01 5.01 0 0 0-4.964.044 1 1 0 0 1-1.012-1.724l23.171-13.864a7.029 7.029 0 0 1 7.118-.175l479.016 264.591c2.363 1.307 5.417 5.192 5.546 5.356a1.001 1.001 0 0 1-.261 1.467l-22.286 13.781c-.164.1-.346.148-.527.148zM297.997 14.158c.61.147 1.206.378 1.775.693L780.661 280.48c1.387.765 3.199 2.533 4.109 3.468l20.623-12.753c-1.103-1.298-2.915-3.246-4.228-3.973L322.147 2.632a5.037 5.037 0 0 0-5.107.132z"/><path d="M477.204 839.293s-4.04-.821-5.857-1.904L3.951 558.397a6.04 6.04 0 0 1-2.95-5.193v-25.288l.04-.02a5.958 5.958 0 0 0 2.911 4.61l467.396 278.992c1.892 1.128 6.11 1.923 6.11 1.923z" fill="#fff"/><path d="M477.204 840.293c-.066 0-.133-.007-.199-.02-.172-.035-4.229-.869-6.17-2.025L3.438 559.256A7.077 7.077 0 0 1 0 553.205v-25.288a1 1 0 0 1 .548-.892c.295-.15.666-.154.956.007.29.16.501.444.532.773a4.962 4.962 0 0 0 2.427 3.843L471.86 810.64c1.426.851 4.658 1.587 5.783 1.799a1 1 0 0 1 .815.993l-.253 25.871a1.002 1.002 0 0 1-1.001.99zM2.001 532.238v20.966c0 1.768.943 3.429 2.462 4.333L471.86 836.53c1.011.603 2.969 1.169 4.356 1.512l.233-23.807c-1.371-.301-4.108-.979-5.615-1.877L3.438 533.366a7.154 7.154 0 0 1-1.437-1.128z"/><g fill="#fff"><path d="M363.333 134.854h-.013a2 2 0 0 1-1.987-2.013l.339-52.875a2 2 0 0 1 2-1.987h.013a2 2 0 0 1 1.987 2.013l-.339 52.875a2 2 0 0 1-2 1.987zm68.707 38.205c-3.882 0-7.929-2.403-11.594-6.939-3.997-4.947-7.164-11.962-8.918-19.753-3.791-16.835.177-31.584 9.031-33.578 8.856-1.995 18.761 9.631 22.552 26.466 3.791 16.834-.176 31.583-9.031 33.578a9.31 9.31 0 0 1-2.04.226zm-9.489-56.489c-.381 0-.752.04-1.114.122-5.742 1.293-9.526 13.173-6.008 28.797 1.622 7.205 4.509 13.639 8.127 18.119 3.256 4.03 6.773 5.972 9.643 5.324 5.742-1.293 9.526-13.172 6.008-28.796-3.296-14.643-10.979-23.566-16.656-23.566zm85.453 98.768c-8.3.001-17.039-11.114-20.546-26.688-3.791-16.835.177-31.584 9.031-33.578 4.482-1.006 9.321 1.375 13.633 6.712 3.997 4.947 7.164 11.962 8.918 19.754 3.791 16.835-.176 31.584-9.031 33.578a9.126 9.126 0 0 1-2.005.222zm-9.517-56.486c-.382 0-.756.04-1.119.122-5.742 1.293-9.526 13.173-6.008 28.797 3.519 15.625 12.034 24.74 17.771 23.442 5.742-1.293 9.526-13.172 6.008-28.796-1.622-7.205-4.509-13.64-8.127-18.119-2.845-3.52-5.887-5.446-8.525-5.446zm-69.948 131.691h-.013a2 2 0 0 1-1.987-2.013l.339-52.875a2 2 0 0 1 2-1.987h.013a2 2 0 0 1 1.987 2.013l-.339 52.875a2.001 2.001 0 0 1-2 1.987zm75.785 43.317h-.013a2 2 0 0 1-1.987-2.013l.339-52.875a2 2 0 0 1 4 .026l-.339 52.875a2.001 2.001 0 0 1-2 1.987zm79.568 45.11c-3.882 0-7.929-2.403-11.594-6.939-3.997-4.947-7.164-11.963-8.918-19.754-1.754-7.792-1.9-15.487-.409-21.67 1.608-6.67 4.961-10.899 9.44-11.908 8.851-2 18.761 9.631 22.552 26.466 3.791 16.835-.176 31.584-9.031 33.578a9.298 9.298 0 0 1-2.04.227zm-9.489-56.491c-.381 0-.752.04-1.114.122-2.873.647-5.216 3.906-6.431 8.943-1.35 5.598-1.2 12.649.423 19.854 1.622 7.205 4.509 13.64 8.127 18.119 3.256 4.03 6.771 5.973 9.643 5.324 5.742-1.293 9.526-13.173 6.008-28.797-3.296-14.641-10.978-23.565-16.656-23.565zm-144.212 87.409c-8.3 0-17.039-11.114-20.546-26.688-3.791-16.835.176-31.584 9.031-33.578 8.86-1.992 18.761 9.633 22.552 26.466 3.791 16.835-.177 31.584-9.031 33.578a9.135 9.135 0 0 1-2.006.222zm-9.523-56.486c-.381 0-.752.041-1.113.122-5.742 1.293-9.526 13.173-6.008 28.797 3.519 15.625 12.033 24.74 17.771 23.443 5.742-1.293 9.526-13.173 6.008-28.797-3.297-14.642-10.979-23.565-16.658-23.565zm85.42 98.774c-3.882 0-7.929-2.403-11.594-6.939-3.997-4.947-7.164-11.962-8.918-19.754-1.754-7.791-1.9-15.487-.409-21.67 1.608-6.67 4.961-10.899 9.44-11.908 8.857-1.994 18.761 9.632 22.552 26.466 1.754 7.792 1.9 15.487.409 21.67-1.608 6.67-4.961 10.899-9.44 11.908a9.298 9.298 0 0 1-2.04.227zm-9.489-56.491c-.381 0-.752.041-1.113.122-2.872.646-5.216 3.906-6.43 8.943-1.35 5.598-1.2 12.649.423 19.854 1.622 7.205 4.509 13.64 8.127 18.119 3.256 4.03 6.771 5.973 9.643 5.324 2.873-.647 5.216-3.906 6.431-8.943 1.35-5.598 1.2-12.649-.423-19.854-3.298-14.642-10.979-23.565-16.658-23.565zm149.372 132.442c-8.3.001-17.039-11.114-20.546-26.689-3.791-16.835.177-31.584 9.031-33.578 4.481-1.006 9.321 1.375 13.633 6.712 3.997 4.947 7.164 11.962 8.918 19.754 1.754 7.792 1.9 15.487.409 21.67-1.608 6.67-4.961 10.899-9.44 11.908a9.067 9.067 0 0 1-2.005.223zm-9.517-56.487c-.382 0-.756.04-1.119.122-5.742 1.293-9.526 13.173-6.008 28.797 3.518 15.625 12.029 24.743 17.771 23.443 2.873-.647 5.216-3.906 6.431-8.943 1.35-5.598 1.2-12.649-.423-19.854-1.622-7.205-4.509-13.64-8.127-18.119-2.845-3.52-5.887-5.446-8.525-5.446zm85.415 98.774c-3.882 0-7.929-2.403-11.594-6.939-3.997-4.947-7.164-11.963-8.918-19.754-1.754-7.792-1.9-15.487-.409-21.67 1.608-6.67 4.961-10.899 9.44-11.908 8.853-1.994 18.76 9.631 22.552 26.466 3.791 16.835-.176 31.584-9.031 33.578a9.244 9.244 0 0 1-2.04.227zm-9.489-56.49c-.381 0-.752.04-1.114.122-2.873.647-5.216 3.906-6.431 8.943-1.35 5.598-1.2 12.649.423 19.854 1.622 7.205 4.509 13.64 8.127 18.119 3.256 4.03 6.774 5.97 9.643 5.324 5.742-1.293 9.526-13.173 6.008-28.797-3.296-14.642-10.978-23.565-16.656-23.565zm-145.416-30.87h-.013a2 2 0 0 1-1.987-2.013l.339-52.875c.007-1.104.87-1.979 2.013-1.987a2 2 0 0 1 1.987 2.013l-.339 52.875a2.001 2.001 0 0 1-2 1.987zM351.415 364.195h-.013a2 2 0 0 1-1.987-2.013l.339-52.875a2 2 0 0 1 2-1.987h.013a2 2 0 0 1 1.987 2.013l-.339 52.875a2.002 2.002 0 0 1-2 1.987zm310.287-52.329c-3.882 0-7.929-2.403-11.594-6.939-3.997-4.947-7.164-11.962-8.918-19.754s-1.9-15.487-.409-21.67c1.608-6.67 4.961-10.899 9.44-11.908 4.479-1.006 9.321 1.376 13.633 6.712 3.997 4.947 7.164 11.962 8.918 19.753 1.754 7.792 1.9 15.487.409 21.67-1.608 6.67-4.961 10.899-9.44 11.908a9.164 9.164 0 0 1-2.039.228zm-9.483-56.49c-.382 0-.756.04-1.119.122-2.872.646-5.216 3.906-6.43 8.943-1.35 5.598-1.2 12.649.423 19.854 1.622 7.205 4.509 13.64 8.127 18.119 3.256 4.03 6.773 5.973 9.643 5.324 2.873-.647 5.216-3.906 6.431-8.943 1.35-5.598 1.2-12.649-.423-19.854-1.622-7.205-4.509-13.639-8.127-18.119-2.845-3.52-5.887-5.446-8.525-5.446zm-69.326 11.372h-.013a2 2 0 0 1-1.987-2.013l.339-52.875c.007-1.104.868-2.015 2.013-1.987a2 2 0 0 1 1.987 2.013l-.339 52.875a2.001 2.001 0 0 1-2 1.987zm149.304 86.612h-.013a2 2 0 0 1-1.987-2.013l.339-52.875c.007-1.104.896-2.017 2.013-1.987a2 2 0 0 1 1.987 2.013l-.339 52.875a2.001 2.001 0 0 1-2 1.987z"/></g></svg></g><g transform="translate(1663.2 1648.8) rotate(0.0 564.6 205.19999999999993) scale(1.2000752438250646 1.200435245527618)"><svg width="940.941" height="341.876" viewBox="0 0 940.941 341.876"><ellipse cx="9.892" cy="152.838" fill="#dbf301" rx="12.841" ry="7.588" transform="matrix(.4474 -.8943 .8943 .4474 -131.2203 93.3006)"/><path d="M6.315 165.821a5.79 5.79 0 0 1-2.616-.604c-4.307-2.155-4.96-9.28-1.488-16.221 3.474-6.941 9.569-10.688 13.874-8.536 2.142 1.071 3.444 3.412 3.666 6.589.209 2.986-.564 6.407-2.178 9.632-1.614 3.226-3.887 5.896-6.402 7.519-1.667 1.075-3.325 1.621-4.856 1.621zm7.163-23.96c-3.105 0-7.078 3.232-9.478 8.029-2.872 5.74-2.6 11.939.594 13.537 1.485.744 3.434.42 5.492-.908 2.219-1.433 4.242-3.823 5.698-6.733 1.456-2.91 2.156-5.963 1.972-8.598-.171-2.443-1.082-4.197-2.565-4.939a3.79 3.79 0 0 0-1.713-.388z"/><path d="M847.625 113.269a4.068 4.068 0 0 0-.142-.084L702.66 30.683a5.005 5.005 0 0 0-6.819 1.87 5 5 0 0 0 1.87 6.819l144.745 82.458c3.463 2.155 5.503 5.871 5.461 9.954-.043 4.108-2.185 7.801-5.729 9.877L633.011 264.194c-15.312 8.931-34.154 8.626-49.172-.784-.034-.021-.067-.042-.103-.062L321.942 107.865c-23.44-14.53-52.705-14.767-76.379-.613l-142.629 85.28c-1.927 1.157-3.838 2.409-5.687 3.621-7.426 4.864-14.433 9.459-21.288 7.33-7.105-2.209-8.563-5.847-11.21-12.45-4.716-11.765-11.174-27.877-51.913-42.446a5 5 0 0 0-3.368 9.416c36.499 13.053 41.766 26.192 45.998 36.751 2.889 7.206 5.875 14.658 17.525 18.278 11.354 3.53 21.12-2.869 29.735-8.515 1.85-1.212 3.597-2.356 5.346-3.408l142.622-85.275c20.446-12.225 45.728-12.022 66.059.58l261.823 155.5c9.346 5.845 19.909 8.776 30.488 8.776 9.989-.001 19.993-2.616 28.99-7.862L847.242 150.29c6.604-3.869 10.595-10.748 10.674-18.402s-3.768-14.615-10.291-18.619z" fill="#fff"/><path d="M609.066 281.69c-10.953 0-21.679-3.088-31.019-8.929L316.244 117.273c-19.997-12.396-44.91-12.614-65.035-.581l-142.622 85.275c-1.734 1.043-3.471 2.181-5.311 3.386-8.801 5.769-18.776 12.303-30.58 8.634-12.104-3.761-15.18-11.437-18.156-18.859-4.159-10.374-9.333-23.282-45.408-36.184a5.959 5.959 0 0 1-3.403-3.083 5.967 5.967 0 0 1-.226-4.587c.539-1.51 1.635-2.72 3.084-3.405s3.078-.766 4.586-.224c41.162 14.721 47.717 31.074 52.503 43.015 2.615 6.525 3.928 9.801 10.579 11.868 6.397 1.988 13.213-2.476 20.427-7.2 1.864-1.223 3.775-2.476 5.736-3.653l142.63-85.281c23.994-14.345 53.659-14.105 77.419.622l261.902 155.548c14.703 9.214 33.149 9.509 48.136.767L841.68 140.8a10.5 10.5 0 0 0 5.235-9.024 10.507 10.507 0 0 0-4.989-9.095l-144.71-82.439a6.009 6.009 0 0 1-2.244-8.184 6.012 6.012 0 0 1 8.183-2.244l144.994 82.603a.02.02 0 0 0 .006.004l.001.001c6.82 4.189 10.843 11.471 10.761 19.478-.083 8.008-4.258 15.206-11.168 19.255L638.562 273.691c-8.974 5.233-19.173 7.998-29.496 7.999zM283.227 105.818c11.79 0 23.578 3.252 34.055 9.746l261.807 155.49c9.041 5.653 19.4 8.636 29.978 8.636 9.969-.001 19.82-2.673 28.486-7.727l209.184-122.536c6.298-3.689 10.104-10.25 10.179-17.55.076-7.3-3.593-13.937-9.814-17.756l-.007-.005-.108-.063-144.822-82.5a4.01 4.01 0 0 0-5.456 1.496 4.006 4.006 0 0 0 1.497 5.455l144.745 82.458c3.793 2.36 6.011 6.403 5.966 10.834-.047 4.463-2.374 8.474-6.224 10.729L633.516 265.057c-15.632 9.117-34.871 8.812-50.208-.8L321.432 108.724c-23.138-14.341-52.005-14.573-75.355-.614l-142.629 85.28c-1.925 1.156-3.819 2.398-5.651 3.599-7.636 5.002-14.833 9.716-22.133 7.449-7.561-2.351-9.172-6.371-11.842-13.033-4.646-11.589-11.007-27.459-51.322-41.877a3.966 3.966 0 0 0-3.057.149 3.97 3.97 0 0 0-2.056 2.27c-.36 1.007-.307 2.093.15 3.059s1.263 1.695 2.269 2.056c36.923 13.204 42.283 26.575 46.59 37.32 2.802 6.99 5.699 14.217 16.894 17.695 10.902 3.391 20.459-2.872 28.89-8.396 1.856-1.217 3.609-2.365 5.379-3.43l142.624-85.276c10.216-6.108 21.631-9.157 33.044-9.157z"/><path d="M923.193 97.664c-.038-.022-.075-.045-.113-.066L756.317 1.667a4.997 4.997 0 0 0-6.827 1.841 5 5 0 0 0 1.841 6.827l166.701 95.895c7.666 4.706 12.005 12.9 11.907 22.491-.115 11.34-6.43 22.308-16.101 27.946L628.899 323.893a50.501 50.501 0 0 1-52.174-.565c-.043-.026-.087-.053-.132-.078l-157.457-90.481c-23.43-14.487-52.659-14.709-76.304-.568L325.941 242.3a4.999 4.999 0 0 0-1.726 6.856 4.997 4.997 0 0 0 6.856 1.726l16.891-10.099c20.448-12.226 45.729-12.023 65.977.531.048.029.096.058.144.085l157.46 90.483a60.546 60.546 0 0 0 31.736 8.995 60.556 60.556 0 0 0 30.68-8.358L918.888 165.3c12.832-7.483 20.898-21.46 21.051-36.477.134-13.22-5.969-24.577-16.746-31.159z" fill="#adc4cb"/><path d="M603.28 341.877a61.588 61.588 0 0 1-32.26-9.144l-157.602-90.567c-19.932-12.358-44.815-12.559-64.941-.525l-16.891 10.099a5.951 5.951 0 0 1-4.542.67 5.97 5.97 0 0 1-3.685-2.74 6.007 6.007 0 0 1 2.07-8.229l16.891-10.099c23.958-14.329 53.594-14.109 77.343.576l157.586 90.558a49.506 49.506 0 0 0 51.145.556l284.939-167.226c9.37-5.463 15.495-16.098 15.607-27.094.094-9.229-4.072-17.112-11.43-21.629l-166.677-95.88a6.007 6.007 0 0 1-2.209-8.193 5.957 5.957 0 0 1 3.638-2.802 5.977 5.977 0 0 1 4.554.593l166.763 95.93.095.056.042.024c11.084 6.771 17.362 18.442 17.225 32.022-.156 15.366-8.412 29.671-21.547 37.331L634.466 333.381a61.676 61.676 0 0 1-31.186 8.496zM380.52 230.753c11.76 0 23.511 3.24 33.947 9.711l.113.066 157.462 90.484c9.443 5.803 20.236 8.862 31.238 8.862a59.672 59.672 0 0 0 30.173-8.221l284.929-167.219c12.532-7.309 20.408-20.959 20.557-35.624.13-12.856-5.796-23.896-16.26-30.291a.347.347 0 0 0-.028-.017L755.819 2.535a3.974 3.974 0 0 0-3.036-.396 3.972 3.972 0 0 0-2.426 1.867 3.975 3.975 0 0 0-.395 3.036 3.97 3.97 0 0 0 1.867 2.426l166.701 95.895c7.996 4.908 12.51 13.421 12.409 23.368-.119 11.687-6.633 22.991-16.597 28.801L629.406 324.756a51.505 51.505 0 0 1-53.205-.576l-.099-.06-157.463-90.484c-23.138-14.308-51.977-14.521-75.292-.577l-16.891 10.099a3.975 3.975 0 0 0-1.826 2.456 3.97 3.97 0 0 0 .446 3.029c.549.917 1.421 1.566 2.458 1.827s2.11.103 3.026-.446l16.892-10.1c10.23-6.117 21.654-9.171 33.068-9.171z"/></svg></g><g transform="translate(1644.0 1868.3999999999999) rotate(0.0 287.39999999999986 197.39999999999998) scale(1.2020578025011497 1.2058975353629144)"><svg width="478.18" height="327.391" viewBox="0 0 478.18 327.391"><path d="m258.38 258.135 218.614-120.553s.435 47.841-.026 51.828c-.364 3.143-2.106 6.147-5.23 7.96L258.38 321.217z"/><path d="M258.38 322.217a.998.998 0 0 1-1-1v-63.082c0-.364.198-.7.517-.875l218.614-120.554a.998.998 0 0 1 1.483.866c.018 1.956.43 47.95-.033 51.953-.425 3.671-2.51 6.846-5.722 8.71L258.882 322.082c-.156.09-.329.135-.502.135zm1-63.492v60.755l211.855-122.975c2.66-1.544 4.387-4.172 4.739-7.21.4-3.462.105-41.521.034-50.028z"/><path d="M258.38 321.217a38.285 38.285 0 0 1-38.474-.02L5.908 196.682c-3.266-1.9-4.9-5.206-4.906-8.513-.006-3.337 0-49.148 0-49.148l257.377 94.215v87.981z" fill="#dbf301"/><path d="M239.16 327.379a39.273 39.273 0 0 1-19.758-5.317L5.405 197.546c-3.377-1.964-5.396-5.469-5.403-9.376-.006-3.336 0-49.149 0-49.149a1.002 1.002 0 0 1 1.344-.939l257.377 94.215a1 1 0 0 1 .656.939v87.981c0 .356-.19.686-.498.865a39.27 39.27 0 0 1-19.721 5.297zM2.003 140.451c-.001 7.779-.005 44.732 0 47.715a8.782 8.782 0 0 0 4.409 7.651l213.997 124.515c11.388 6.626 25.5 6.728 36.971.303v-86.702zM258.38 321.217h.01z"/><path d="M219.906 270.647 5.908 146.132c-6.562-3.818-6.536-13.306.047-17.088L219.668 6.269a39.646 39.646 0 0 1 39.5.001l212.528 122.109c7.106 4.083 7.129 14.326.041 18.441L258.38 270.667a38.285 38.285 0 0 1-38.474-.02z" fill="#fff"/><path d="M239.16 276.828a39.267 39.267 0 0 1-19.757-5.317L5.405 146.996c-3.394-1.975-5.414-5.498-5.403-9.424.011-3.927 2.05-7.439 5.455-9.395L219.17 5.402c12.489-7.175 28.007-7.174 40.496.001l212.528 122.109c3.651 2.098 5.835 5.863 5.845 10.074.009 4.21-2.159 7.985-5.8 10.099L258.882 271.532a39.286 39.286 0 0 1-19.722 5.296zm-18.752-7.045c11.552 6.721 25.909 6.729 37.469.02l213.357-123.847c3.016-1.751 4.812-4.878 4.804-8.365-.007-3.487-1.817-6.606-4.841-8.344L258.67 7.137C246.795.315 232.041.314 220.166 7.136L6.453 129.911c-2.778 1.596-4.442 4.462-4.451 7.666s1.639 6.079 4.409 7.69z"/><path d="M225.412 231.782 76.365 145.058c-4.57-2.659-4.552-9.267.033-11.901l148.849-85.511a27.613 27.613 0 0 1 27.511.001l148.024 85.048c4.949 2.844 4.965 9.978.028 12.844l-148.601 86.258a26.67 26.67 0 0 1-26.797-.015z" fill="#fff"/><path d="M238.822 236.39a27.653 27.653 0 0 1-13.914-3.745L75.862 145.923a7.796 7.796 0 0 1-3.914-6.828 7.794 7.794 0 0 1 3.952-6.805l148.849-85.512c8.792-5.05 19.716-5.05 28.507.001l148.023 85.048c2.638 1.515 4.216 4.236 4.223 7.278s-1.56 5.771-4.191 7.298l-148.6 86.257a27.656 27.656 0 0 1-13.889 3.73zm.179-191.4a26.607 26.607 0 0 0-13.256 3.523L76.896 134.024c-1.84 1.057-2.942 2.955-2.948 5.077s1.086 4.026 2.92 5.093l149.047 86.723a25.714 25.714 0 0 0 25.792.014l148.601-86.258c2.006-1.165 3.2-3.245 3.195-5.564s-1.208-4.393-3.219-5.548L252.259 48.513a26.612 26.612 0 0 0-13.258-3.523z"/><ellipse cx="140.757" cy="249.913" fill="#87c159" rx="7.588" ry="12.841" transform="matrix(.8943 -.4474 .4474 .8943 -96.9429 89.3897)"/><path d="M144.32 262.898c-3.907 0-8.433-3.526-11.243-9.143-3.472-6.941-2.818-14.066 1.488-16.221 4.31-2.156 10.401 1.595 13.874 8.536 1.613 3.225 2.387 6.646 2.178 9.632-.222 3.177-1.524 5.517-3.666 6.589a5.831 5.831 0 0 1-2.631.607zm-7.148-23.962a3.78 3.78 0 0 0-1.712.388c-3.193 1.598-3.465 7.797-.594 13.537 2.872 5.739 7.997 9.24 11.19 7.641 1.483-.742 2.395-2.496 2.565-4.939.185-2.634-.516-5.688-1.972-8.598-2.399-4.797-6.372-8.029-9.477-8.029z"/><ellipse cx="111.648" cy="233.734" fill="#87c159" rx="7.588" ry="12.841" transform="matrix(.8943 -.4474 .4474 .8943 -92.78 74.6554)"/><path d="M115.224 246.716c-1.531 0-3.188-.546-4.855-1.622-2.515-1.623-4.789-4.293-6.402-7.519-3.472-6.94-2.818-14.065 1.488-16.22 4.305-2.155 10.4 1.595 13.874 8.535 1.613 3.225 2.387 6.646 2.178 9.632-.222 3.177-1.524 5.517-3.666 6.589a5.783 5.783 0 0 1-2.617.605zm-7.162-23.959c-.61 0-1.187.125-1.712.388-3.193 1.598-3.465 7.797-.594 13.537 1.456 2.91 3.479 5.301 5.698 6.733 2.058 1.328 4.008 1.651 5.492.908 1.483-.742 2.395-2.496 2.565-4.939.185-2.634-.516-5.688-1.972-8.598-2.399-4.797-6.373-8.029-9.477-8.029z"/><ellipse cx="81.541" cy="217.04" fill="#87c159" rx="7.588" ry="12.841" transform="matrix(.8943 -.4474 .4474 .8943 -88.4928 59.4206)"/><path d="M85.103 230.026c-3.907 0-8.433-3.526-11.243-9.143-1.613-3.225-2.387-6.646-2.178-9.632.222-3.177 1.524-5.517 3.666-6.589 2.142-1.071 4.794-.709 7.471 1.017 2.515 1.623 4.789 4.293 6.402 7.519 3.472 6.94 2.818 14.065-1.488 16.22a5.819 5.819 0 0 1-2.63.608zm-7.136-23.966a3.81 3.81 0 0 0-1.725.391c-1.483.742-2.395 2.496-2.565 4.939-.185 2.634.516 5.688 1.972 8.598 2.872 5.74 7.999 9.24 11.19 7.641 3.193-1.598 3.465-7.797.594-13.537-1.456-2.91-3.479-5.301-5.698-6.733-1.333-.86-2.622-1.299-3.768-1.299z"/><ellipse cx="111.648" cy="233.734" rx="2.528" ry="4.265" transform="matrix(.9343 -.3566 .3566 .9343 -76.0097 55.1803)"/><ellipse cx="81.541" cy="217.04" rx="2.528" ry="4.265" transform="matrix(.9137 -.4064 .4064 .9137 -81.1725 51.8744)"/></svg></g><g transform="translate(939.5999999999999 1842.0) rotate(0.0 438.6 294.0) scale(1.2012505494776369 1.2011668477950008)"><svg width="730.239" height="489.524" viewBox="0 0 730.239 489.524"><path d="M575.953 1.495c-3.748-1.875-9.359 1.746-12.532 8.089-3.173 6.342-2.707 13.004 1.041 14.879s9.359-1.746 12.532-8.089 2.707-13.004-1.041-14.879z" fill="#dbf301"/><path d="M566.645 25.963a5.82 5.82 0 0 1-2.63-.607c-4.307-2.155-4.96-9.28-1.488-16.221 1.614-3.226 3.888-5.896 6.402-7.519 2.675-1.727 5.329-2.089 7.471-1.017s3.444 3.412 3.666 6.589c.209 2.986-.564 6.406-2.178 9.631-2.809 5.618-7.335 9.144-11.243 9.144zm7.136-23.965c-1.146 0-2.434.438-3.767 1.299-2.219 1.432-4.243 3.823-5.698 6.733-2.872 5.74-2.6 11.939.594 13.538 3.198 1.598 8.318-1.903 11.19-7.642 1.456-2.91 2.156-5.963 1.972-8.597-.171-2.443-1.082-4.197-2.565-4.939a3.818 3.818 0 0 0-1.726-.392z"/><path d="M728.626 273.467a4.998 4.998 0 0 0-6.786-1.989c-12.736 6.963-19.536 12.434-24.25 19.513a44.293 44.293 0 0 1-14.355 13.588L411.289 469.913c-19.861 11.508-44.518 11.485-64.293-.021L61.023 297.511a4.995 4.995 0 0 0-6.863 1.701 4.999 4.999 0 0 0 1.701 6.863L341.9 478.496c11.49 6.686 24.373 10.028 37.261 10.028 12.858 0 25.722-3.33 37.193-9.989l.088-.052 271.923-165.321c6.956-4.088 13.024-9.838 17.547-16.628 3.113-4.674 7.829-9.231 20.725-16.28a5.003 5.003 0 0 0 1.989-6.787z" fill="#fff"/><path d="M379.161 489.524c-13.277 0-26.335-3.515-37.764-10.164L55.345 306.932a5.962 5.962 0 0 1-2.727-3.695 5.956 5.956 0 0 1 .685-4.541 5.961 5.961 0 0 1 3.698-2.729 5.953 5.953 0 0 1 4.539.688l285.972 172.381c19.476 11.331 43.727 11.339 63.275.012l271.927-165.323a43.378 43.378 0 0 0 14.043-13.288c4.811-7.226 11.709-12.787 24.603-19.835 2.901-1.587 6.554-.516 8.143 2.387a6.008 6.008 0 0 1-2.387 8.143c-12.716 6.951-17.341 11.406-20.373 15.958-4.605 6.914-10.786 12.771-17.872 16.936L416.848 479.405c-11.402 6.618-24.436 10.119-37.687 10.119zM58.448 297.791c-.321 0-.645.039-.965.118-1.038.257-1.914.903-2.466 1.819s-.714 1.991-.457 3.027a3.977 3.977 0 0 0 1.818 2.464l286.039 172.42c11.11 6.464 23.82 9.885 36.745 9.885 12.898 0 25.586-3.407 36.691-9.854l271.993-165.362c6.84-4.02 12.795-9.663 17.234-16.328 3.196-4.797 8.003-9.457 21.078-16.603a4.005 4.005 0 0 0 1.591-5.429 4.005 4.005 0 0 0-5.429-1.592c-12.583 6.879-19.283 12.259-23.897 19.19-3.773 5.663-8.85 10.469-14.681 13.896L411.809 470.767c-20.188 11.697-45.207 11.688-65.315-.011L60.507 298.368a3.968 3.968 0 0 0-2.059-.577z"/><path d="m624.921 58.576-17.135-10.207c-4.618-2.688-7.603-7.357-7.984-12.489-.655-8.842-5.898-20.816-27.157-27.661a5 5 0 0 0-3.064 9.52c12.813 4.125 19.626 10.478 20.249 18.881.626 8.423 5.459 16.046 12.884 20.367l17.135 10.207c3.467 2.018 5.546 5.617 5.562 9.628.015 4.012-2.036 7.627-5.488 9.67L485.201 166.26a19.195 19.195 0 0 0-9.457 16.064c-.187 6.662 3.007 12.855 8.526 16.557l99.795 67.473c2.911 1.953 4.356 3.966 4.297 5.984-.109 3.685-4.734 8.742-11.782 12.885l-.117.071-280.218 175.167c-19.858 11.494-44.501 11.466-64.27-.036L8.58 325.889a4.998 4.998 0 0 0-6.862 1.704 4.998 4.998 0 0 0 1.704 6.862l223.46 134.574c11.49 6.687 24.374 10.029 37.261 10.028 12.858 0 25.722-3.33 37.193-9.989.048-.027.095-.056.141-.084l280.228-175.178c10.517-6.196 16.431-13.714 16.651-21.174.116-3.908-1.303-9.61-8.707-14.575l-99.795-67.475c-2.706-1.814-4.206-4.724-4.115-7.981s1.752-6.078 4.557-7.738l134.722-79.768c6.536-3.871 10.421-10.717 10.393-18.313-.031-7.595-3.969-14.411-10.49-18.206z" fill="#dbf301"/><path d="M264.142 480.058c-13.277.001-26.335-3.514-37.764-10.164L2.906 335.312c-1.373-.826-2.342-2.139-2.728-3.694s-.144-3.168.684-4.54a5.962 5.962 0 0 1 3.693-2.729 5.963 5.963 0 0 1 4.542.684l223.396 134.536c19.466 11.327 43.709 11.341 63.252.027l280.319-175.232c6.663-3.916 11.199-8.76 11.297-12.057.049-1.651-1.248-3.375-3.854-5.124l-99.798-67.475c-5.809-3.896-9.162-10.406-8.966-17.413.196-7.008 3.915-13.325 9.947-16.897L619.412 85.63c3.143-1.86 5.011-5.152 4.998-8.806-.014-3.652-1.908-6.93-5.064-8.767l-17.144-10.212c-7.718-4.492-12.719-12.401-13.369-21.152-.59-7.958-7.17-14.015-19.559-18.003a6.009 6.009 0 0 1-3.873-7.55c.492-1.526 1.547-2.77 2.973-3.501s3.051-.864 4.579-.372c21.788 7.015 27.169 19.392 27.847 28.539.357 4.804 3.158 9.177 7.49 11.699l17.142 10.211c6.843 3.985 10.947 11.111 10.978 19.063.03 7.955-4.039 15.124-10.883 19.178l-134.722 79.768c-2.503 1.482-3.985 3.999-4.066 6.906-.081 2.908 1.258 5.504 3.673 7.123l99.798 67.477c7.783 5.219 9.27 11.274 9.146 15.434-.231 7.813-6.319 15.628-17.143 22.005L302.007 469.833l-.175.104c-11.404 6.62-24.439 10.121-37.69 10.121zM6.008 326.171c-.323 0-.649.04-.971.12a3.967 3.967 0 0 0-2.462 1.818c-.552.915-.713 1.99-.456 3.027s.903 1.911 1.819 2.463l223.46 134.574c11.11 6.465 23.82 9.886 36.745 9.885 12.898 0 25.586-3.407 36.691-9.854l.118-.069L581.174 292.96c10.233-6.03 15.972-13.254 16.182-20.356.109-3.656-1.237-9.002-8.265-13.715l-99.798-67.477c-2.994-2.008-4.655-5.23-4.555-8.838s1.94-6.732 5.047-8.571l134.722-79.768c6.227-3.688 9.929-10.211 9.902-17.449-.028-7.238-3.763-13.722-9.991-17.347a.04.04 0 0 1-.009-.005l-17.135-10.207c-4.894-2.848-8.063-7.812-8.47-13.274-.633-8.535-5.738-20.109-26.467-26.784a3.971 3.971 0 0 0-3.052.248 3.98 3.98 0 0 0-1.982 2.335 4.007 4.007 0 0 0 2.583 5.034c13.238 4.262 20.284 10.91 20.939 19.759.602 8.093 5.233 15.412 12.39 19.577l17.144 10.212c3.768 2.192 6.033 6.113 6.05 10.483.016 4.372-2.219 8.31-5.979 10.535l-134.722 79.767c-5.438 3.22-8.79 8.915-8.967 15.232s2.845 12.186 8.084 15.698l99.798 67.475c3.212 2.155 4.807 4.458 4.736 6.842-.121 4.083-4.825 9.338-12.275 13.718l-.094.057-280.215 175.168c-20.193 11.688-45.204 11.675-65.303-.02L8.064 326.746a3.974 3.974 0 0 0-2.056-.575z"/></svg></g><g transform="translate(1065.6 573.6) rotate(0.0 285.0 282.59999999999997) scale(1.2003108173274342 1.2001095641427986)"><svg width="474.877" height="470.957" viewBox="0 0 474.877 470.957"><circle cx="238.083" cy="232.741" fill="#dbf301" r="61.175"/><path d="M238.083 294.916c-34.283 0-62.175-27.892-62.175-62.175 0-34.284 27.892-62.176 62.175-62.176 34.284 0 62.175 27.892 62.175 62.176 0 34.283-27.891 62.175-62.175 62.175zm0-122.351c-33.181 0-60.175 26.995-60.175 60.176s26.994 60.175 60.175 60.175 60.175-26.994 60.175-60.175-26.994-60.176-60.175-60.176z"/><path d="M337.748 471.025c-22.209.001-46.813-5.518-72.85-16.577-54.187-23.017-108.199-67.339-152.084-124.802-47.9-62.719-77.804-134.071-82.042-195.763-1.949-28.37 1.52-53.312 10.312-74.134 6.964-16.493 17.155-29.942 30.29-39.974C104.48-5.508 152.763-6.668 207.326 16.51c54.188 23.017 108.199 67.339 152.084 124.802 43.886 57.462 72.43 121.234 80.374 179.57 7.999 58.74-5.828 105.015-38.934 130.299-17.308 13.218-38.767 19.844-63.102 19.844zM134.493 3.934c-23.464 0-44.098 6.349-60.691 19.022-12.575 9.603-22.343 22.506-29.033 38.351-8.545 20.237-11.912 44.564-10.006 72.304 4.186 60.929 33.793 131.496 81.23 193.608 43.472 56.921 96.91 100.798 150.47 123.548 53.182 22.591 100.047 21.608 131.961-2.766 31.914-24.372 45.195-69.326 37.398-126.58-7.852-57.659-36.117-120.761-79.589-177.682-43.472-56.921-96.91-100.798-150.47-123.548-25.53-10.844-49.607-16.257-71.27-16.257z"/><path d="M134.281 470.917c-10.661 0-20.785-1.256-30.221-3.799-12.117-3.265-23.114-8.627-32.687-15.938-8.854-6.762-16.436-15.155-22.535-24.946-19.325-31.033-23.722-76.415-12.38-127.787 11.447-51.85 38.564-107.655 76.354-157.136C156.699 83.849 210.711 39.526 264.898 16.51c54.564-23.178 102.847-22.017 135.953 3.267s46.933 71.559 38.934 130.3c-7.944 58.335-36.488 122.107-80.374 179.57-37.842 49.549-82.729 89.013-129.81 114.125-33.554 17.897-66.399 27.144-95.32 27.145zM337.732 3.934c-21.665 0-45.736 5.412-71.27 16.258-53.56 22.75-106.998 66.627-150.47 123.548-37.444 49.028-64.302 104.277-75.627 155.571-11.115 50.345-6.9 94.669 11.87 124.809 5.842 9.38 13.098 17.415 21.567 23.882 9.157 6.994 19.688 12.127 31.3 15.256 34.046 9.173 77.593 1 122.618-23.016 45.912-24.488 91.552-64.628 128.513-113.022 43.472-56.921 71.737-120.023 79.589-177.683 7.797-57.254-5.485-102.208-37.398-126.58-16.593-12.673-37.231-19.023-60.692-19.023z"/><path d="M237.439 369.605c-63.232 0-122.709-14.158-167.476-39.867C24.846 303.827 0 269.258 0 232.396s24.846-71.432 69.962-97.342c44.767-25.709 104.244-39.867 167.476-39.867s122.709 14.158 167.477 39.867c45.116 25.91 69.962 60.479 69.962 97.342 0 3.057-.175 6.147-.521 9.187-2.489 21.853-14.143 43.262-33.699 61.912-18.911 18.034-45.213 33.542-76.063 44.846-37.965 13.91-81.935 21.264-127.155 21.264zm0-270.418C108.72 99.187 4 158.943 4 232.396s104.72 133.209 233.438 133.209c44.756 0 88.25-7.269 125.779-21.021 62.325-22.836 102.386-61.511 107.164-103.455.329-2.889.496-5.827.496-8.733.001-73.453-104.72-133.209-233.438-133.209z"/></svg></g></svg>