<svg xmlns="http://www.w3.org/2000/svg" viewBox="0 0 3000 3000" width="3000" height="3000"><g transform="translate(383.75 2145.0) rotate(0.0 411.25 275.0) scale(1.2507584386276784 1.2506025630531075)"><svg width="657.601" height="439.788" viewBox="0 0 657.601 439.788"><linearGradient id="a" gradientUnits="userSpaceOnUse" x1="0" x2="561.044" y1="164.532" y2="164.532"><stop offset="0" stop-color="#5764ff"/><stop offset="1" stop-color="#c180ff"/></linearGradient><clipPath id="b"><rect height="329.064" rx="40" width="561.044" x="93.557" y="107.724"/></clipPath><rect fill="url(#a)" height="329.064" rx="40" width="561.044"/><rect fill="#c180ff" height="329.064" opacity=".7" rx="40" width="561.044" x="45.836" y="51.284"/><rect fill="#bfc4d8" height="329.064" rx="40" width="561.044" x="93.557" y="107.724"/><g clip-path="url(#b)" fill="#fff"><path d="M548.148 232.35h-38.281a3 3 0 1 1 0-6h37.03l35.84-36.153a3 3 0 0 1 2.13-.888H654.6a3 3 0 1 1 0 6h-68.483l-35.84 36.153a3 3 0 0 1-2.13.888z"/><path d="M496.333 245.885c-9.117 0-16.534-7.417-16.534-16.534s7.417-16.535 16.534-16.535 16.534 7.417 16.534 16.535-7.417 16.534-16.534 16.534zm0-27.069c-5.809 0-10.534 4.726-10.534 10.535s4.726 10.534 10.534 10.534 10.534-4.726 10.534-10.534-4.726-10.535-10.534-10.535zm158.268 134.206h-62.018a3 3 0 1 1 0-6h62.018a3 3 0 1 1 0 6z"/><path d="M579.049 366.556c-9.117 0-16.534-7.417-16.534-16.534s7.417-16.534 16.534-16.534 16.534 7.417 16.534 16.534-7.417 16.534-16.534 16.534zm0-27.068c-5.809 0-10.534 4.726-10.534 10.534s4.726 10.534 10.534 10.534 10.534-4.726 10.534-10.534-4.726-10.534-10.534-10.534zM326.52 191.747a3 3 0 0 1-3-3v-81.023a3 3 0 1 1 6 0v81.023a3 3 0 0 1-3 3z"/><path d="M326.52 218.816c-9.117 0-16.534-7.417-16.534-16.534s7.417-16.534 16.534-16.534 16.534 7.417 16.534 16.534-7.417 16.534-16.534 16.534zm0-27.069c-5.809 0-10.534 4.726-10.534 10.534s4.726 10.534 10.534 10.534 10.534-4.726 10.534-10.534-4.726-10.534-10.534-10.534zm-78.763 248.04a3 3 0 0 1-3-3v-26.862l-30.805-30.805a3.002 3.002 0 0 1-.879-2.121v-24.746a3 3 0 1 1 6 0v23.503l30.805 30.805c.562.562.879 1.326.879 2.121v28.104a3 3 0 0 1-3 3z"/><path d="M216.073 355.253c-9.117 0-16.534-7.417-16.534-16.535s7.417-16.534 16.534-16.534 16.534 7.417 16.534 16.534-7.417 16.535-16.534 16.535zm0-27.069c-5.809 0-10.534 4.726-10.534 10.534s4.726 10.535 10.534 10.535 10.534-4.726 10.534-10.535-4.726-10.534-10.534-10.534zm187.995 111.603h-.017a3 3 0 0 1-2.983-3.017l.286-52.206c.004-.79.32-1.546.879-2.104l26.25-26.25v-48.611a3 3 0 1 1 6 0v49.854c0 .795-.316 1.559-.879 2.121l-26.257 26.257-.279 50.973a3 3 0 0 1-3 2.983z"/><path d="M431.483 310.599c-9.117 0-16.534-7.417-16.534-16.535s7.417-16.534 16.534-16.534 16.534 7.417 16.534 16.534-7.417 16.535-16.534 16.535zm0-27.068c-5.809 0-10.534 4.726-10.534 10.534s4.726 10.535 10.534 10.535 10.534-4.726 10.534-10.535-4.726-10.534-10.534-10.534zm-277.44-31.739a3 3 0 0 1-3-3v-71.997c0-.796.316-1.559.879-2.121l22.683-22.683V108.76a3 3 0 1 1 6 0v44.474a3 3 0 0 1-.879 2.122l-22.683 22.683v70.754a3 3 0 0 1-3 3z"/><path d="M154.043 278.86c-9.117 0-16.534-7.417-16.534-16.534s7.417-16.534 16.534-16.534 16.534 7.417 16.534 16.534-7.417 16.534-16.534 16.534zm0-27.068c-5.809 0-10.534 4.726-10.534 10.534s4.726 10.534 10.534 10.534 10.534-4.726 10.534-10.534-4.726-10.534-10.534-10.534z"/></g></svg></g><g transform="translate(65.0 330.0) rotate(0.0 702.5 957.5) scale(1.2502970011559686 1.250305231172623)"><svg width="1123.733" height="1531.626" viewBox="0 0 1123.733 1531.626"><linearGradient id="c" gradientUnits="userSpaceOnUse" x1="1050.856" x2="73.377" y1="1157.917" y2="328.022"><stop offset="0" stop-color="#757d97"/><stop offset="1" stop-color="#bfc4d8"/></linearGradient><linearGradient id="d" gradientUnits="userSpaceOnUse" x1="318.888" x2="741.486" y1="368.741" y2="297.699"><stop offset="0" stop-color="#c180ff"/><stop offset="1" stop-color="#c180ff" stop-opacity="0"/></linearGradient><linearGradient id="e" gradientUnits="userSpaceOnUse" x1="101.499" x2="507.063" y1="863.555" y2="82.717"><stop offset=".216" stop-color="#2b3656"/><stop offset=".669" stop-color="#e2e8f7"/><stop offset=".903" stop-color="#2b3656"/></linearGradient><path d="M1102.027 1138.078 214.061 1528.59c-21.706 9.546-41.31-4.161-43.591-30.702L57.653 185.154c-2.281-26.541 14.109-50.227 36.408-52.881l912.197-108.566c14.078-1.675 26.862 13.874 28.653 34.72l88.607 1031.03c1.791 20.845-7.787 42.595-21.491 48.622z" fill="url(#c)"/><path d="m1011.542 848.204-735.019 255.942-72.089-838.827L951.675 151.6zm-53.291 225.949L394.624 1302.41c-16.014 6.485-30.507-4.759-32.26-25.159-1.753-20.401 9.917-42.005 25.955-48.212l564.47-218.45c11.953-4.626 22.801 5.792 24.301 23.241 1.5 17.449-6.903 35.49-18.838 40.323z" fill="#e2e8f7"/><path d="m597.271 1220.342-202.648 82.068c-16.014 6.485-30.507-4.759-32.26-25.159-1.753-20.401 9.917-42.005 25.955-48.212l202.951-78.542c14.427-5.583 27.381 5.454 29.028 24.616 1.647 19.162-8.62 39.395-23.026 45.229z" fill="#c180ff"/><path d="M200.94 732.644a2.99 2.99 0 0 1-1.964-.733l-31.915-27.653a3 3 0 0 1-.589-3.841l25.118-40.763a3 3 0 1 1 5.107 3.148l-23.78 38.592 29.988 25.983a3 3 0 0 1-1.966 5.267zm812.459-209.075a3 3 0 0 1-2.682-4.341l15.143-30.314-20.093-22.177a3 3 0 1 1 4.447-4.028l21.47 23.697a3 3 0 0 1 .46 3.355l-16.06 32.149a2.999 2.999 0 0 1-2.686 1.66z" fill="#2b3656"/><path d="m696.306 347.508-419.658 80.698-8.871-103.223 420.516-70.705z" fill="url(#d)"/><g fill="#2b3656"><path d="M859.488 407.532c-1.399-16.275-1.129-29.529.807-39.745 1.934-10.196 6.165-20.702 12.677-31.483 6.488-10.734 10.675-19.235 12.578-25.523 1.901-6.28 2.573-12.641 2.019-19.095-1.673-19.462-8.761-28.077-21.327-25.825-5.991 1.074-10.574 4.577-13.74 10.522-3.172 5.956-4.442 13.608-3.805 22.953l-35.852 6.714c-1.761-22.454 1.866-40.915 10.844-55.319 8.931-14.328 21.97-22.913 39.036-25.782 17.073-2.871 30.719.8 41.017 10.959 10.246 10.108 16.266 25.802 18.099 47.126.833 9.693.128 19.131-2.117 28.325-2.249 9.204-6.67 19.818-13.279 31.863l-8.513 15.23c-5.34 9.654-7.971 20.232-7.881 31.714l.426 10.652zm1.051 54.216c-.667-7.765.635-14.585 3.901-20.461 3.26-5.864 7.761-9.433 13.494-10.717 5.716-1.28 10.607.172 14.68 4.351 4.066 4.171 6.425 10.09 7.086 17.774.65 7.569-.587 14.236-3.717 20.006-3.135 5.786-7.633 9.378-13.502 10.777-5.888 1.403-10.853.052-14.888-4.068-4.043-4.123-6.396-10.014-7.053-17.663zm-574.984 73.129a3 3 0 0 1-.632-5.932l297.273-64.406a2.995 2.995 0 0 1 3.566 2.297 2.999 2.999 0 0 1-2.297 3.567l-297.273 64.406a3.036 3.036 0 0 1-.638.068zm407.144-19.967a3.001 3.001 0 0 1-.681-5.921l82.856-19.394a2.999 2.999 0 1 1 1.367 5.841l-82.856 19.394c-.229.054-.46.08-.687.08zm-400.798 93.815a3.001 3.001 0 0 1-.681-5.921l340.947-79.805a2.997 2.997 0 0 1 3.604 2.237 2.999 2.999 0 0 1-2.237 3.604l-340.947 79.805c-.229.054-.46.08-.687.08zm225.75 18.66a3 3 0 0 1-.729-5.91l227.042-57.109a3 3 0 1 1 1.463 5.818l-227.042 57.109a2.985 2.985 0 0 1-.733.091zm-219.402 55.187a3 3 0 0 1-.729-5.91l166.697-41.93c1.603-.409 3.236.57 3.641 2.177s-.57 3.237-2.178 3.641l-166.697 41.93a2.985 2.985 0 0 1-.733.091zm16.825 195.753a2.999 2.999 0 0 1-2.989-2.744l-6.371-74.125a3.001 3.001 0 0 1 2.18-3.146l58.743-16.472a3.002 3.002 0 0 1 3.799 2.632l6.284 73.112a3.001 3.001 0 0 1-2.132 3.132l-58.656 17.484c-.281.084-.57.125-.857.125zm-3.169-74.907 5.843 67.979 52.784-15.733-5.765-67.068zm90.577-7.768a3.001 3.001 0 0 1-.82-5.887l150.287-42.775a3.001 3.001 0 0 1 1.643 5.771l-150.287 42.775a3.005 3.005 0 0 1-.823.115zm3.256 37.877a3.002 3.002 0 0 1-.845-5.879l185.653-54.555a2.998 2.998 0 0 1 3.724 2.032 2.998 2.998 0 0 1-2.032 3.724l-185.653 54.555a2.998 2.998 0 0 1-.847.123zm-78.57 185.528a3.003 3.003 0 0 1-2.989-2.743l-6.37-74.125a3 3 0 0 1 2.091-3.119l58.578-18.394a3 3 0 0 1 3.887 2.605l6.283 73.112a3 3 0 0 1-2.045 3.104l-58.491 19.406a3.003 3.003 0 0 1-.944.152zm-3.175-74.984 5.838 67.938 52.637-17.463-5.761-67.028zm90.325-10.71a3 3 0 0 1-.909-5.86l167.899-53.432a3 3 0 1 1 1.821 5.717L415.23 933.218a2.98 2.98 0 0 1-.911.143zm3.255 37.877a3.001 3.001 0 0 1-.933-5.851l115.638-37.873a3 3 0 0 1 1.867 5.701l-115.638 37.873c-.31.102-.625.15-.935.15zm268.051-203.366a2.999 2.999 0 0 1-2.989-2.744l-5.821-67.732a3.002 3.002 0 0 1 2.18-3.146l49.105-13.77a3.001 3.001 0 0 1 3.799 2.631l5.749 66.886a3.001 3.001 0 0 1-2.132 3.132l-49.033 14.616c-.281.084-.57.125-.857.125zm-2.619-68.514 5.293 61.586 43.161-12.865-5.229-60.842zm75.361-5.002a3.001 3.001 0 0 1-.82-5.887l73.704-20.978a3.001 3.001 0 0 1 1.643 5.771l-73.704 20.978a3.006 3.006 0 0 1-.823.116zm2.981 34.675a3.002 3.002 0 0 1-.845-5.879l128.897-37.877a2.997 2.997 0 0 1 3.724 2.033 2.999 2.999 0 0 1-2.032 3.724l-128.897 37.877a2.998 2.998 0 0 1-.847.123zm-64.672 167.433a3.003 3.003 0 0 1-2.989-2.743l-5.82-67.731a3 3 0 0 1 2.091-3.119l48.968-15.376a3 3 0 0 1 3.887 2.605l5.748 66.886a3 3 0 0 1-2.045 3.104l-48.896 16.222a3.003 3.003 0 0 1-.944.152zm-2.625-68.59 5.288 61.545 43.041-14.278-5.226-60.802-43.104 13.535zm75.151-7.45a3 3 0 0 1-.909-5.86l112.285-35.733a3 3 0 1 1 1.821 5.717l-112.285 35.733a2.98 2.98 0 0 1-.911.143zm2.98 34.675a3.001 3.001 0 0 1-.933-5.851l56.931-18.646a3 3 0 1 1 1.867 5.701l-56.931 18.646c-.31.102-.625.15-.935.15z"/></g><path d="m958.325 1.494 58.097 24c-3.206-1.548-6.645-2.206-10.164-1.787L94.061 132.273c-22.299 2.654-38.689 26.34-36.408 52.881L170.47 1497.888c1.351 15.726 8.784 26.946 19.133 31.494l-57.657-31.218c-10.236-4.608-17.575-15.781-18.917-31.398L.212 154.032c-2.281-26.541 14.109-50.227 36.408-52.881L949.081.124c3.185-.379 6.304.124 9.244 1.37z" fill="url(#e)"/></svg></g><g transform="translate(1650.0 345.0) rotate(0.0 268.75 204.375) scale(0.9985991743674919 1.0005238216460728)"><svg width="538.254" height="408.536" viewBox="0 0 538.254 408.536"><linearGradient id="f" gradientTransform="matrix(-1 -0 -0 1 13782.198 0)" gradientUnits="userSpaceOnUse" x1="13327.741" x2="13771.711" y1="62.949" y2="351.922"><stop offset="0" stop-color="#2b3656" stop-opacity=".8"/><stop offset="1" stop-color="#e2e8f7" stop-opacity=".5"/></linearGradient><path d="M0 183.577C0 82.191 120.492 0 269.127 0s269.127 82.191 269.127 183.577-120.492 183.577-269.127 183.577c-34.167 0-66.839-4.354-96.911-12.275l-97.252 53.657 25.399-81.97C39.165 292.916 0 241.369 0 183.577z" fill="url(#f)"/></svg></g><g transform="translate(1042.5 1143.75) rotate(0.0 954.375 805.625) scale(1.2500221025519116 1.2502541245776875)"><svg width="1526.973" height="1288.738" viewBox="0 0 1526.973 1288.738"><linearGradient id="g" gradientUnits="userSpaceOnUse" x1="-94.998" x2="1330.79" y1="198.862" y2="1287.398"><stop offset="0" stop-color="#c180ff"/><stop offset="1" stop-color="#5764ff"/></linearGradient><linearGradient xmlns:xlink="http://www.w3.org/1999/xlink" id="h" x1="-38.178" x2="1375.433" xlink:href="#g" y1="122.844" y2="1241.544"/><linearGradient xmlns:xlink="http://www.w3.org/1999/xlink" id="i" x1="-69.378" x2="1196.571" xlink:href="#g" y1="446.576" y2="1358.898"/><linearGradient xmlns:xlink="http://www.w3.org/1999/xlink" id="j" x1="-68.199" x2="1101.126" xlink:href="#g" y1="386.018" y2="1356.077"/><linearGradient xmlns:xlink="http://www.w3.org/1999/xlink" id="k" x1="-20.461" x2="1227.125" xlink:href="#g" y1="325.885" y2="1336.373"/><linearGradient xmlns:xlink="http://www.w3.org/1999/xlink" id="l" x1="294.219" x2="1494.108" xlink:href="#g" y1="-80.549" y2="991.98"/><linearGradient xmlns:xlink="http://www.w3.org/1999/xlink" id="m" x1="178.67" x2="1513.261" xlink:href="#g" y1="-70.241" y2="994.243"/><linearGradient xmlns:xlink="http://www.w3.org/1999/xlink" id="n" x1="138.927" x2="1487.45" xlink:href="#g" y1="-50.712" y2="1120.763"/><linearGradient xmlns:xlink="http://www.w3.org/1999/xlink" id="o" x1="40.425" x2="1504.973" xlink:href="#g" y1="157.401" y2="1018.793"/><linearGradient xmlns:xlink="http://www.w3.org/1999/xlink" id="p" x1="-3.569" x2="1447.796" xlink:href="#g" y1="151.075" y2="1185.168"/><linearGradient xmlns:xlink="http://www.w3.org/1999/xlink" id="q" x1="40.066" x2="1521.121" xlink:href="#g" y1="33.646" y2="807.141"/><linearGradient xmlns:xlink="http://www.w3.org/1999/xlink" id="r" x1="61.243" x2="1511.606" xlink:href="#g" y1="-4.314" y2="761.104"/><linearGradient xmlns:xlink="http://www.w3.org/1999/xlink" id="s" x1="17.909" x2="1561.802" xlink:href="#g" y1="23.714" y2="816.451"/><path d="m1344.204 865.947-96.329-67.691s-300.269 158.813-290.723 219.561 104.14 126.703 104.14 126.703c161.416-6.075 302.873-164.02 282.913-278.573z" fill="#2b3656"/><circle cx="482.677" cy="597.497" fill="#2b3656" r="55.466"/><path d="M429.931 637.742c17.717 33.779 60.363 86.967 82.175 114.535 43.384 54.833 104.195-7.731 73.673-76.78-18.322-41.45-28.934-72.126-41.722-81.475-31.731-23.199-88.264-5.874-114.127 43.72z" fill="url(#g)"/><path d="M548.506 776.308c-13.595 0-27.21-7.581-38.752-22.169l-3.652-4.612c-23.16-29.233-61.924-78.16-78.828-110.391a3.002 3.002 0 0 1-.003-2.78c14.124-27.085 38.815-47.053 66.05-53.412 19.877-4.645 38.522-1.567 52.508 8.656 10.675 7.805 19.518 28.578 31.756 57.33 3.424 8.045 6.965 16.364 10.939 25.354 18.406 41.641 4.508 81.543-19.563 96.063-6.628 3.998-13.538 5.96-20.454 5.96zM433.327 637.743c17.021 31.748 54.782 79.411 77.478 108.058l3.654 4.615c15.361 19.415 34.578 24.94 51.402 14.794 21.846-13.179 34.243-49.885 17.174-88.5-3.99-9.028-7.54-17.366-10.973-25.431-11.862-27.869-20.434-48.006-29.775-54.836-12.551-9.176-29.453-11.897-47.603-7.657-25.09 5.859-47.923 24.108-61.357 48.957z" fill="#fff"/><circle cx="440.641" cy="393.351" fill="#2b3656" r="63.711"/><path d="M371.972 457.062c7.058 32.462 43.019 145.234 51.329 169.41 14.543-46.537 93.991-69.312 123.189-42.618 0 0-12.566-106.214-18.371-141.722s-29.84-5.416-119.128-18.887c-44.302-6.684-41.294 14.155-37.019 33.817z" fill="url(#h)"/><path d="M423.302 629.473a3 3 0 0 1-2.837-2.024c-7.642-22.229-44.257-136.791-51.424-169.748-2.676-12.305-4.482-23.983 2.69-31.634 6.343-6.767 18.679-8.657 37.707-5.788 38.608 5.825 65.203 3.402 82.803 1.8 23.376-2.131 35.114-3.2 38.839 19.57 5.749 35.167 18.264 140.791 18.39 141.854a2.999 2.999 0 0 1-5.004 2.566c-11.961-10.935-34.562-13.632-58.984-7.04-29.331 7.917-52.614 26.892-59.316 48.339a2.999 2.999 0 0 1-2.821 2.105h-.042zm-29.295-204.498c-8.657 0-14.654 1.735-17.898 5.195-5.183 5.528-3.527 15.573-1.204 26.255 6.499 29.896 37.489 127.664 48.63 161.315 11.412-23.724 37.886-38.432 60.384-44.505 22.939-6.192 44.645-4.565 58.768 4.052-2.893-24.164-12.657-104.882-17.527-134.67-2.82-17.256-9.08-16.685-32.373-14.564-17.886 1.63-44.917 4.093-84.241-1.841-5.47-.825-10.319-1.237-14.537-1.237z" fill="#fff"/><path d="M288.093 808.324c-36.358-4.902-74.205-92.074-115.106-161.583-48.525-82.468 48.428-82.048 104.421-52.628 49.287 25.896 82.537 47.97 85.043 81.384 2.506 33.415-27.978 139.081-74.359 132.827z" fill="url(#i)"/><path d="M292.063 811.593c-1.452 0-2.909-.099-4.371-.296-29.64-3.996-58.978-57.627-90.039-114.407-8.862-16.198-18.025-32.949-27.251-48.627-20.252-34.418-14.087-52.572-5.35-61.74 9.701-10.18 27.849-14.824 51.116-13.069 21.046 1.585 43.876 8.146 62.636 18.004 21.967 11.542 44.518 24.167 60.644 38.27 16.486 14.419 24.746 28.892 25.995 45.546 1.984 26.461-15.529 95.293-45.707 123.735-8.875 8.365-18.165 12.585-27.673 12.585zm-85.374-232.507c-17.023 0-30.085 4.011-37.294 11.576-10.486 11.003-8.351 29.868 6.178 54.558 9.272 15.759 18.459 32.551 27.343 48.791 30.312 55.411 58.944 107.749 85.578 111.341 9.15 1.234 18.277-2.369 27.126-10.71 28.467-26.829 45.7-94.109 43.84-118.92-2.305-30.724-31.105-51.452-83.447-78.954-18.061-9.488-40.037-15.806-60.296-17.331-3.117-.234-6.13-.351-9.027-.351z" fill="#fff"/><path d="M517.876 730.267c-18.306-26.224-121.175-54.769-155.425-54.769s-115.089 95.985-58.476 160.391c27.727 31.544 237.245 188.793 259.8 177.098s-27.567-256.458-45.899-282.72z" fill="url(#j)"/><path d="M560.654 1016.628c-6.152 0-18.104-3.861-44.604-19.354-21.611-12.634-49.959-31.369-81.977-54.18-58.798-41.888-118.17-89.092-132.352-105.227-23.156-26.344-26.653-61.311-9.848-98.459 16.126-35.645 49.105-66.912 70.576-66.912 17.518 0 52.312 7.276 84.612 17.695 22.412 7.229 61.732 21.825 73.272 38.357 9.719 13.922 25.347 78.146 35.755 131.927 5.23 27.027 21.748 117.434 14.705 146.028-1.182 4.798-3.027 7.79-5.641 9.145-1.08.561-2.477.979-4.501.979zM362.451 678.497c-16.849 0-48.96 27.688-65.109 63.385-9.138 20.197-20.133 59.011 8.887 92.025 13.692 15.577 73.833 63.342 131.326 104.301 31.875 22.708 60.065 41.342 81.524 53.887 34.226 20.009 41.803 19.009 43.314 18.229.345-.179 1.55-1.086 2.576-5.254 4.488-18.218-1.172-73.187-14.77-143.452-12.182-62.946-27.136-118.677-34.784-129.634-17.406-24.937-119.414-53.486-152.965-53.486z" fill="#fff"/><path d="M736.696 729.796c-35.684-7.622-168.744-35.568-208.007-12.772-39.262 22.796-37.592 252.522 35.085 295.961s332.477 112.775 402.648 106.092 54.299-35.72 15.872-74.665-188.335-302.385-245.598-314.617z" fill="url(#k)"/><path d="M955.676 1122.531c-43.199 0-124.663-17.394-190.405-34.804-91.143-24.136-168.941-51.788-203.035-72.166-43.597-26.059-62.613-116.128-62.12-193.831.282-44.438 7.541-95.963 27.068-107.301 26.73-15.521 99.396-11.222 210.14 12.433 39.217 8.377 116.563 124.957 178.712 218.631 29.881 45.037 55.686 83.933 68.396 96.812 20.364 20.64 38.398 41.966 32.526 58.126-4.327 11.906-20.294 18.779-50.25 21.633-3.313.315-7.011.467-11.031.467zM579.207 711.305c-22.854 0-39.437 2.755-49.012 8.314-14.066 8.167-23.744 49.218-24.08 102.149-.254 39.928 4.69 80.115 13.921 113.158 10.622 38.027 26.279 64.129 45.277 75.484 73.728 44.066 332.179 112.21 400.825 105.681 26.63-2.536 41.83-8.495 45.179-17.709 4.775-13.14-14.144-34.618-31.158-51.862-13.117-13.294-39.071-52.414-69.124-97.71-58.295-87.866-138.139-208.202-174.966-216.081-66.55-14.215-119.901-21.425-156.862-21.425z" fill="#fff"/><circle cx="979.601" cy="401.851" fill="#2b3656" r="52.142"/><path d="M610.576 641.035c9.689 40.691 7.346 46.465 0 68.599s86.232 54.076 88.42 12.551c2.188-41.524-88.42-81.15-88.42-81.15z" fill="#2b3656"/><path d="M875.192 469.219c66.712-9.416 37.963-86.319 78.467-109.059 33.47-18.79 58.925 1.307 58.925 1.307s-7.925-14.5-20.796-18.789c-20.345-6.78-338.499 13.658-361.019 17.481-23.91 4.059 6.389 95.796 68.628 113.016 34.884 9.652 132.266 2.187 175.794-3.957z" fill="url(#l)"/><path d="M753.637 480.844c-22.595 0-42.569-1.326-55.039-4.776-50.689-14.024-80.344-75.525-78.944-103.008.628-12.336 6.92-15.229 10.614-15.857 11.784-2 100.067-8.199 181.659-12.755 62.268-3.476 168.555-8.698 180.81-4.614 13.831 4.608 22.134 19.562 22.48 20.196a3.001 3.001 0 0 1-4.492 3.792c-.974-.763-24.378-18.574-55.597-1.046-16.046 9.008-20.535 27.457-25.288 46.988-6.47 26.584-13.81 56.716-54.229 62.425-28.701 4.052-79.884 8.654-121.974 8.654zm214.117-136.548c-29.079 0-83.344 2.114-155.492 6.143-89.206 4.98-170.542 10.905-180.99 12.68-4.256.723-5.408 5.971-5.626 10.247-.693 13.62 6.949 34.983 19.018 53.159 14.894 22.432 34.616 37.973 55.534 43.76 34.424 9.526 132.263 1.937 174.575-4.036 36.396-5.137 42.634-30.767 49.237-57.902 4.848-19.919 9.86-40.516 28.181-50.802 20.563-11.545 38.457-8.98 49.719-4.9-3.005-2.912-6.752-5.68-11.069-7.119-2.476-.824-10.377-1.229-23.086-1.229z" fill="#fff"/><circle cx="878.99" cy="389.636" fill="#2b3656" r="64.357"/><path d="M790.732 457.342c66.712-9.416 37.963-86.319 78.467-109.059 33.47-18.79 54.504-4.929 54.504-4.929s-1.829-17.277-14.532-22.041-340.341 23.146-362.861 26.969c-23.91 4.059 6.389 95.796 68.628 113.016 34.884 9.652 132.266 2.187 175.794-3.957z" fill="url(#m)"/><path d="M669.178 468.967c-22.595 0-42.569-1.326-55.039-4.776-50.69-14.025-80.346-75.527-78.945-103.01.628-12.334 6.92-15.229 10.614-15.855 11.618-1.972 99.976-9.95 185.377-16.737 77.516-6.161 171.501-12.912 179.04-10.083 14.273 5.353 16.379 23.753 16.462 24.534a2.999 2.999 0 0 1-4.634 2.82c-.795-.513-20.086-12.534-51.384 5.04-16.046 9.008-20.535 27.457-25.288 46.988-6.47 26.584-13.81 56.716-54.229 62.425-28.701 4.052-79.884 8.654-121.974 8.654zm231.365-145.295c-51.677 0-335.195 24.422-353.731 27.569-4.256.722-5.408 5.97-5.626 10.245-.694 13.62 6.948 34.983 19.018 53.159 14.895 22.433 34.617 37.975 55.535 43.762 34.423 9.527 132.262 1.938 174.575-4.036 36.396-5.137 42.634-30.767 49.237-57.901 4.848-19.92 9.86-40.517 28.181-50.803 24.621-13.822 42.874-10.745 51.712-7.586-1.533-4.861-4.77-11.5-11.326-13.959-1.014-.307-3.615-.45-7.574-.45z" fill="#fff"/><circle cx="764.559" cy="381.664" fill="#2b3656" r="75.399"/><path d="M659.487 442.442c71.669-10.116 51.054-82.114 94.568-106.543 35.956-20.187 65.08-6.258 65.08-6.258s-7.162-25.938-32.408-33.334c-13.987-4.098-365.63 24.866-389.823 28.973-25.687 4.361 6.864 102.913 73.728 121.414 37.476 10.369 142.094 2.349 188.856-4.251z" fill="url(#n)"/><path d="M528.89 454.709c-24.251 0-45.68-1.423-59.059-5.124-54.351-15.038-86.147-80.974-84.647-110.437.667-13.097 7.314-16.164 11.218-16.827 11.897-2.02 104.892-10.242 199.007-17.596 68.025-5.315 183.437-13.854 192.162-11.298 26.544 7.775 34.146 34.289 34.456 35.414a2.998 2.998 0 0 1-4.186 3.505c-.273-.128-28.256-12.953-62.316 6.168-17.121 9.611-23.812 27.117-30.897 45.65-10.352 27.082-21.057 55.085-64.721 61.248-30.831 4.351-85.817 9.296-131.017 9.296zm251.149-155.825c-17.244 0-72.159 3.068-184.545 11.853-93.796 7.332-186.361 15.51-198.089 17.501-4.718.801-5.991 6.541-6.229 11.216-.747 14.677 7.479 37.682 20.468 57.245 16.03 24.144 37.264 40.872 59.787 47.104 37.008 10.239 142.157 2.088 187.638-4.33 40.161-5.669 49.775-30.82 59.954-57.448 7.154-18.715 14.552-38.066 33.564-48.741 27.187-15.263 50.474-11.801 61.34-8.685-3.622-7.666-11.942-20.695-28.044-25.412-.728-.195-2.635-.302-5.844-.302zM659.487 442.442h.01z" fill="#fff"/><circle cx="634.447" cy="439.96" fill="#2b3656" r="83.05"/><path d="M1045.28 412.168c20.239 11.152 226.347 371.482 241.822 403.037 29.138 59.413-110.048 186.77-199.834 219.849-39.079 14.398-105.98 15.927-164.339-22.649-90.841-60.048-271.061-311.132-312.354-371.37-32.781-47.821-40.675-133.817-14.766-181.318 25.91-47.501 351.44-101.567 449.47-47.549z" fill="url(#o)"/><path d="M1030.344 1047.417c-6.055 0-12.167-.276-18.288-.835-32.537-2.972-63.929-13.925-90.781-31.675-39.048-25.812-98.08-88.477-175.455-186.255-60.731-76.744-116.641-155.173-137.719-185.921-16.019-23.368-26.919-56.982-29.906-92.223-3.02-35.621 2.441-69.237 14.981-92.229 8.774-16.088 45.729-29.71 75.183-38.304 108.467-31.649 304.88-50.931 378.369-10.437 9.245 5.095 50.91 70.694 123.837 194.977 58.47 99.646 111.807 194.229 119.23 209.366 6.269 12.782 5.602 28.864-1.982 47.801-26.723 66.725-130.993 150.942-199.508 176.186-17.037 6.276-37.134 9.547-57.961 9.548zM911.781 392.634c-12.978 0-26.589.362-40.781 1.095-68.395 3.53-145.397 15.795-200.961 32.008-40.093 11.698-65.52 24.276-71.596 35.417-24.938 45.722-17.977 130.651 14.606 178.186 53.538 78.101 225.689 313.817 311.533 370.562 54.952 36.324 120.783 37.395 161.647 22.337 67.381-24.824 169.84-107.433 196.012-172.785 6.926-17.293 7.654-31.736 2.166-42.928-7.214-14.708-61.571-111.07-119.019-208.973-101.204-172.472-118.628-191.143-121.559-192.757-26.349-14.52-72.457-22.162-132.05-22.162z" fill="#fff"/><path d="M1300.336 835.121c24.299 108.479-176.561 255.594-275.493 273.819-48.068 8.855 186.247 157.974 230.843 176.17 210.883 15.621 296.192-264.688 260.349-298.534-28.611-27.016-183.589-138.437-215.698-151.455z" fill="url(#p)"/><path d="M1272.698 1288.745c-5.695 0-11.437-.215-17.234-.644a2.99 2.99 0 0 1-.912-.215c-21.491-8.769-83.577-46.062-135.573-81.438-29.876-20.325-54.91-38.91-72.396-53.745-28.983-24.589-31.662-33.969-31.156-38.884.297-2.882 2.077-6.579 8.873-7.831 34.479-6.352 82.789-29.129 129.229-60.931 50.526-34.6 92.416-74.928 117.953-113.556 23.478-35.514 32.201-67.721 25.928-95.726a3 3 0 0 1 4.054-3.436c33.011 13.383 188.483 125.475 216.631 152.053 16.45 15.534 9.297 73.144-16.285 131.154-15.277 34.642-43.274 83.94-89.896 122.072-41.529 33.968-88.292 51.125-139.215 51.125zm-16.314-6.593c5.553.4 10.994.593 16.335.594 137.74.004 205.604-128.811 223.6-169.619 26.268-59.564 30.337-112.396 17.656-124.37-26.691-25.204-168.438-127.741-209.617-148.478 4.318 28.231-5.041 59.997-27.872 94.533-25.954 39.259-68.417 80.17-119.568 115.197-47.097 32.251-96.268 55.384-131.53 61.88-3.803.7-3.945 2.089-3.992 2.545-.854 8.299 25.219 35.525 100.959 87.054 56.635 38.531 114.715 72.627 134.03 80.664z" fill="#fff"/><circle cx="160.403" cy="95.836" fill="#2b3656" r="55.466"/><circle cx="357.529" cy="140.541" fill="#2b3656" r="63.711"/><path d="M679.549 341.311c51.374 66.764-106.496 131.044-166.38 87.517-37.722-27.419-150.882-159.356-161.292-193.65s15.57-197.45 69.609-149.646 226.681 214.996 258.063 255.779z" fill="url(#q)"/><path d="M565.655 446.067c-20.762 0-40.08-4.514-54.249-14.812-17.85-12.974-54.588-51.047-91.419-94.74-14.842-17.606-63.824-76.887-70.981-100.465-4.328-14.26-2.634-48.351 4.029-81.06 4.715-23.144 15.68-63.93 36.151-77.069 7.462-4.79 19.467-7.746 34.287 5.364 55.717 49.288 227.48 215.945 258.454 256.197 16.225 21.085 14.058 44.108-6.104 64.828-24.061 24.727-69.838 41.757-110.169 41.757zM402.427 79.829c-3.416 0-6.738 1.049-10 3.142-13.597 8.727-25.812 35.413-33.512 73.217-6.383 31.334-8.175 64.918-4.167 78.12 10.132 33.38 122.199 164.483 160.186 192.094 17.934 13.036 47.022 16.968 79.805 10.793 30.752-5.793 60.174-19.996 76.785-37.068 12.609-12.958 23.825-33.364 5.648-56.985-30.81-40.039-202.081-206.184-257.673-255.361-6-5.307-11.652-7.951-17.072-7.951z" fill="#fff"/><path d="M370.364 59.334c22.208 3.792 17.283 20.894 3.25 33.042-36.292 31.417-59.877 81.544-79.796 87.45-19.227 5.701-108.02-10.031-117.651-23.664-12.491-17.681-3.065-116.582 31.154-115.787 34.22.796 129.447 13.223 163.043 18.958z" fill="url(#r)"/><path d="M281.564 184.018c-13.826 0-33.584-2.553-50.732-5.825-14.866-2.837-50.188-10.494-57.115-20.3-9.98-14.128-6.981-72.074 8.723-101.551 6.729-12.629 15.407-19.197 24.951-18.964 34.298.797 129.104 13.131 163.478 19 12.01 2.05 15.984 7.689 17.204 12.058 2.134 7.647-2.653 17.69-12.495 26.209-17.009 14.724-31.177 33.603-43.676 50.26-14.431 19.229-25.829 34.417-37.23 37.798-3.085.915-7.63 1.315-13.106 1.315zM206.915 43.371c-7.146 0-13.597 5.311-19.18 15.791-15.119 28.378-17.165 83.878-9.118 95.269 3.125 4.424 20.829 11.664 53.339 17.867 27.479 5.244 52.562 7.155 61.01 4.652 9.499-2.816 20.916-18.031 34.136-35.647 12.681-16.897 27.054-36.05 44.548-51.195 7.947-6.879 12.125-14.753 10.644-20.06-1.365-4.889-7.516-6.917-12.435-7.757C335.63 56.447 241.3 44.166 207.253 43.375c-.113-.002-.226-.004-.337-.004z" fill="#fff"/><path d="M179.856 28.958C146.799 21.224 74.037 7.213 53.543 3.896 5.413-3.893-13.068 40.371 19.002 86.88c21.356 30.972 82.712 63.723 102.187 57.616 26.467-8.3 29.573-56.574 52.023-85.464 7.229-9.302 28.773-24.896 6.644-30.074z" fill="url(#s)"/><path d="M115.601 148.225c-10.962 0-27.543-5.67-46.25-16.007-22.994-12.705-42.738-29.018-52.818-43.635C-1.062 63.065-4.926 36.034 6.452 18.039 15.494 3.74 32.835-2.494 54.022.935c20.01 3.239 92.726 17.196 126.518 25.102 6.698 1.567 10.523 4.239 11.694 8.167 2.019 6.774-5.074 14.211-11.332 20.772-2.05 2.148-3.984 4.177-5.32 5.896-8.899 11.452-14.697 26.11-20.304 40.286-8.311 21.012-16.16 40.858-33.191 46.199-1.854.581-4.028.866-6.486.866zM43.031 6.019c-14.042 0-25.242 5.317-31.508 15.227-10.071 15.929-6.259 40.426 9.948 63.931 20.917 30.333 81.001 62.049 98.82 56.458 14.299-4.484 21.638-23.038 29.406-42.681 5.762-14.568 11.72-29.632 21.146-41.761 1.522-1.959 3.56-4.095 5.717-6.356 4.359-4.571 10.948-11.479 9.924-14.917-.481-1.614-3.077-3.048-7.312-4.039C145.487 24 73.007 10.088 53.063 6.86c-3.475-.562-6.828-.839-10.032-.839z" fill="#fff"/></svg></g><g transform="translate(1782.5 312.5) rotate(0.0 268.75 204.375) scale(0.9985991743674919 1.0005238216460728)"><svg width="538.254" height="408.536" viewBox="0 0 538.254 408.536"><path d="M538.254 183.577C538.254 82.191 417.762 0 269.127 0S0 82.191 0 183.577s120.492 183.577 269.127 183.577c34.167 0 66.839-4.354 96.911-12.275l97.252 53.657-25.399-81.97c61.198-33.65 100.363-85.196 100.363-142.989z" fill="#C180FF" opacity=".7"/><g fill="#fff" opacity=".7"><circle cx="149.598" cy="183.577" r="41.999"/><circle cx="269.127" cy="183.577" r="41.999"/><circle cx="388.656" cy="183.577" r="41.999"/></g></svg></g></svg>