<svg xmlns="http://www.w3.org/2000/svg" version="1.1" xmlns:xlink="http://www.w3.org/1999/xlink" xmlns:svgjs="http://svgjs.dev/svgjs" viewBox="0 0 15.495068652179008 4.405184830224593"><g transform="matrix(0.7265038819163958,0,0,0.7265038819163958,5.120514322551983,1.7269139984275363)"><g clip-path="url(#SvgjsClipPath22201)"><g clip-path="url(#SvgjsClipPath22199dd794e10-c456-43d9-a2a5-a7e1f75d06b6)"><path d=" M -0.7211324350953054 0.9685377964035036 C -0.8625268076274768 0.9685377964035036 -0.862446185907479 0.8931242395175456 -0.8260535415004644 0.8328836903351768 C -0.7977553177812302 0.7859779736404464 -0.7981906750692187 0.7525683328733512 -0.8011736787091377 0.7363794914977895 C -0.8038019467810664 0.676235688379418 -0.8604628915955326 0.628120645884721 -0.9301684307056446 0.628120645884721 C -0.999873969815757 0.628120645884721 -1.056518790286224 0.676235688379418 -1.0591631827021524 0.7364117401857886 C -1.0621300619980718 0.7525360841853519 -1.0625815436300594 0.7859779736404464 -1.034251071222827 0.8328836903351768 C -0.9979067998478106 0.8931242395175456 -0.9977939294398137 0.9685377964035036 -1.139188301971985 0.9685377964035036 L -1.3330996629107355 0.9685377964035036 C -1.4603207370672906 0.9685377964035036 -1.4603207370672906 0.9710854427554347 -1.4603207370672906 1.095791119248058 L -1.4603207370672906 1.3168236267940738 C -1.4603207370672906 1.328110667593768 -1.4567572570433878 1.342219468593386 -1.4503236437875617 1.3453959643613 C -1.4464333083559853 1.3472927110274737 -1.4421551722044506 1.3482587417713687 -1.4378272771879004 1.348217724561224 C -1.4294291121663145 1.3480658151070224 -1.4212260548205593 1.3456600304679416 -1.414076118476543 1.3412520079534125 C -1.3804418509138292 1.3194800114025464 -1.3414804067192447 1.3073498738240725 -1.3014314512955925 1.3061815597543616 C -1.2939413357945955 1.3061558842786996 -1.2864599413032618 1.3066948896455104 -1.2790508618241994 1.3077939941543182 C -1.1873678418426818 1.3141147370021469 -1.1161949874286083 1.3967681243439092 -1.1161949874286083 1.4979161342531704 C -1.1161949874286083 1.5990641441624316 -1.1874000905306805 1.6817336558481935 -1.2790508618241994 1.6880382743520226 C -1.28646082352197 1.689129341497292 -1.2939416148283511 1.689668303406974 -1.3014314512955925 1.6896507087519788 C -1.3414718439675282 1.6884913266750434 -1.3804252618944823 1.6763602149924655 -1.4140438697885451 1.6545802605529283 C -1.4211986497988547 1.6501851679415234 -1.4293995702518907 1.6477855775034667 -1.4377950284999006 1.647630668289116 C -1.4421344872422976 1.6475780654454133 -1.4464257321802287 1.648544562053055 -1.4503236437875606 1.6504524284890398 C -1.456773381387386 1.6536772972889526 -1.4603207370672906 1.6676893522245733 -1.4603207370672906 1.679008641712267 L -1.4603207370672906 1.9007989934262617 C -1.4603207370672906 2.028052316270816 -1.4603207370672906 2.028052316270816 -1.3330996629107355 2.028052316270816 L -0.5272210741565551 2.028052316270816 C -0.49347567091011735 2.0280480400998586 -0.4611140902576851 2.0146386296858987 -0.4372555106893654 1.990774002315407 C -0.4133969311210439 1.966909374944914 -0.3999957232871032 1.934544396672631 -0.3999999999999999 1.9007989934262617 L -0.3999999999999999 1.09571049752806 C -0.3999999999999999 0.9684571746835056 -0.3999999999999999 0.9684571746835056 -0.5272210741565551 0.9684571746835056 Z" fill="#c08c46" transform="matrix(1,0,0,1,0,0)" fill-rule="nonzero"></path></g><g clip-path="url(#SvgjsClipPath22199dd794e10-c456-43d9-a2a5-a7e1f75d06b6)"><path d=" M -1.5124346168738796 1.7070327515835086 C -1.5124346168738796 1.5656222547073368 -1.4370210599879207 1.5657351251153342 -1.3767966351495524 1.6021116451783493 C -1.3298586697668229 1.6304259932415825 -1.296449028999727 1.6299745116095945 -1.2802924363121644 1.627007632313675 C -1.2201486331937934 1.6243632398977468 -1.172017466355097 1.5677184194272806 -1.172017466355097 1.4980128803171682 C -1.172017466355097 1.4283073412070553 -1.2201486331937943 1.3716625207365891 -1.2802924363121644 1.3690181283206608 C -1.2964167803117284 1.3660351246807414 -1.3298909184548227 1.365599767392753 -1.3767966351495524 1.3939141154559866 C -1.4370210599879216 1.4302745111750022 -1.5124346168738796 1.4303873815829986 -1.5124346168738796 1.2889768847068277 L -1.5124346168738796 1.0950816481120773 C -1.5124346168738796 0.9678444496115222 -1.5311066072253743 0.9678444496115222 -1.6601658565978787 0.9678444496115222 L -1.8607688202964474 0.9678444496115222 C -1.8720558610961426 0.9678444496115222 -1.88618078643976 0.9714240539794252 -1.889325033519675 0.9778415428912519 C -1.8912311920069766 0.98174005530278 -1.892197595958398 0.9860308888470903 -1.8921467937195988 0.9903701581789122 C -1.8920058531703612 0.9987576301782564 -1.889604986088451 1.0069517728174453 -1.8851972014557876 1.0140890682022705 C -1.8634231477106022 1.0477283364823735 -1.8512929581568633 1.0866955247177614 -1.8501267532567371 1.1267498597272199 C -1.850093580076122 1.134234877159443 -1.8506326285793735 1.141711479899538 -1.8517391876566947 1.1491143248546174 C -1.8580438061605233 1.240797344836132 -1.9407294421902839 1.3119701992502049 -2.0418452034115466 1.3119701992502049 C -2.1429609646328087 1.3119701992502049 -2.2256627250065684 1.2407328474601336 -2.2319834678543975 1.1491143248546143 C -2.2330739748139 1.1417097129041853 -2.233612935859883 1.1342343231963972 -2.233595902254354 1.1267498597272199 C -2.2324228769122096 1.0866969789356322 -2.220281106550039 1.0477339988023626 -2.1984932053673045 1.0141051925462696 C -2.194103628095927 1.0069597980912164 -2.19170425284198 0.9987707470504847 -2.1915436131034927 0.9903862825229119 C -2.1914908857805315 0.9860416422796401 -2.1924573239301126 0.9817451343917905 -2.194365373303416 0.9778415428912515 C -2.1975902421033293 0.9713918052914259 -2.2116184213829495 0.9678444496115222 -2.222937710870643 0.9678444496115222 L -2.4448086843046344 0.9678444496115222 C -2.4785568811031227 0.9678401728155432 -2.510924302959023 0.9812435939639328 -2.534789393891685 1.0051056609367717 C -2.5586544848243484 1.0289677279096099 -2.5720620074201808 1.061333451042597 -2.5720620071491886 1.095081648112077 L -2.5720620071491886 1.9009441125222577 C -2.5720577309782424 1.9346895157686528 -2.558648320564294 1.9670510964210886 -2.53478369319381 1.9909096759894176 C -2.510919065823325 2.014768255557746 -2.4785540875510463 2.028169463391698 -2.444808684304678 2.028165186678813 L -1.6601658565978799 2.028165186678813 C -1.5329125337533258 2.028165186678813 -1.5124346168738807 2.028165186678813 -1.5124346168738807 1.9009441125222577 Z" fill="#3f170e" transform="matrix(1,0,0,1,0,0)" fill-rule="nonzero"></path></g><g clip-path="url(#SvgjsClipPath22199dd794e10-c456-43d9-a2a5-a7e1f75d06b6)"><path d=" M -1.439133349051864 0.14653486364976032 C -1.439133349051864 0.28794536052593145 -1.535008698473269 0.3083104069973801 -1.5952492476556375 0.2719500112783645 C -1.6421872130383661 0.2436356632151312 -1.6755968538054618 0.2440871448471189 -1.691769570837024 0.247037899799039 C -1.751913373955396 0.2496822922149674 -1.800028416450093 0.306359361373433 -1.800028416450093 0.37603265179554635 C -1.800028416450093 0.4457059422176599 -1.7518972496113956 0.5023668870321256 -1.6917534464930244 0.5050274037920537 C -1.6756291024934615 0.5080265317759727 -1.6421872130383661 0.5084618890639605 -1.5952492476556375 0.480147541000727 C -1.535008698473269 0.4437548965937126 -1.439133349051864 0.46415219175316036 -1.439133349051864 0.6055626886293317 L -1.439133349051864 0.7789638840006365 C -1.439133349051864 0.906217206845191 -1.4415197519637997 0.906217206845191 -1.3118961505513085 0.906217206845191 L -1.1112931868527407 0.906217206845191 C -1.1000061460530466 0.906217206845191 -1.085897345053429 0.9026376024772882 -1.0827047249415145 0.8962201135654617 C -1.0808131424404896 0.8923170988963185 -1.0798527580543174 0.8880284858615122 -1.079899089085591 0.8836914982778008 C -1.0800594641851586 0.875296875708123 -1.0824586429831315 0.8670973620899924 -1.0868486813494025 0.859940339566444 C -1.1086384431820289 0.8263134026328729 -1.1207752737421952 0.7873483758436626 -1.121935253892452 0.7472956723854938 C -1.1219603485633747 0.7398162832881623 -1.1214213419511303 0.7323456516424569 -1.120322819492496 0.7249473316020953 C -1.1140020766446668 0.6332320629325823 -1.0313325649589045 0.5620914572065088 -0.9302006793936433 0.5620914572065088 C -0.8290687938283821 0.5620914572065088 -0.7463831577986206 0.6333126846525803 -0.7400624149507915 0.7249473316020991 C -0.7389639533868682 0.7323456583503647 -0.7384249471068549 0.7398162853913481 -0.7384499805508349 0.7472956723854938 C -0.7396148974838166 0.787347551338536 -0.7517513230394623 0.8263112778696673 -0.7735365530938858 0.8599403395664451 C -0.7779412497110947 0.8670849320617873 -0.7803417439093523 0.8752833716437705 -0.7804861453576968 0.8836753739338015 C -0.7805351535967158 0.8880144541747215 -0.7795688418008035 0.892304878548571 -0.7776643851577734 0.8962039892214617 C -0.7744395163578601 0.9026537268212877 -0.7604274614222395 0.9062172068451908 -0.7491242962785463 0.9062172068451908 L -0.527301695876552 0.9062172068451908 C -0.40004837303199725 0.9062172068451908 -0.40004837303199725 0.9062172068451908 -0.40004837303199725 0.7789638840006365 L -0.40004837303199725 -0.02689858040954385 C -0.4000526487439533 -0.060642501474473365 -0.4134625738033111 -0.09300242490958255 -0.43732766491228725 -0.11685844413899682 C -0.461192756021263 -0.14071446336841098 -0.49355777562502645 -0.15411208408523136 -0.527301695876611 -0.15410353022209966 L -1.3118961505513085 -0.15410353022209966 C -1.439133349051864 -0.15410353022209966 -1.439133349051864 -0.15410353022209966 -1.439133349051864 -0.02689858040954385 Z" fill="#d56a34" transform="matrix(1,0,0,1,0,0)" fill-rule="nonzero"></path></g><g clip-path="url(#SvgjsClipPath22199dd794e10-c456-43d9-a2a5-a7e1f75d06b6)"><path d=" M -2.6221603439558328 0.5048500360080583 C -2.494778026359282 0.4432872906177254 -2.4347793423369066 0.5207647635356276 -2.441309701656729 0.5908411625577303 C -2.4464049943605906 0.6453898183082534 -2.431457727472996 0.6752682277394444 -2.4217347480412594 0.688538562851085 C -2.3931946591620323 0.7415715302656491 -2.3212478362359796 0.7602112719291445 -2.25847576504568 0.7298975052099652 C -2.19570369385538 0.6995837384907857 -2.165647916640194 0.6315390068126283 -2.1894796970715484 0.5762808799261245 C -2.193817145607431 0.560446774118553 -2.2079581952950478 0.530133007399374 -2.2538642026618048 0.5002223492801838 C -2.312814804324208 0.4618302862172232 -2.3362112274675755 0.3666321592438009 -2.2088772829030225 0.3051177868854664 L -2.05274525995525 0.22963973262351012 C -1.9894865504689305 0.1990481247553888 -1.9629838282746286 0.12298271375164305 -1.9935366687888527 0.05970527121211122 L -2.080833867202489 -0.12088738158299905 C -2.0856711704023576 -0.1310618426467236 -2.0950877872981026 -0.14220376435042192 -2.1022631203779087 -0.14226826172642004 C -2.106606060135596 -0.14228206661920073 -2.110891683775911 -0.1412769332396423 -2.1147756113215705 -0.1393336311184996 C -2.122274401209477 -0.13557074170736783 -2.1286150429385833 -0.12984856327521388 -2.1331251147930725 -0.12277392983094793 C -2.153922714835491 -0.08852169389702014 -2.183722617547716 -0.060634830045040666 -2.2192774847827397 -0.04215220983313084 C -2.2260521364261434 -0.03888404005611523 -2.2330583054241067 -0.03611929798230362 -2.2402391319821726 -0.03388042136135494 C -2.3255369117398645 0.00030318791771943854 -2.4256690879771527 -0.04315191916110395 -2.4696079253759633 -0.1342060897266385 C -2.513546762774774 -0.2252602602921731 -2.485474279871533 -0.33066509701731917 -2.4056587770736946 -0.376248617504085 C -2.399481377394563 -0.38048934043663324 -2.3929792447243305 -0.38423642352602944 -2.3862128182102214 -0.38745503658378155 C -2.3496579920754592 -0.4038450210202327 -2.309303683819752 -0.4098800398913697 -2.2695531893733794 -0.40490157679130917 C -2.261211270009097 -0.40406042436321304 -2.252795880040998 -0.40545742362379034 -2.245173181246039 -0.4089487871351996 C -2.241238708464832 -0.4108110981216697 -2.2377975270496773 -0.41357288095887385 -2.2351277149343103 -0.41701095913498126 C -2.2307257690224302 -0.42267060387882815 -2.233515280534355 -0.4369083996304426 -2.2385460758622187 -0.44708286069416714 L -2.3349212799476096 -0.6467667367847604 C -2.365551444233022 -0.7099916061122253 -2.44158704144101 -0.7364814270750083 -2.5048718657030085 -0.7059753279511572 L -3.2304673456833624 -0.355303094648652 C -3.293734311958374 -0.3247183600532311 -3.320234101341658 -0.24864064817351778 -3.2896598125057595 -0.18536863323725317 L -2.948226828315004 0.5211033747596183 C -2.9176494870045615 0.5843508337586654 -2.8415950749169494 0.6108428318947261 -2.7783407399356044 0.5802797172380163 Z" fill="#efca74" transform="matrix(1,0,0,1,0,0)" fill-rule="nonzero"></path></g></g><g><path d=" M 0.2685 1.29225 Q 0.2445 1.2674999999999998 0.2445 1.1985 Q 0.2445 1.152 0.25425000000000003 1.0792499999999998 Q 0.264 1.0065 0.28650000000000003 0.8789999999999999 Q 0.3255 0.6434999999999998 0.34800000000000003 0.47099999999999986 Q 0.3615 0.3629999999999999 0.3615 0.2909999999999999 Q 0.3615 0.2234999999999998 0.312 0.2234999999999998 Q 0.273 0.2234999999999998 0.21825 0.26324999999999976 Q 0.1635 0.30299999999999994 0.0975 0.3899999999999999 Q 0.0765 0.41849999999999987 0.051000000000000004 0.41849999999999987 Q 0.03 0.41849999999999987 0.01425 0.3982499999999999 Q -0.0015 0.3779999999999999 -0.0015 0.3524999999999998 Q -0.0015 0.3284999999999999 0.00825 0.30374999999999996 Q 0.018000000000000002 0.2789999999999999 0.0405 0.24749999999999983 Q 0.1125 0.1469999999999998 0.201 0.09224999999999994 Q 0.2895 0.03749999999999987 0.378 0.03749999999999987 Q 0.4605 0.03749999999999987 0.50475 0.08999999999999986 Q 0.549 0.14249999999999985 0.549 0.24299999999999988 Q 0.549 0.28349999999999986 0.5415 0.33824999999999983 Q 0.534 0.3929999999999999 0.528 0.4274999999999999 Q 0.522 0.46199999999999986 0.519 0.4754999999999999 Q 0.6045 0.23099999999999987 0.711 0.13424999999999976 Q 0.8175 0.03749999999999987 0.9450000000000001 0.03749999999999987 Q 1.0425 0.03749999999999987 1.0987500000000001 0.10649999999999982 Q 1.155 0.17549999999999977 1.155 0.3014999999999999 Q 1.155 0.35099999999999987 1.1415 0.4244999999999999 Q 1.2165 0.2174999999999998 1.317 0.12749999999999995 Q 1.4175 0.03749999999999987 1.548 0.03749999999999987 Q 1.653 0.03749999999999987 1.70925 0.10499999999999976 Q 1.7655 0.17249999999999988 1.7655 0.2939999999999998 Q 1.7655 0.3599999999999999 1.746 0.4544999999999999 L 1.6545 0.8835 Q 1.6395 0.9584999999999999 1.6395 1.0125 Q 1.6395 1.0755 1.66875 1.1069999999999998 Q 1.698 1.1384999999999998 1.7505 1.1384999999999998 Q 1.8 1.1384999999999998 1.84725 1.1055 Q 1.8945 1.0724999999999998 1.959 0.9959999999999999 Q 1.977 0.9749999999999999 1.9995 0.9749999999999999 Q 2.019 0.9749999999999999 2.03025 0.9929999999999999 Q 2.0415 1.011 2.0415 1.0425 Q 2.0415 1.101 2.013 1.1355 Q 1.935 1.23 1.8585 1.2734999999999999 Q 1.782 1.317 1.698 1.317 Q 1.5705 1.317 1.4985 1.24125 Q 1.4265 1.1654999999999998 1.4265 1.0379999999999998 Q 1.4265 0.9494999999999999 1.4625000000000001 0.7814999999999999 L 1.5225 0.5069999999999999 Q 1.5255 0.4934999999999998 1.5330000000000001 0.45899999999999985 Q 1.5405 0.4244999999999999 1.545 0.3937499999999998 Q 1.5495 0.3629999999999999 1.5495 0.33299999999999985 Q 1.5495 0.28049999999999997 1.52925 0.25424999999999986 Q 1.5090000000000001 0.22799999999999976 1.4715 0.22799999999999976 Q 1.401 0.22799999999999976 1.32375 0.31874999999999987 Q 1.2465 0.40949999999999986 1.17675 0.6194999999999998 Q 1.107 0.8294999999999999 1.0635000000000001 1.1654999999999998 Q 1.053 1.2554999999999998 1.02675 1.28625 Q 1.0005 1.317 0.9420000000000001 1.317 Q 0.891 1.317 0.86775 1.293 Q 0.8445 1.269 0.8445 1.2029999999999998 Q 0.8445 1.1415 0.861 1.04175 Q 0.8775000000000001 0.942 0.903 0.8069999999999998 Q 0.972 0.44399999999999984 0.972 0.33899999999999986 Q 0.972 0.2819999999999998 0.95025 0.2549999999999999 Q 0.9285 0.22799999999999976 0.885 0.22799999999999976 Q 0.8115 0.22799999999999976 0.7335 0.3112499999999999 Q 0.6555 0.39449999999999985 0.58125 0.6067499999999999 Q 0.507 0.819 0.4575 1.1804999999999999 Q 0.447 1.257 0.42675 1.287 Q 0.40650000000000003 1.317 0.34800000000000003 1.317 Q 0.2925 1.317 0.2685 1.29225 M 2.619741943359375 0.9929999999999999 Q 2.630991943359375 1.011 2.630991943359375 1.0425 Q 2.630991943359375 1.1024999999999998 2.602491943359375 1.1355 Q 2.546991943359375 1.2029999999999998 2.445741943359375 1.2599999999999998 Q 2.344491943359375 1.317 2.2289919433593752 1.317 Q 2.071491943359375 1.317 1.984491943359375 1.2314999999999998 Q 1.897491943359375 1.146 1.897491943359375 0.9974999999999998 Q 1.897491943359375 0.8939999999999999 1.940991943359375 0.8047499999999999 Q 1.984491943359375 0.7154999999999999 2.061741943359375 0.6629999999999999 Q 2.138991943359375 0.6104999999999998 2.236491943359375 0.6104999999999998 Q 2.3234919433593753 0.6104999999999998 2.375991943359375 0.6622499999999999 Q 2.428491943359375 0.7139999999999999 2.428491943359375 0.8024999999999999 Q 2.428491943359375 0.9059999999999999 2.354241943359375 0.9802499999999998 Q 2.279991943359375 1.0545 2.102991943359375 1.0979999999999999 Q 2.140491943359375 1.1669999999999998 2.245491943359375 1.1669999999999998 Q 2.312991943359375 1.1669999999999998 2.399241943359375 1.1197499999999998 Q 2.485491943359375 1.0724999999999998 2.548491943359375 0.9959999999999999 Q 2.566491943359375 0.9749999999999999 2.588991943359375 0.9749999999999999 Q 2.608491943359375 0.9749999999999999 2.619741943359375 0.9929999999999999 M 2.117241943359375 0.8219999999999998 Q 2.078991943359375 0.8864999999999998 2.078991943359375 0.9779999999999999 L 2.078991943359375 0.9809999999999999 Q 2.167491943359375 0.9599999999999999 2.218491943359375 0.9179999999999999 Q 2.269491943359375 0.8759999999999999 2.269491943359375 0.8204999999999999 Q 2.269491943359375 0.7919999999999999 2.253741943359375 0.7747499999999998 Q 2.237991943359375 0.7574999999999998 2.210991943359375 0.7574999999999998 Q 2.155491943359375 0.7574999999999998 2.117241943359375 0.8219999999999998 M 2.53575 1.257 Q 2.5125 1.1969999999999998 2.5125 1.065 Q 2.5125 0.8699999999999999 2.568 0.6944999999999999 Q 2.5815 0.6509999999999999 2.61225 0.6307499999999999 Q 2.643 0.6104999999999998 2.6985 0.6104999999999998 Q 2.7285 0.6104999999999998 2.7405 0.6179999999999999 Q 2.7525 0.6254999999999998 2.7525 0.6464999999999999 Q 2.7525 0.6704999999999999 2.73 0.7544999999999998 Q 2.715 0.8144999999999999 2.706 0.8594999999999999 Q 2.697 0.9044999999999999 2.691 0.9704999999999999 Q 2.7405 0.8414999999999999 2.802 0.7604999999999998 Q 2.8635 0.6794999999999999 2.92275 0.6449999999999999 Q 2.982 0.6104999999999998 3.0315 0.6104999999999998 Q 3.129 0.6104999999999998 3.129 0.7079999999999999 Q 3.129 0.7664999999999998 3.096 0.9194999999999999 Q 3.0675 1.0499999999999998 3.0675 1.0919999999999999 Q 3.0675 1.152 3.1109999999999998 1.152 Q 3.141 1.152 3.18225 1.1152499999999999 Q 3.2235 1.0784999999999998 3.2925 0.9959999999999999 Q 3.3105 0.9749999999999999 3.333 0.9749999999999999 Q 3.3525 0.9749999999999999 3.36375 0.9929999999999999 Q 3.375 1.011 3.375 1.0425 Q 3.375 1.1024999999999998 3.3465 1.1355 Q 3.282 1.2149999999999999 3.20775 1.2659999999999998 Q 3.1335 1.317 3.039 1.317 Q 2.9625 1.317 2.9234999999999998 1.2727499999999998 Q 2.8845 1.2285 2.8845 1.1444999999999999 Q 2.8845 1.1024999999999998 2.9055 0.9944999999999999 Q 2.925 0.8999999999999999 2.925 0.8639999999999999 Q 2.925 0.8399999999999999 2.9085 0.8399999999999999 Q 2.8890000000000002 0.8399999999999999 2.85375 0.8902499999999999 Q 2.8185000000000002 0.9404999999999999 2.78175 1.023 Q 2.745 1.1055 2.7225 1.1969999999999998 Q 2.706 1.2674999999999998 2.68425 1.29225 Q 2.6625 1.317 2.616 1.317 Q 2.559 1.317 2.53575 1.257 M 3.95320751953125 0.9929999999999999 Q 3.96445751953125 1.011 3.96445751953125 1.0425 Q 3.96445751953125 1.1024999999999998 3.93595751953125 1.1355 Q 3.87145751953125 1.2149999999999999 3.79495751953125 1.2659999999999998 Q 3.71845751953125 1.317 3.61945751953125 1.317 Q 3.31345751953125 1.317 3.31345751953125 0.8864999999999998 Q 3.31345751953125 0.8204999999999999 3.31795751953125 0.7529999999999999 L 3.25945751953125 0.7529999999999999 Q 3.21445751953125 0.7529999999999999 3.19870751953125 0.7364999999999998 Q 3.18295751953125 0.7199999999999999 3.18295751953125 0.6839999999999998 Q 3.18295751953125 0.5999999999999999 3.25045751953125 0.5999999999999999 L 3.33595751953125 0.5999999999999999 Q 3.36145751953125 0.43499999999999983 3.41395751953125 0.29849999999999977 Q 3.46645751953125 0.16199999999999992 3.54070751953125 0.08099999999999996 Q 3.61495751953125 -2.220446049250313e-16 3.70045751953125 -2.220446049250313e-16 Q 3.76345751953125 -2.220446049250313e-16 3.79945751953125 0.05549999999999988 Q 3.83545751953125 0.11099999999999977 3.83545751953125 0.19499999999999984 Q 3.83545751953125 0.4274999999999999 3.64045751953125 0.5999999999999999 L 3.80845751953125 0.5999999999999999 Q 3.83245751953125 0.5999999999999999 3.84295751953125 0.6104999999999998 Q 3.85345751953125 0.6209999999999999 3.85345751953125 0.6494999999999999 Q 3.85345751953125 0.7529999999999999 3.68395751953125 0.7529999999999999 L 3.50095751953125 0.7529999999999999 Q 3.49795751953125 0.8279999999999998 3.49795751953125 0.8699999999999999 Q 3.49795751953125 1.0259999999999998 3.53470751953125 1.089 Q 3.57145751953125 1.152 3.65095751953125 1.152 Q 3.71545751953125 1.152 3.76495751953125 1.113 Q 3.81445751953125 1.0739999999999998 3.88195751953125 0.9959999999999999 Q 3.89995751953125 0.9749999999999999 3.92245751953125 0.9749999999999999 Q 3.94195751953125 0.9749999999999999 3.95320751953125 0.9929999999999999 M 3.6097075195312502 0.20024999999999982 Q 3.58195751953125 0.25649999999999995 3.55720751953125 0.35624999999999984 Q 3.53245751953125 0.45599999999999985 3.5159575195312502 0.5774999999999999 Q 3.60445751953125 0.5009999999999999 3.64870751953125 0.40574999999999983 Q 3.69295751953125 0.3104999999999999 3.69295751953125 0.23249999999999993 Q 3.69295751953125 0.1439999999999999 3.65995751953125 0.1439999999999999 Q 3.63745751953125 0.1439999999999999 3.6097075195312502 0.20024999999999982 M 4.637965576171875 0.8684999999999998 Q 4.648465576171875 0.8879999999999999 4.648465576171875 0.9179999999999999 Q 4.648465576171875 0.9899999999999999 4.604965576171875 1.0034999999999998 Q 4.514965576171875 1.035 4.406965576171875 1.0394999999999999 Q 4.378465576171875 1.1654999999999998 4.294465576171875 1.24125 Q 4.210465576171875 1.317 4.103965576171875 1.317 Q 4.013965576171875 1.317 3.950215576171875 1.2734999999999999 Q 3.886465576171875 1.23 3.853465576171875 1.158 Q 3.820465576171875 1.0859999999999999 3.820465576171875 1.0019999999999998 Q 3.820465576171875 0.8879999999999999 3.863965576171875 0.7987499999999998 Q 3.907465576171875 0.7094999999999999 3.983965576171875 0.6592499999999999 Q 4.060465576171875 0.6089999999999999 4.153465576171875 0.6089999999999999 Q 4.267465576171875 0.6089999999999999 4.337215576171875 0.6877499999999999 Q 4.406965576171875 0.7664999999999998 4.418965576171875 0.8819999999999999 Q 4.489465576171875 0.8775 4.586965576171875 0.8519999999999999 Q 4.598965576171875 0.8489999999999999 4.607965576171875 0.8489999999999999 Q 4.6274655761718755 0.8489999999999999 4.637965576171875 0.8684999999999998 M 4.199215576171875 1.1189999999999998 Q 4.234465576171875 1.0799999999999998 4.246465576171875 1.0065 Q 4.199965576171875 0.9749999999999999 4.175215576171875 0.9239999999999999 Q 4.150465576171875 0.8729999999999999 4.150465576171875 0.8159999999999998 Q 4.150465576171875 0.7919999999999999 4.154965576171875 0.7679999999999999 L 4.147465576171875 0.7679999999999999 Q 4.087465576171875 0.7679999999999999 4.047715576171875 0.8257499999999999 Q 4.007965576171875 0.8835 4.007965576171875 0.9884999999999999 Q 4.007965576171875 1.071 4.0402155761718745 1.1144999999999998 Q 4.072465576171875 1.158 4.115965576171875 1.158 Q 4.163965576171875 1.158 4.199215576171875 1.1189999999999998 M 5.18169873046875 0.8392499999999998 Q 5.20494873046875 0.8624999999999998 5.20494873046875 0.8969999999999998 Q 5.20494873046875 0.9164999999999999 5.19594873046875 0.9389999999999998 Q 5.17194873046875 0.9944999999999999 5.12844873046875 1.0319999999999998 Q 5.08494873046875 1.0695 5.03244873046875 1.0695 Q 4.99044873046875 1.0695 4.96119873046875 1.0394999999999999 Q 4.93194873046875 1.0094999999999998 4.93194873046875 0.9584999999999999 Q 4.93194873046875 0.9299999999999999 4.93494873046875 0.8969999999999998 Q 4.93794873046875 0.8729999999999999 4.93794873046875 0.8639999999999999 Q 4.93794873046875 0.8519999999999999 4.93269873046875 0.8459999999999999 Q 4.92744873046875 0.8399999999999999 4.91994873046875 0.8399999999999999 Q 4.89894873046875 0.8399999999999999 4.86294873046875 0.8902499999999999 Q 4.82694873046875 0.9404999999999999 4.79094873046875 1.023 Q 4.75494873046875 1.1055 4.73244873046875 1.1969999999999998 Q 4.71594873046875 1.269 4.69494873046875 1.293 Q 4.67394873046875 1.317 4.62594873046875 1.317 Q 4.56894873046875 1.317 4.54569873046875 1.257 Q 4.52244873046875 1.1969999999999998 4.52244873046875 1.065 Q 4.52244873046875 0.8699999999999999 4.57794873046875 0.6944999999999999 Q 4.59144873046875 0.6509999999999999 4.62219873046875 0.6307499999999999 Q 4.65294873046875 0.6104999999999998 4.70844873046875 0.6104999999999998 Q 4.73844873046875 0.6104999999999998 4.75044873046875 0.6179999999999999 Q 4.76244873046875 0.6254999999999998 4.76244873046875 0.6464999999999999 Q 4.76244873046875 0.6704999999999999 4.73994873046875 0.7544999999999998 Q 4.72494873046875 0.8144999999999999 4.71594873046875 0.8594999999999999 Q 4.70694873046875 0.9044999999999999 4.70094873046875 0.9704999999999999 Q 4.75044873046875 0.8414999999999999 4.81194873046875 0.7604999999999998 Q 4.87344873046875 0.6794999999999999 4.93194873046875 0.6449999999999999 Q 4.99044873046875 0.6104999999999998 5.03844873046875 0.6104999999999998 Q 5.08194873046875 0.6104999999999998 5.10519873046875 0.6352499999999999 Q 5.12844873046875 0.6599999999999999 5.12844873046875 0.7079999999999999 Q 5.12844873046875 0.7364999999999998 5.11194873046875 0.8159999999999998 L 5.12544873046875 0.8159999999999998 Q 5.15844873046875 0.8159999999999998 5.18169873046875 0.8392499999999998 M 5.95646337890625 1.25175 Q 5.82446337890625 1.1864999999999999 5.75396337890625 1.0665 Q 5.68346337890625 0.9464999999999999 5.68346337890625 0.7874999999999999 Q 5.68346337890625 0.5669999999999998 5.76671337890625 0.3959999999999999 Q 5.84996337890625 0.22499999999999987 5.99246337890625 0.13124999999999987 Q 6.13496337890625 0.03749999999999987 6.30896337890625 0.03749999999999987 Q 6.47096337890625 0.03749999999999987 6.55496337890625 0.12074999999999991 Q 6.63896337890625 0.20399999999999996 6.63896337890625 0.3404999999999999 Q 6.63896337890625 0.43199999999999983 6.6067133789062495 0.4874999999999998 Q 6.57446337890625 0.5429999999999998 6.51446337890625 0.5429999999999998 Q 6.47246337890625 0.5429999999999998 6.44846337890625 0.5234999999999999 Q 6.42446337890625 0.5039999999999999 6.42446337890625 0.4664999999999999 Q 6.42446337890625 0.45299999999999985 6.43046337890625 0.4169999999999998 Q 6.43946337890625 0.3719999999999999 6.43946337890625 0.34499999999999986 Q 6.43946337890625 0.2084999999999999 6.29396337890625 0.2084999999999999 Q 6.19496337890625 0.2084999999999999 6.10496337890625 0.2729999999999999 Q 6.01496337890625 0.3374999999999999 5.95946337890625 0.4627499999999999 Q 5.90396337890625 0.5879999999999999 5.90396337890625 0.7604999999999998 Q 5.90396337890625 0.9404999999999999 6.00446337890625 1.0387499999999998 Q 6.10496337890625 1.1369999999999998 6.30146337890625 1.1369999999999998 Q 6.39896337890625 1.1369999999999998 6.49871337890625 1.11225 Q 6.59846337890625 1.0875 6.71996337890625 1.0364999999999998 Q 6.74246337890625 1.0274999999999999 6.75746337890625 1.0274999999999999 Q 6.78146337890625 1.0274999999999999 6.7934633789062495 1.0454999999999999 Q 6.80546337890625 1.0635 6.80546337890625 1.0919999999999999 Q 6.80546337890625 1.1835 6.70646337890625 1.2269999999999999 Q 6.59996337890625 1.2734999999999999 6.48521337890625 1.2952499999999998 Q 6.37046337890625 1.317 6.26696337890625 1.317 Q 6.08846337890625 1.317 5.95646337890625 1.25175 M 7.468409912109375 0.8684999999999998 Q 7.478909912109375 0.8879999999999999 7.478909912109375 0.9179999999999999 Q 7.478909912109375 0.9899999999999999 7.435409912109375 1.0034999999999998 Q 7.345409912109375 1.035 7.237409912109375 1.0394999999999999 Q 7.208909912109375 1.1654999999999998 7.124909912109375 1.24125 Q 7.040909912109375 1.317 6.934409912109375 1.317 Q 6.844409912109375 1.317 6.780659912109375 1.2734999999999999 Q 6.716909912109375 1.23 6.683909912109375 1.158 Q 6.650909912109375 1.0859999999999999 6.650909912109375 1.0019999999999998 Q 6.650909912109375 0.8879999999999999 6.694409912109375 0.7987499999999998 Q 6.737909912109375 0.7094999999999999 6.814409912109375 0.6592499999999999 Q 6.890909912109375 0.6089999999999999 6.983909912109375 0.6089999999999999 Q 7.097909912109375 0.6089999999999999 7.167659912109375 0.6877499999999999 Q 7.237409912109375 0.7664999999999998 7.249409912109375 0.8819999999999999 Q 7.319909912109375 0.8775 7.417409912109375 0.8519999999999999 Q 7.429409912109375 0.8489999999999999 7.438409912109375 0.8489999999999999 Q 7.4579099121093755 0.8489999999999999 7.468409912109375 0.8684999999999998 M 7.029659912109375 1.1189999999999998 Q 7.064909912109375 1.0799999999999998 7.076909912109375 1.0065 Q 7.030409912109375 0.9749999999999999 7.005659912109375 0.9239999999999999 Q 6.980909912109375 0.8729999999999999 6.980909912109375 0.8159999999999998 Q 6.980909912109375 0.7919999999999999 6.985409912109375 0.7679999999999999 L 6.977909912109375 0.7679999999999999 Q 6.917909912109375 0.7679999999999999 6.878159912109375 0.8257499999999999 Q 6.838409912109375 0.8835 6.838409912109375 0.9884999999999999 Q 6.838409912109375 1.071 6.8706599121093745 1.1144999999999998 Q 6.902909912109375 1.158 6.946409912109375 1.158 Q 6.994409912109375 1.158 7.029659912109375 1.1189999999999998 M 7.37614306640625 1.257 Q 7.35289306640625 1.1969999999999998 7.35289306640625 1.065 Q 7.35289306640625 0.8699999999999999 7.40839306640625 0.6944999999999999 Q 7.42189306640625 0.6509999999999999 7.45264306640625 0.6307499999999999 Q 7.48339306640625 0.6104999999999998 7.53889306640625 0.6104999999999998 Q 7.56889306640625 0.6104999999999998 7.58089306640625 0.6179999999999999 Q 7.59289306640625 0.6254999999999998 7.59289306640625 0.6464999999999999 Q 7.59289306640625 0.6704999999999999 7.57039306640625 0.7544999999999998 Q 7.55539306640625 0.8144999999999999 7.54639306640625 0.8594999999999999 Q 7.53739306640625 0.9044999999999999 7.53139306640625 0.9704999999999999 Q 7.58089306640625 0.8414999999999999 7.64239306640625 0.7604999999999998 Q 7.70389306640625 0.6794999999999999 7.76314306640625 0.6449999999999999 Q 7.82239306640625 0.6104999999999998 7.87189306640625 0.6104999999999998 Q 7.96939306640625 0.6104999999999998 7.96939306640625 0.7079999999999999 Q 7.96939306640625 0.7664999999999998 7.93639306640625 0.9194999999999999 Q 7.90789306640625 1.0499999999999998 7.90789306640625 1.0919999999999999 Q 7.90789306640625 1.152 7.95139306640625 1.152 Q 7.98139306640625 1.152 8.02264306640625 1.1152499999999999 Q 8.06389306640625 1.0784999999999998 8.13289306640625 0.9959999999999999 Q 8.15089306640625 0.9749999999999999 8.17339306640625 0.9749999999999999 Q 8.19289306640625 0.9749999999999999 8.20414306640625 0.9929999999999999 Q 8.21539306640625 1.011 8.21539306640625 1.0425 Q 8.21539306640625 1.1024999999999998 8.18689306640625 1.1355 Q 8.12239306640625 1.2149999999999999 8.04814306640625 1.2659999999999998 Q 7.97389306640625 1.317 7.87939306640625 1.317 Q 7.80289306640625 1.317 7.76389306640625 1.2727499999999998 Q 7.72489306640625 1.2285 7.72489306640625 1.1444999999999999 Q 7.72489306640625 1.1024999999999998 7.74589306640625 0.9944999999999999 Q 7.76539306640625 0.8999999999999999 7.76539306640625 0.8639999999999999 Q 7.76539306640625 0.8399999999999999 7.74889306640625 0.8399999999999999 Q 7.72939306640625 0.8399999999999999 7.69414306640625 0.8902499999999999 Q 7.65889306640625 0.9404999999999999 7.62214306640625 1.023 Q 7.58539306640625 1.1055 7.56289306640625 1.1969999999999998 Q 7.54639306640625 1.2674999999999998 7.52464306640625 1.29225 Q 7.50289306640625 1.317 7.45639306640625 1.317 Q 7.39939306640625 1.317 7.37614306640625 1.257 M 8.1201005859375 1.257 Q 8.0968505859375 1.1969999999999998 8.0968505859375 1.065 Q 8.0968505859375 0.8699999999999999 8.1523505859375 0.6944999999999999 Q 8.1658505859375 0.6509999999999999 8.1966005859375 0.6307499999999999 Q 8.2273505859375 0.6104999999999998 8.2828505859375 0.6104999999999998 Q 8.3128505859375 0.6104999999999998 8.3248505859375 0.6179999999999999 Q 8.3368505859375 0.6254999999999998 8.3368505859375 0.6464999999999999 Q 8.3368505859375 0.6704999999999999 8.3143505859375 0.7544999999999998 Q 8.2993505859375 0.8144999999999999 8.2903505859375 0.8594999999999999 Q 8.2813505859375 0.9044999999999999 8.2753505859375 0.9704999999999999 Q 8.3248505859375 0.8414999999999999 8.3863505859375 0.7604999999999998 Q 8.4478505859375 0.6794999999999999 8.5071005859375 0.6449999999999999 Q 8.5663505859375 0.6104999999999998 8.6158505859375 0.6104999999999998 Q 8.7133505859375 0.6104999999999998 8.7133505859375 0.7079999999999999 Q 8.7133505859375 0.7664999999999998 8.6803505859375 0.9194999999999999 Q 8.6518505859375 1.0499999999999998 8.6518505859375 1.0919999999999999 Q 8.6518505859375 1.152 8.6953505859375 1.152 Q 8.7253505859375 1.152 8.7666005859375 1.1152499999999999 Q 8.8078505859375 1.0784999999999998 8.8768505859375 0.9959999999999999 Q 8.8948505859375 0.9749999999999999 8.9173505859375 0.9749999999999999 Q 8.9368505859375 0.9749999999999999 8.9481005859375 0.9929999999999999 Q 8.9593505859375 1.011 8.9593505859375 1.0425 Q 8.9593505859375 1.1024999999999998 8.9308505859375 1.1355 Q 8.8663505859375 1.2149999999999999 8.7921005859375 1.2659999999999998 Q 8.7178505859375 1.317 8.6233505859375 1.317 Q 8.5468505859375 1.317 8.5078505859375 1.2727499999999998 Q 8.4688505859375 1.2285 8.4688505859375 1.1444999999999999 Q 8.4688505859375 1.1024999999999998 8.4898505859375 0.9944999999999999 Q 8.5093505859375 0.8999999999999999 8.5093505859375 0.8639999999999999 Q 8.5093505859375 0.8399999999999999 8.4928505859375 0.8399999999999999 Q 8.4733505859375 0.8399999999999999 8.4381005859375 0.8902499999999999 Q 8.4028505859375 0.9404999999999999 8.3661005859375 1.023 Q 8.3293505859375 1.1055 8.3068505859375 1.1969999999999998 Q 8.2903505859375 1.2674999999999998 8.2686005859375 1.29225 Q 8.2468505859375 1.317 8.2003505859375 1.317 Q 8.1433505859375 1.317 8.1201005859375 1.257 M 9.53755810546875 0.9929999999999999 Q 9.54880810546875 1.011 9.54880810546875 1.0425 Q 9.54880810546875 1.1024999999999998 9.52030810546875 1.1355 Q 9.46480810546875 1.2029999999999998 9.36355810546875 1.2599999999999998 Q 9.26230810546875 1.317 9.14680810546875 1.317 Q 8.98930810546875 1.317 8.90230810546875 1.2314999999999998 Q 8.81530810546875 1.146 8.81530810546875 0.9974999999999998 Q 8.81530810546875 0.8939999999999999 8.85880810546875 0.8047499999999999 Q 8.90230810546875 0.7154999999999999 8.97955810546875 0.6629999999999999 Q 9.05680810546875 0.6104999999999998 9.15430810546875 0.6104999999999998 Q 9.24130810546875 0.6104999999999998 9.29380810546875 0.6622499999999999 Q 9.34630810546875 0.7139999999999999 9.34630810546875 0.8024999999999999 Q 9.34630810546875 0.9059999999999999 9.27205810546875 0.9802499999999998 Q 9.19780810546875 1.0545 9.02080810546875 1.0979999999999999 Q 9.05830810546875 1.1669999999999998 9.16330810546875 1.1669999999999998 Q 9.23080810546875 1.1669999999999998 9.31705810546875 1.1197499999999998 Q 9.40330810546875 1.0724999999999998 9.46630810546875 0.9959999999999999 Q 9.48430810546875 0.9749999999999999 9.50680810546875 0.9749999999999999 Q 9.52630810546875 0.9749999999999999 9.53755810546875 0.9929999999999999 M 9.03505810546875 0.8219999999999998 Q 8.99680810546875 0.8864999999999998 8.99680810546875 0.9779999999999999 L 8.99680810546875 0.9809999999999999 Q 9.08530810546875 0.9599999999999999 9.13630810546875 0.9179999999999999 Q 9.18730810546875 0.8759999999999999 9.18730810546875 0.8204999999999999 Q 9.18730810546875 0.7919999999999999 9.17155810546875 0.7747499999999998 Q 9.15580810546875 0.7574999999999998 9.12880810546875 0.7574999999999998 Q 9.07330810546875 0.7574999999999998 9.03505810546875 0.8219999999999998 M 9.485066162109375 1.23375 Q 9.403316162109375 1.1504999999999999 9.403316162109375 1.0139999999999998 Q 9.403316162109375 0.8924999999999998 9.451316162109375 0.8009999999999998 Q 9.499316162109375 0.7094999999999999 9.575816162109374 0.6599999999999999 Q 9.652316162109376 0.6104999999999998 9.736316162109375 0.6104999999999998 Q 9.818816162109375 0.6104999999999998 9.864566162109375 0.6592499999999999 Q 9.910316162109375 0.7079999999999999 9.910316162109375 0.7844999999999999 Q 9.910316162109375 0.8474999999999999 9.882566162109375 0.8909999999999999 Q 9.854816162109374 0.9344999999999999 9.809816162109374 0.9344999999999999 Q 9.781316162109375 0.9344999999999999 9.764066162109375 0.9209999999999998 Q 9.746816162109376 0.9074999999999999 9.746816162109376 0.8835 Q 9.746816162109376 0.8729999999999999 9.749816162109376 0.8594999999999999 Q 9.752816162109376 0.8459999999999999 9.754316162109376 0.8399999999999999 Q 9.761816162109374 0.8174999999999999 9.761816162109374 0.7979999999999998 Q 9.761816162109374 0.7784999999999999 9.752066162109376 0.7679999999999999 Q 9.742316162109375 0.7574999999999998 9.724316162109375 0.7574999999999998 Q 9.689816162109375 0.7574999999999998 9.659816162109376 0.7882499999999999 Q 9.629816162109375 0.819 9.611816162109376 0.8714999999999999 Q 9.593816162109375 0.9239999999999999 9.593816162109375 0.9869999999999999 Q 9.593816162109375 1.1609999999999998 9.745316162109376 1.1609999999999998 Q 9.806816162109374 1.1609999999999998 9.878066162109375 1.1197499999999998 Q 9.949316162109374 1.0784999999999998 10.018316162109375 0.9959999999999999 Q 10.036316162109376 0.9749999999999999 10.058816162109375 0.9749999999999999 Q 10.078316162109376 0.9749999999999999 10.089566162109374 0.9929999999999999 Q 10.100816162109375 1.011 10.100816162109375 1.0425 Q 10.100816162109375 1.0995 10.072316162109376 1.1355 Q 10.001816162109375 1.2225 9.903566162109374 1.26975 Q 9.805316162109374 1.317 9.713816162109374 1.317 Q 9.566816162109374 1.317 9.485066162109375 1.23375 M 10.234294921875 0.7529999999999999 Q 10.231294921875 0.8279999999999998 10.231294921875 0.8699999999999999 Q 10.231294921875 0.9779999999999999 10.242544921875 1.0387499999999998 Q 10.253794921875 1.0995 10.280044921875 1.1257499999999998 Q 10.306294921875 1.152 10.352794921875 1.152 Q 10.376794921875 1.152 10.409794921875 1.1369999999999998 Q 10.442794921875 1.1219999999999999 10.469794921875 1.0979999999999999 Q 10.486294921875 1.083 10.502794921875 1.083 Q 10.520794921875 1.083 10.532044921875 1.1032499999999998 Q 10.543294921875 1.1235 10.543294921875 1.152 Q 10.543294921875 1.1804999999999999 10.532044921875 1.2074999999999998 Q 10.520794921875 1.2345 10.498294921875 1.2525 Q 10.420294921875 1.317 10.321294921875 1.317 Q 10.178794921875 1.317 10.112794921875 1.1977499999999999 Q 10.046794921875 1.0784999999999998 10.046794921875 0.8864999999999998 Q 10.046794921875 0.8204999999999999 10.051294921875 0.7529999999999999 L 9.992794921875 0.7529999999999999 Q 9.947794921875 0.7529999999999999 9.932044921875 0.7364999999999998 Q 9.916294921875 0.7199999999999999 9.916294921875 0.6839999999999998 Q 9.916294921875 0.5999999999999999 9.983794921875 0.5999999999999999 L 10.069294921875 0.5999999999999999 Q 10.094794921875 0.43499999999999983 10.147294921875 0.29849999999999977 Q 10.199794921875 0.16199999999999992 10.274044921875 0.08099999999999996 Q 10.348294921875 -2.220446049250313e-16 10.433794921875 -2.220446049250313e-16 Q 10.496794921875 -2.220446049250313e-16 10.532794921875 0.05549999999999988 Q 10.568794921875 0.11099999999999977 10.568794921875 0.19499999999999984 Q 10.568794921875 0.4274999999999999 10.373794921875 0.5999999999999999 L 10.541794921875 0.5999999999999999 Q 10.565794921875 0.5999999999999999 10.576294921875 0.6104999999999998 Q 10.586794921875 0.6209999999999999 10.586794921875 0.6494999999999999 Q 10.586794921875 0.7529999999999999 10.417294921875 0.7529999999999999 L 10.234294921875 0.7529999999999999 M 10.343044921875 0.20024999999999982 Q 10.315294921875 0.25649999999999995 10.290544921875 0.35624999999999984 Q 10.265794921875 0.45599999999999985 10.249294921875 0.5774999999999999 Q 10.337794921875 0.5009999999999999 10.382044921875 0.40574999999999983 Q 10.426294921875 0.3104999999999999 10.426294921875 0.23249999999999993 Q 10.426294921875 0.1439999999999999 10.393294921875 0.1439999999999999 Q 10.370794921875 0.1439999999999999 10.343044921875 0.20024999999999982" fill="#3f170e" fill-rule="nonzero"></path></g><g></g></g><defs><clipPath id="SvgjsClipPath22201"><path d=" M -3.302381919921415 -0.7186651866788134 h 2.902381919921415 v 2.7468303733576267 h -2.902381919921415 Z"></path></clipPath><clipPath id="SvgjsClipPath22199dd794e10-c456-43d9-a2a5-a7e1f75d06b6"><path d=" M -3.302381919921415 -0.7186651866788136 L -0.3999999999999999 -0.7186651866788136 L -0.3999999999999999 2.0281651866788137 L -3.302381919921415 2.0281651866788137 Z"></path></clipPath></defs></svg>