<svg xmlns="http://www.w3.org/2000/svg" viewBox="0 0 3000 3000" width="3000" height="3000"><g transform="translate(2653.2 613.1999999999999) rotate(-3.818134724702189 -233.39999999999986 277.2) scale(-0.9608318976429973 0.9625367635569414)"><svg width="485.829" height="575.978" viewBox="0 0 485.829 575.978"><linearGradient id="a" gradientUnits="userSpaceOnUse" x1="7.232" x2="450.669" y1="534.185" y2="485.01"><stop offset="0" stop-color="#3658c1"/><stop offset=".111" stop-color="#3454b8"/><stop offset=".291" stop-color="#2f4ba0"/><stop offset=".517" stop-color="#273b7a"/><stop offset=".778" stop-color="#1c2644"/><stop offset="1" stop-color="#111"/></linearGradient><path d="M129.796 3.147c51.938-6.277 106.036 1.332 156.071 21.191l-90.044 247.288L43.856 27.9c27.16-13.01 56.196-21.158 85.94-24.753z" fill="#3658c1"/><g fill="#111"><path d="M195.822 272.626a1 1 0 0 1-.849-.471L43.007 28.43a1.001 1.001 0 0 1 .417-1.432C70.14 14.202 99.16 5.843 129.676 2.155l.12.993-.12-.993c51.656-6.245 105.796 1.106 156.56 21.254a1 1 0 0 1 .57 1.272l-90.045 247.288a1 1 0 0 1-.939.657zM45.298 28.322l150.287 241.034 89.01-244.445C234.402 5.156 180.937-2.025 129.917 4.14c-29.915 3.616-58.38 11.751-84.619 24.182z"/><path d="m195.822 271.626-17.524 32.665L26.332 60.565 43.856 27.9z"/><path d="M178.298 305.292a.999.999 0 0 1-.849-.471L25.483 61.095a1 1 0 0 1-.032-1.002l17.524-32.665c.168-.314.492-.515.849-.527a.967.967 0 0 1 .881.47l151.966 243.726a1 1 0 0 1 .032 1.002l-17.524 32.665a1.001 1.001 0 0 1-.849.527l-.032.001zM27.487 60.528l150.745 241.77 16.435-30.633L43.922 29.895z"/></g><path d="M285.867 24.338c52.687 20.927 100.885 55.441 137.262 101.748 74.673 95.106 80.183 215.234 24.027 302.565L195.822 271.626z" fill="#b0c3ff"/><path d="M447.155 429.651a.996.996 0 0 1-.529-.152L195.292 272.475a1 1 0 0 1-.409-1.19l90.045-247.288a.997.997 0 0 1 1.308-.587c54.683 21.72 102.291 57.011 137.679 102.059 36.245 46.163 57.438 99.673 61.285 154.747 3.758 53.768-9.107 105.284-37.203 148.978a1.002 1.002 0 0 1-.842.457zM197.039 271.208 446.848 427.28c27.489-43.149 40.061-93.932 36.357-146.925-3.82-54.672-24.866-107.804-60.862-153.65-34.964-44.509-81.935-79.435-135.889-101.056z" fill="#111"/><path d="m456.48 412.807-17.525 32.665a232.562 232.562 0 0 1-9.324 15.844l17.525-32.665a232.976 232.976 0 0 0 9.324-15.844" fill="#fff"/><path d="M429.63 462.316a.999.999 0 0 1-.88-1.472l17.525-32.665a235.29 235.29 0 0 0 9.318-15.835l.005-.009a1 1 0 1 1 1.762.945l-.021.039-17.504 32.625a234.409 234.409 0 0 1-9.364 15.913.995.995 0 0 1-.841.459z" fill="#111"/><path d="m195.822 271.626 251.333 157.025c-17.855 27.71-41.886 52.191-71.921 71.457-34.203 21.88-73.127 35.135-113.701 40.038-32.348 3.91-65.744 2.511-98.632-4.057z" fill="#3658c1"/><path d="M225.196 543.324c-20.723 0-41.626-2.087-62.49-6.254a1 1 0 0 1-.796-1.104l32.92-264.462a.997.997 0 0 1 1.522-.724l251.334 157.025a.998.998 0 0 1 .31 1.39c-18.534 28.763-42.833 52.905-72.222 71.757-33.76 21.596-72.155 35.118-114.121 40.189a304.192 304.192 0 0 1-36.457 2.183zm-61.187-8.035c32.667 6.428 65.433 7.728 97.404 3.864 41.665-5.035 79.778-18.456 113.282-39.888 28.855-18.509 52.761-42.158 71.068-70.305L196.621 273.305z" fill="#111"/><path d="m195.822 271.626-32.92 264.463c-51.359-10.232-101.462-33.08-144.378-68.054z" fill="#b0c3ff"/><path d="M162.902 537.089a.984.984 0 0 1-.195-.019c-52.866-10.532-102.942-34.136-144.814-68.259a.998.998 0 0 1-.11-1.445L195.08 270.957a1 1 0 0 1 1.734.794l-32.92 264.462a1.001 1.001 0 0 1-.992.876zm-142.93-69.166c41.174 33.334 90.256 56.471 142.07 66.973l32.395-260.244z" fill="#111"/><path d="M375.234 500.108c-34.203 21.88-73.127 35.135-113.7 40.038-32.349 3.909-65.744 2.511-98.632-4.057-51.359-10.232-101.461-33.08-144.377-68.054L1 500.7c42.916 34.974 93.019 57.821 144.377 68.054 32.888 6.568 66.284 7.967 98.632 4.057 40.574-4.904 79.498-18.158 113.701-40.038 30.034-19.265 54.066-43.746 71.921-71.457l17.524-32.665c-17.854 27.711-41.886 52.192-71.921 71.457z" fill="url(#a)"/><path d="M207.672 575.989c-20.723 0-41.627-2.088-62.49-6.254C92.316 559.202 42.24 535.598.368 501.476a1 1 0 0 1-.249-1.248l17.524-32.665a1.003 1.003 0 0 1 1.513-.303c41.62 33.918 91.395 57.379 143.941 67.848 32.97 6.584 66.049 7.944 98.316 4.045 41.666-5.036 79.779-18.456 113.281-39.888 29.146-18.695 53.243-42.636 71.619-71.156a1 1 0 0 1 1.722 1.014l-17.524 32.665c-18.572 28.831-42.871 52.974-72.262 71.826-33.759 21.596-72.154 35.117-114.12 40.189a303.78 303.78 0 0 1-36.457 2.186zM2.271 500.445c41.49 33.637 91.024 56.913 143.302 67.328 32.968 6.584 66.047 7.944 98.316 4.045 41.665-5.035 79.779-18.456 113.281-39.888 29.146-18.696 53.243-42.636 71.619-71.156l9.365-17.459c-17.013 22.613-37.937 41.955-62.381 57.634h-.001c-33.758 21.596-72.153 35.117-114.119 40.188-32.478 3.926-65.771 2.556-98.948-4.069-52.469-10.453-102.192-33.785-143.872-67.495zm372.963-.337h.01z" fill="#111"/></svg></g><g transform="translate(2541.6 2018.3999999999999) rotate(26.133065637403124 -271.79999999999995 249.60000000000002) scale(-1.198933399205563 1.2018837216021265)"><svg width="453.403" height="415.348" viewBox="0 0 453.403 415.348"><path d="m360.04 1 81.155 354.355-337.951 42.148L22.089 43.147z" fill="#111"/><path d="M103.243 398.503a1 1 0 0 1-.974-.776L21.115 43.371a1.001 1.001 0 0 1 .85-1.216L359.915.008a1 1 0 0 1 1.099.769l81.155 354.355a1.001 1.001 0 0 1-.85 1.216l-337.951 42.147a1.063 1.063 0 0 1-.125.008zm-79.932-354.5 80.706 352.396L439.973 354.5 359.266 2.104z" fill="#111"/><path d="m441.195 355.355-21.089 16.846-337.951 42.147 21.089-16.845z" fill="#3658c1"/><path d="M82.155 415.348a1.001 1.001 0 0 1-.624-1.781l21.089-16.846c.144-.115.317-.188.5-.211l337.951-42.147a1 1 0 0 1 .748 1.774l-21.089 16.846a1.001 1.001 0 0 1-.5.211L82.279 415.341a1.307 1.307 0 0 1-.124.007zm21.492-16.888-18.099 14.458 334.154-41.674 18.099-14.458z" fill="#111"/><path d="m103.244 397.503-21.089 16.845L1 59.993l21.089-16.846z" fill="#b0c3ff"/><path d="M82.155 415.348a1 1 0 0 1-.975-.777L.025 60.217a1 1 0 0 1 .351-1.005l21.09-16.846a1 1 0 0 1 1.599.558l81.154 354.355a1 1 0 0 1-.351 1.005L82.779 415.13c-.18.143-.4.218-.624.218zM2.115 60.383l80.659 352.191 19.354-15.461L21.47 44.922z" fill="#111"/><path d="M22.089 43.147 360.04 1c42.597 177.899 62.029 259.05 92.363 340.329l-337.951 42.147c-30.334-81.279-49.766-162.43-92.363-340.329" fill="#fff"/><path d="M114.451 384.476a1 1 0 0 1-.936-.65c-30.358-81.343-49.8-162.54-92.398-340.446a1 1 0 0 1 .848-1.225L359.915.008a1.01 1.01 0 0 1 1.097.76c42.58 177.826 62.014 258.987 92.327 340.212a1.002 1.002 0 0 1-.812 1.342l-337.951 42.147a1.309 1.309 0 0 1-.125.007zM23.322 44.002c42.271 176.536 61.695 257.567 91.791 338.385l335.911-41.894c-30.053-80.809-49.503-161.96-91.749-338.39z" fill="#111"/></svg></g><g transform="translate(146.4 420.0) rotate(-4.102955256557773 1161.0 969.5999999999999) scale(1.2004665379000004 1.1993713690905818)"><svg width="1934.248" height="1616.847" viewBox="0 0 1934.248 1616.847"><linearGradient id="b" gradientUnits="userSpaceOnUse" x1="1440.273" x2="1383.236" y1="282.732" y2="1269.07"><stop offset="0" stop-color="#b0c3ff"/><stop offset=".265" stop-color="#6581d9"/><stop offset=".447" stop-color="#3658c1"/><stop offset=".489" stop-color="#3250ae"/><stop offset=".618" stop-color="#263a76"/><stop offset=".739" stop-color="#1d284b"/><stop offset=".847" stop-color="#161c2b"/><stop offset=".937" stop-color="#121418"/><stop offset="1" stop-color="#111"/></linearGradient><linearGradient id="c" gradientUnits="userSpaceOnUse" x1="1" x2="1586.015" y1="1318.393" y2="1318.393"><stop offset="0" stop-color="#b0c3ff"/><stop offset=".035" stop-color="#a7bbfa"/><stop offset=".354" stop-color="#5674d1"/><stop offset=".5" stop-color="#3658c1"/><stop offset=".605" stop-color="#2d4797"/><stop offset=".795" stop-color="#1e2a4f"/><stop offset=".931" stop-color="#151822"/><stop offset="1" stop-color="#111"/></linearGradient><g><path d="M1878.165 521.987c33.482 18.929 47.531 68.121 31.348 109.888l-272.999 704.611c-16.182 41.767-56.452 60.25-89.934 41.321L638.189 864.25c-33.481-18.929-47.531-68.121-31.348-109.888L879.84 49.751c16.182-41.767 56.452-60.25 89.934-41.321z" fill="#b0c3ff"/><path d="M1574.249 1386.22c-9.69 0-19.3-2.534-28.16-7.542L637.697 865.12c-33.853-19.138-48.113-68.986-31.789-111.12L878.907 49.39c8.655-22.337 24.679-39.102 43.966-45.996 15.812-5.653 32.643-4.173 47.393 4.165l908.392 513.557c33.853 19.139 48.113 68.987 31.789 111.12l-272.999 704.611c-8.655 22.337-24.679 39.102-43.965 45.996-6.315 2.257-12.793 3.377-19.234 3.377zM942.101 2.019c-6.216 0-12.463 1.08-18.555 3.258-18.739 6.698-34.329 23.04-42.774 44.835L607.774 754.723c-15.98 41.244-2.115 89.987 30.908 108.656l908.392 513.557c14.235 8.049 30.478 9.478 45.735 4.023 18.739-6.698 34.329-23.04 42.773-44.835l272.999-704.611c15.98-41.244 2.115-89.987-30.908-108.656L969.281 9.3c-8.551-4.834-17.829-7.281-27.18-7.281z" fill="#111"/><path d="M1860.203 547.815 964.874 41.643c-24.486-13.843-53.897-.31-65.715 30.194l-265.904 686.3c-11.818 30.503-1.57 66.429 22.915 80.272l895.328 506.172c24.466 13.832 53.869.322 65.687-30.181l265.905-686.3c11.819-30.503 1.579-66.453-22.887-80.285" fill="#fff"/><g fill="#111"><path d="M1571.712 1350.997c-7.124 0-14.19-1.863-20.705-5.546L655.679 839.279c-24.848-14.048-35.325-50.61-23.355-81.504l265.904-686.3c6.353-16.397 18.121-28.705 32.287-33.769 11.626-4.156 24.003-3.067 34.853 3.067l895.328 506.171c24.837 14.042 35.302 50.61 23.328 81.517L1618.12 1314.76c-6.351 16.391-18.113 28.694-32.272 33.755-4.641 1.659-9.402 2.482-14.136 2.482zM944.648 37.227c-4.51 0-9.042.783-13.461 2.363-13.618 4.868-24.952 16.753-31.095 32.609l-265.904 686.3c-11.625 30.005-1.543 65.462 22.475 79.04l895.328 506.172c10.331 5.84 22.115 6.878 33.183 2.922 13.611-4.865 24.94-16.746 31.08-32.594l265.904-686.299c11.63-30.017 1.561-65.48-22.447-79.053L964.382 42.514c-6.209-3.511-12.946-5.287-19.734-5.287z"/><path d="M1404.253 316.083c-5.654-3.196-12.451-.072-15.182 6.977s-.371 15.378 5.282 18.575c5.654 3.196 12.48.06 15.211-6.989s.343-15.367-5.311-18.563"/><path d="M1399.019 343.884c-1.777 0-3.537-.463-5.158-1.38-6.06-3.426-8.626-12.311-5.723-19.807 1.548-3.996 4.435-7.003 7.918-8.248 2.901-1.037 5.986-.766 8.688.762 6.07 3.432 8.65 12.312 5.751 19.794-1.549 3.997-4.441 7.006-7.937 8.255a10.43 10.43 0 0 1-3.539.624zm.561-28.051c-.955 0-1.915.166-2.85.5-2.937 1.05-5.388 3.633-6.727 7.087-2.56 6.606-.388 14.386 4.842 17.343 2.189 1.238 4.689 1.456 7.042.615 2.947-1.053 5.406-3.639 6.744-7.095 2.555-6.594.37-14.368-4.871-17.331a8.474 8.474 0 0 0-4.18-1.119z"/></g><path d="M1878.166 521.987c33.482 18.929 47.53 68.121 31.348 109.888l-272.999 704.611c-12.351 31.879-38.735 50.194-65.423 48.662l17.014.977c26.688 1.532 53.072-16.783 65.423-48.662l272.999-704.611c16.182-41.767 2.133-90.959-31.349-109.888L986.788 9.406c-7.926-4.481-16.233-6.865-24.51-7.341l-17.015-.977c8.278.475 16.584 2.86 24.51 7.341z" fill="url(#b)"/><path d="M1591.313 1387.217c-1.085 0-2.172-.031-3.264-.094l-17.015-.977a1 1 0 0 1-.941-1.056 1.01 1.01 0 0 1 1.056-.941c27.228 1.569 52.524-17.289 64.433-48.025l272.999-704.611c15.98-41.244 2.115-89.987-30.907-108.656L969.281 9.3c-7.616-4.306-15.717-6.733-24.075-7.213a1 1 0 1 1 .115-1.997l17.014.977c8.667.497 17.059 3.01 24.945 7.468l908.392 513.558c33.853 19.138 48.113 68.986 31.789 111.119l-272.999 704.611c-11.755 30.337-36.296 49.393-63.149 49.394zm-5.245-2.211 2.095.12c27.25 1.574 52.524-17.288 64.434-48.025l272.999-704.611c15.98-41.244 2.115-89.987-30.908-108.656L986.295 10.277c-7.617-4.306-15.717-6.733-24.075-7.213l-2.268-.13a59.808 59.808 0 0 1 10.313 4.625l908.393 513.557c33.853 19.139 48.112 68.987 31.788 111.12l-272.999 704.611c-10.009 25.834-29.291 43.488-51.379 48.159z" fill="#111"/></g><g><path d="M1559.314 1377.703c33.501 18.939 36.229 41.834 6.097 51.155l-508.33 157.242c-30.132 9.321-81.684 1.528-115.185-17.411L33.524 1055.142c-33.501-18.939-36.229-41.834-6.097-51.155l508.33-157.242c30.132-9.321 81.684-1.528 115.185 17.411z" fill="#b0c3ff"/><path d="M1026.92 1591.013c-28.153.001-61.509-7.883-85.515-21.454L33.032 1056.013c-18.612-10.522-28.614-22.802-27.441-33.69.907-8.424 8.557-15.275 21.541-19.292l508.33-157.242c30.303-9.374 82.328-1.525 115.972 17.496l908.373 513.546c18.612 10.522 28.614 22.802 27.441 33.69-.907 8.424-8.557 15.275-21.541 19.292l-508.33 157.242c-8.682 2.686-19.153 3.958-30.457 3.958zM565.989 843.812c-11.119 0-21.404 1.25-29.937 3.889l-508.33 157.242c-12.173 3.765-19.327 10.014-20.143 17.594-1.083 10.057 8.553 21.624 26.437 31.735l908.373 513.546c33.231 18.787 84.55 26.558 114.397 17.327l508.331-157.242c12.173-3.766 19.327-10.014 20.143-17.595 1.083-10.057-8.553-21.624-26.438-31.734L650.449 865.027c-23.73-13.416-56.687-21.215-84.46-21.215z" fill="#111"/><path d="m1442.8 1356.306-777.025-439.29c-10.313-5.831-26.203-8.233-35.48-5.363l-266.843 82.543c-9.276 2.87-8.419 9.921 1.895 15.752l777.026 439.29c10.313 5.831 26.168 8.227 35.444 5.358l266.843-82.543c9.276-2.87 8.453-9.916-1.86-15.747" fill="#fff"/><path d="M1168.558 1456.793c-8.794 0-19.198-2.455-26.679-6.684L364.853 1010.82c-5.988-3.386-9.198-7.416-8.805-11.058.311-2.883 2.835-5.199 7.107-6.52l266.843-82.543c9.491-2.936 25.761-.492 36.268 5.448l777.025 439.289c5.975 3.378 9.177 7.402 8.786 11.04-.311 2.888-2.841 5.208-7.124 6.533l-266.843 82.543c-2.724.841-6.008 1.241-9.552 1.241zM639.631 911.435c-3.359 0-6.466.377-9.042 1.174l-266.843 82.542c-3.463 1.071-5.49 2.784-5.71 4.824-.298 2.77 2.618 6.172 7.801 9.103l777.026 439.289c10.082 5.701 25.629 8.066 34.656 5.272l266.843-82.542c3.473-1.075 5.506-2.792 5.727-4.837.298-2.765-2.611-6.161-7.782-9.084L665.282 917.887c-7.215-4.079-17.227-6.452-25.651-6.452z" fill="#111"/><path d="m870.111 1314.625-276.676-156.418c-11.918-6.738-30.275-9.512-41.012-6.191l-154.372 47.752c-10.719 3.316-9.747 11.469 2.17 18.206l276.676 156.418c11.919 6.738 30.276 9.513 40.996 6.197l154.372-47.752c10.736-3.321 9.765-11.474-2.154-18.212" fill="#fff"/><path d="M707.18 1382.975c-10.142 0-22.144-2.833-30.775-7.713l-276.676-156.418c-6.856-3.876-10.532-8.476-10.086-12.621.352-3.27 3.233-5.902 8.113-7.412l154.372-47.751c10.941-3.385 29.692-.569 41.8 6.275l276.676 156.418c6.855 3.875 10.531 8.475 10.084 12.618-.353 3.273-3.239 5.909-8.128 7.421l-154.372 47.751c-3.138.972-6.923 1.432-11.008 1.432zm-143.956-231.368c-3.903 0-7.511.438-10.505 1.365l-154.372 47.752c-4.069 1.258-6.454 3.288-6.715 5.715-.352 3.265 3.043 7.251 9.082 10.665l276.676 156.418c11.694 6.611 29.731 9.354 40.208 6.113l154.372-47.752c4.078-1.261 6.468-3.294 6.73-5.724.352-3.264-3.043-7.25-9.08-10.663l-276.676-156.418c-8.355-4.724-19.955-7.471-29.72-7.471z" fill="#111"/><path d="m1565.412 1428.858-508.33 157.242c-30.132 9.321-81.684 1.528-115.185-17.411L33.524 1055.142c-19.862-11.229-28.907-23.848-26.701-34.204l-5.498 25.81c-2.206 10.356 6.839 22.975 26.701 34.204l908.373 513.547c33.5 18.94 85.052 26.732 115.185 17.411l508.33-157.242c12.267-3.795 19.088-9.839 20.603-16.951l5.498-25.809c-1.515 7.111-8.336 13.155-20.603 16.95z" fill="url(#c)"/><path d="M1021.42 1616.823c-28.152 0-61.511-7.884-85.514-21.454L27.534 1081.823C7.85 1070.695-2.059 1057.835.347 1046.54l5.498-25.81a1 1 0 0 1 1.956.417c-2.179 10.23 7.621 22.613 26.215 33.125l908.373 513.546c33.23 18.787 84.548 26.559 114.397 17.326l508.33-157.242c11.534-3.567 18.422-9.17 19.92-16.204a1 1 0 1 1 1.957.416 1.24 1.24 0 0 1-.014.065l-5.484 25.745c-1.658 7.783-9.019 13.903-21.286 17.698l-508.33 157.242c-8.684 2.687-19.151 3.959-30.459 3.959zM6.151 1028.891l-3.848 18.065c-2.179 10.23 7.621 22.613 26.215 33.125l908.373 513.546c33.23 18.787 84.548 26.559 114.397 17.326l508.331-157.241c11.534-3.568 18.422-9.171 19.92-16.205l3.857-18.104c-3.589 4.362-9.562 7.896-17.688 10.41l-.295-.955.295.955-508.33 157.242c-30.302 9.374-82.327 1.525-115.972-17.496L33.032 1056.013c-15.068-8.519-24.408-18.052-26.881-27.122z" fill="#111"/></g></svg></g><g transform="translate(961.1999999999999 673.1999999999999) rotate(0.0 660.0 538.2) scale(1.200186574458393 1.2003158021508447)"><svg width="1099.829" height="896.764" viewBox="0 0 1099.829 896.764"><path d="m127.828 332.925-42.251-20.188-16.151 52.057 42.252 20.188z" fill="#3658c1"/><path d="M111.678 385.982a.987.987 0 0 1-.431-.098l-42.251-20.188a1 1 0 0 1-.524-1.198l16.15-52.057a1 1 0 0 1 1.386-.606l42.251 20.188a1 1 0 0 1 .524 1.198l-16.15 52.057a1 1 0 0 1-.955.704zm-41.04-21.718 40.428 19.316 15.551-50.126-40.428-19.316z" fill="#111"/><path d="m93.615 443.206-42.252-20.188-16.15 52.057 42.251 20.188z" fill="#b0c3ff"/><path d="M77.465 496.263a.987.987 0 0 1-.431-.098l-42.251-20.188a1 1 0 0 1-.524-1.198l16.15-52.057a1 1 0 0 1 1.386-.606l42.251 20.188a1 1 0 0 1 .524 1.198L78.42 495.56a1 1 0 0 1-.955.703zm-41.041-21.718 40.428 19.316 15.551-50.127-40.428-19.315z" fill="#111"/><path d="M59.401 553.487 17.15 533.299 1 585.354l42.251 20.188z" fill="#fff"/><path d="M43.252 606.542a.987.987 0 0 1-.431-.098L.569 586.257a1 1 0 0 1-.524-1.198l16.15-52.057a1 1 0 0 1 1.386-.606l42.252 20.188a1 1 0 0 1 .524 1.198l-16.15 52.056a1 1 0 0 1-.955.704zM2.211 584.826l40.428 19.315 15.551-50.125L17.762 534.7z" fill="#111"/><path d="M394.59 12.666c-33.485-15.999-68.842-14.976-99.841-.391l14.673 47.046c21.92-10.301 46.91-11.014 70.599.304 23.668 11.309 41.821 32.636 52.515 58.52l36.307-22.688C453.73 58.84 428.055 28.655 394.59 12.666" fill="#fff"/><path d="M432.536 119.146a1.002 1.002 0 0 1-.924-.618c-11.002-26.63-29.477-47.228-52.022-58-22.505-10.753-47.274-10.86-69.742-.301a1.001 1.001 0 0 1-1.38-.607l-14.673-47.046a1 1 0 0 1 .529-1.203c32.45-15.269 68.212-15.129 100.698.393 32.42 15.491 58.966 45.079 74.746 83.313a.999.999 0 0 1-.394 1.229l-36.307 22.688c-.162.1-.345.152-.531.152zm-88.17-68.765c12.221 0 24.447 2.781 36.087 8.342 22.682 10.838 41.309 31.39 52.552 57.951l34.59-21.615c-15.629-37.398-41.683-66.319-73.436-81.491-31.671-15.132-66.508-15.393-98.195-.756l14.073 45.124c11.089-5.037 22.705-7.555 34.329-7.555z" fill="#111"/><path d="M294.749 12.275c-35.519 16.709-65.3 51.249-79.96 98.501-21.324 68.734-4.393 144.099 37.858 190.437l27.017-37.569c-29.878-32.753-41.854-86.071-26.779-134.665 10.363-33.404 31.418-57.835 56.537-69.657z" fill="#b0c3ff"/><path d="M252.648 302.213c-.28 0-.549-.118-.739-.326-21.147-23.192-36.02-53.377-43.01-87.292-7.146-34.67-5.44-70.672 4.936-104.115 14.139-45.574 43.476-81.698 80.489-99.109a1.001 1.001 0 0 1 1.38.607l14.673 47.046a1 1 0 0 1-.529 1.203c-25.738 12.113-46.152 37.281-56.007 69.048-14.48 46.676-3.806 100.403 26.562 133.695a1 1 0 0 1 .073 1.258l-27.016 37.569a1.003 1.003 0 0 1-.812.416zm41.49-288.539c-36.019 17.357-64.553 52.786-78.393 97.398-10.276 33.122-11.966 68.78-4.887 103.12 6.827 33.118 21.236 62.629 41.701 85.433l25.822-35.908c-30.412-33.841-41.047-87.984-26.45-135.033 9.921-31.98 30.406-57.401 56.279-69.891z" fill="#111"/><path d="m468.844 95.459-36.307 22.688c12.245 29.675 14.661 65.321 4.298 98.725-19.418 62.589-76.342 93.651-127.123 69.388-11.36-5.428-21.45-13.188-30.047-22.615l-27.017 37.569c12.174 13.348 26.432 24.304 42.502 31.982 71.838 34.325 152.322-9.614 179.781-98.121 14.659-47.254 11.232-97.661-6.087-139.616" fill="#3658c1"/><path d="M345.559 345.827c-17.239 0-34.486-3.915-50.84-11.729-15.795-7.547-30.198-18.384-42.809-32.21a1 1 0 0 1-.073-1.258l27.016-37.569a1.003 1.003 0 0 1 1.551-.09c8.768 9.614 18.773 17.146 29.739 22.386 21.707 10.372 45.691 10.826 67.536 1.274 26.811-11.721 48.025-37.255 58.201-70.056 9.871-31.817 8.315-67.554-4.267-98.047a.999.999 0 0 1 .394-1.229l36.307-22.688a1.002 1.002 0 0 1 1.454.466c18.011 43.634 20.241 94.769 6.118 140.293-14.6 47.06-45.085 83.716-83.641 100.57-15.087 6.595-30.884 9.887-46.686 9.887zm-91.624-44.69c12.305 13.35 26.313 23.829 41.646 31.155 30.814 14.723 64.858 15.368 95.863 1.814 38.023-16.621 68.105-52.825 82.532-99.329 13.87-44.707 11.817-94.874-5.608-137.843l-34.586 21.612c12.463 30.745 13.931 66.637 4.009 98.619-10.348 33.356-31.966 59.344-59.31 71.297-22.385 9.786-46.961 9.322-69.199-1.303-10.852-5.186-20.779-12.562-29.52-21.938z" fill="#111"/><path d="M937.867 291.368 727.201 190.711c-2.948-1.409-6.25.373-7.377 4.006l-7.02 22.627c-1.127 3.632.352 7.728 3.3 9.136L926.77 327.138c2.948 1.409 6.258-.398 7.385-4.031l7.02-22.627c1.126-3.633-.36-7.703-3.308-9.112" fill="#3658c1"/><path d="M928.837 328.616a5.776 5.776 0 0 1-2.499-.576L715.672 227.382c-3.376-1.612-5.092-6.249-3.824-10.335l7.02-22.626c.679-2.189 2.119-3.904 3.95-4.704 1.556-.681 3.266-.647 4.814.092l210.666 100.657c3.376 1.612 5.095 6.237 3.832 10.31l-7.02 22.627c-.682 2.198-2.129 3.92-3.969 4.725a5.753 5.753 0 0 1-2.304.488zM725.121 191.227c-.506 0-1.011.107-1.502.322-1.298.567-2.334 1.83-2.841 3.464l-7.02 22.626c-.985 3.176.26 6.737 2.776 7.938L927.2 326.234c1.023.488 2.109.51 3.138.061 1.308-.572 2.351-1.842 2.86-3.484l7.02-22.627c.981-3.162-.268-6.712-2.784-7.913L726.769 191.614a3.792 3.792 0 0 0-1.648-.387z" fill="#111"/><path d="m1071.152 355.053-98.396-47.014c-2.948-1.409-6.231.383-7.358 4.015l-7.02 22.627c-1.127 3.632.333 7.718 3.281 9.127l98.396 47.014c2.949 1.409 6.259-.398 7.386-4.03l7.02-22.627c1.127-3.632-.359-7.703-3.309-9.112" fill="#3658c1"/><g fill="#111"><path d="M1062.123 392.301a5.776 5.776 0 0 1-2.499-.576l-98.396-47.015c-3.365-1.608-5.072-6.24-3.805-10.325l7.02-22.627c.681-2.196 2.121-3.915 3.95-4.715 1.549-.677 3.251-.644 4.794.093l98.397 47.015c3.377 1.613 5.096 6.239 3.833 10.311l-7.02 22.627c-.682 2.198-2.129 3.92-3.969 4.725a5.77 5.77 0 0 1-2.305.487zm-91.438-83.745c-.502 0-1.003.106-1.491.32-1.297.566-2.332 1.833-2.841 3.474l-7.02 22.627c-.985 3.175.252 6.731 2.757 7.929l98.396 47.015c1.024.489 2.11.512 3.14.06 1.308-.571 2.35-1.841 2.86-3.483l7.02-22.627c.981-3.162-.269-6.712-2.785-7.914l-98.396-47.015a3.78 3.78 0 0 0-1.64-.386zm128.143 157.001a.985.985 0 0 1-.43-.098l-451.333-215.65a1 1 0 0 1 .862-1.805l451.333 215.65a1 1 0 0 1-.432 1.903zm-21.066 67.905a.985.985 0 0 1-.43-.098L625.999 317.715a1 1 0 0 1 .862-1.805l451.333 215.649a1 1 0 0 1-.432 1.903zM705.975 433.79a.985.985 0 0 1-.43-.098l-100.613-48.073a1 1 0 0 1 .862-1.805l100.613 48.073a1 1 0 0 1-.432 1.903zm350.72 167.577a.985.985 0 0 1-.43-.098L749.518 454.703a1 1 0 0 1 .862-1.805l306.746 146.565a1 1 0 0 1-.431 1.904zm-21.059 67.879a.985.985 0 0 1-.43-.098l-451.332-215.65a1 1 0 0 1 .862-1.805l451.332 215.65a1 1 0 0 1-.432 1.903zm-153.125 4.806a.985.985 0 0 1-.43-.098L562.807 521.403a1 1 0 0 1 .862-1.805L882.943 672.15a1 1 0 0 1-.432 1.902zm132.059 63.099a.985.985 0 0 1-.43-.098l-96.813-46.258a1 1 0 0 1 .862-1.805l96.813 46.258a1 1 0 0 1-.432 1.903zm-19.343 62.345a.985.985 0 0 1-.43-.098L543.465 583.749a1 1 0 0 1 .862-1.805l451.332 215.649a1 1 0 0 1-.432 1.903zM682.95 728.258a.985.985 0 0 1-.43-.098l-160.121-76.507a1 1 0 0 1 .862-1.805l160.121 76.507a1 1 0 0 1-.432 1.903zm291.211 139.143a.985.985 0 0 1-.43-.098L719.25 745.71a1 1 0 0 1 .862-1.805l254.481 121.593a1 1 0 0 1-.432 1.903zm-101.73 29.363a.985.985 0 0 1-.43-.098l-370.67-177.108a1 1 0 0 1 .862-1.805l370.669 177.108a1 1 0 0 1-.431 1.903zM263.207 428.511a.985.985 0 0 1-.43-.098l-92.836-44.357a1 1 0 0 1 .862-1.805l92.836 44.357a1 1 0 0 1-.432 1.903zm191.468 91.485a.985.985 0 0 1-.43-.098l-153.55-73.367a1 1 0 0 1 .862-1.805l153.55 73.367a1 1 0 0 1-.432 1.903zM328.379 586.28a.985.985 0 0 1-.43-.098l-192.221-91.845a1 1 0 0 1 .862-1.805l192.221 91.845a1 1 0 0 1-.432 1.903zm-62.493 96.768a.985.985 0 0 1-.43-.098l-163.941-78.332a1 1 0 0 1 .862-1.805l163.941 78.332a1 1 0 0 1-.432 1.903zm113.061 54.022a.985.985 0 0 1-.43-.098l-75.143-35.904a1 1 0 0 1 .862-1.805l75.143 35.904a1 1 0 0 1-.432 1.903z"/></g></svg></g><g transform="translate(2474.4 1861.1999999999998) rotate(-4.940743033847041 -297.0000000000001 229.79999999999995) scale(-1.2023488309485404 1.2019677121554082)"><svg width="494.033" height="382.373" viewBox="0 0 494.033 382.373"><g><path d="M1 94.547 327.081 1c73.928 163.134 107.682 237.617 165.952 286.826l-326.081 93.547C108.682 332.164 74.928 257.681 1 94.547" fill="#fff"/><path d="M166.952 382.374c-.233 0-.463-.082-.646-.236C107.863 332.781 74.089 258.254.089 94.961a1.001 1.001 0 0 1 .636-1.374L326.806.039c.472-.134.98.097 1.187.548 73.876 163.02 107.591 237.414 165.687 286.476a1 1 0 0 1-.37 1.725l-326.081 93.548a1.057 1.057 0 0 1-.277.038zM2.389 95.189c73.372 161.908 107.074 236.112 164.802 285.076l323.774-92.887c-57.481-49.282-91.286-123.76-164.438-285.18z" fill="#111"/></g><g fill="#111"><path d="M147.155 214.566a1 1 0 0 1-.078-1.997c7.017-.557 21.095-4.647 29.351-16.448a35.495 35.495 0 0 0 4.125-7.839 116.71 116.71 0 0 1-13.145-8.038c-12.987-9.201-29.187-24.836-32.607-47.066-2.64-17.156.701-28.456 8.937-30.226 11.552-2.488 29.054 14.853 38.305 48.177 3.916 14.107 4.236 26.225.977 36.18 3.982 2.019 8.027 3.779 11.982 5.204 7.809 2.811 14.657 4.079 18.308 3.394 15.869-2.977 18.186-11.707 23.261-30.835.362-1.365.737-2.779 1.132-4.243 1.189-4.415 3.188-7.138 6.112-8.324 6.238-2.532 15.139 2.761 24.561 8.368 7.611 4.529 15.481 9.212 21.732 9.506 10.086.485 13.448-3.121 18.551-8.563.643-.685 1.309-1.396 2.016-2.127a1 1 0 0 1 1.437 1.391c-.698.723-1.358 1.427-1.994 2.104-5.285 5.639-9.1 9.7-20.104 9.193-6.75-.317-14.839-5.13-22.661-9.785-8.587-5.108-17.467-10.389-22.786-8.234-2.305.936-3.918 3.223-4.933 6.991a1005.79 1005.79 0 0 0-1.13 4.236c-4.976 18.75-7.716 29.079-24.825 32.287-5.91 1.108-18.289-2.101-31.333-8.668a37.42 37.42 0 0 1-4.278 8.064c-8.682 12.411-23.465 16.711-30.831 17.296l-.082.002zm-1.124-109.853c-.644 0-1.269.064-1.873.194-2.653.57-11.026 4.272-7.381 27.966 3.314 21.539 19.115 36.762 31.787 45.739a115.464 115.464 0 0 0 12.651 7.763c3.027-9.521 2.665-21.145-1.102-34.711-8.303-29.918-23.616-46.951-34.082-46.951zm29.558 183.422c-1.351 0-2.79-.201-4.352-.613a1 1 0 0 1-.712-1.222 1.007 1.007 0 0 1 1.222-.712c9.531 2.51 13.95-4.034 23.629-18.386l.636-.942c8.848-13.109 19.38-7.679 28.674-2.885 5.871 3.028 11.417 5.893 16.601 4.845 6.329-1.273 12.798-5.984 19.053-10.54 7.81-5.688 15.186-11.06 21.776-9.313 4.421 1.172 9.062 4.347 12.699 8.269 10.827-13.522 27.366-28.947 35.406-29.434 8.212-.498 13.195 2.282 17.6 4.734 5.459 3.037 9.404 5.233 17.442-.247a1 1 0 1 1 1.127 1.653c-9.058 6.177-13.916 3.476-19.542.342-4.166-2.318-8.894-4.956-16.506-4.485-6.238.378-23.148 14.802-34.299 28.838 2.611 3.146 4.539 6.649 5.226 9.938.938 4.5-.371 8.312-3.788 11.021-3.404 2.7-7.373 3.049-10.113.888-2.709-2.136-3.333-5.937-1.592-9.683 1.52-3.268 4.293-7.471 7.778-11.964-3.421-3.758-7.837-6.845-11.95-7.935-5.669-1.506-12.673 3.598-20.087 8.996-6.43 4.683-13.077 9.524-19.836 10.885-5.869 1.177-11.991-1.975-17.912-5.028-9.384-4.839-18.246-9.409-26.099 2.227l-.636.942c-8.494 12.592-13.364 19.811-21.445 19.811zm119.188-28.474c-3.041 3.981-5.562 7.886-7.188 11.382-1.337 2.874-.938 5.728 1.016 7.269 1.581 1.247 4.414 1.667 7.633-.884 2.823-2.239 3.857-5.283 3.072-9.046-.592-2.842-2.264-5.914-4.533-8.721z"/></g></svg></g><g transform="translate(2835.6 643.1999999999999) rotate(-3.502495501027828 -147.5999999999999 229.2) scale(-0.9586594355860092 0.9615727504043262)"><svg width="307.93" height="476.719" viewBox="0 0 307.93 476.719"><path d="M135.667 1 306.93 231.576 146.173 441.738c-19.815-13.604-37.958-29.27-54.007-46.587C-16.115 278.224-8.255 108.181 109.564 18.466c8.284-6.31 17.019-12.124 26.103-17.466z" fill="#fff"/><g fill="#111"><path d="M146.172 442.738a.991.991 0 0 1-.565-.176c-19.821-13.609-38.048-29.332-54.174-46.731-27.829-30.051-48.529-63.977-61.528-100.835-12.55-35.585-17.315-72.051-14.165-108.383 5.863-67.635 38.97-127.633 93.219-168.942C117.073 11.489 125.89 5.59 135.161.138a1 1 0 0 1 1.31.266L307.732 230.98a.998.998 0 0 1-.009 1.204L146.967 442.346a.996.996 0 0 1-.795.392zM135.4 2.319c-8.92 5.284-17.405 10.982-25.23 16.943-53.795 40.963-86.624 100.457-92.439 167.523-3.126 36.047 1.604 72.231 14.059 107.546 12.907 36.599 33.468 70.292 61.109 100.141 15.813 17.062 33.659 32.502 53.058 45.903l159.721-208.808z"/><path d="m306.93 231.576-14.814 33.98L131.36 475.719l14.813-33.981z"/><path d="M131.358 476.719a.998.998 0 0 1-.916-1.399l14.813-33.98a.95.95 0 0 1 .123-.208l160.757-210.163a1 1 0 0 1 1.711 1.007l-14.813 33.98a.95.95 0 0 1-.123.208L132.153 476.326a.997.997 0 0 1-.795.393zm15.683-34.469-11.477 26.326 155.684-203.531 11.477-26.326z"/></g><path d="m146.173 441.738-14.813 33.981c-19.815-13.604-37.958-29.27-54.007-46.587-77.298-83.471-95.41-194.009-56.586-283.069l14.813-33.981c-38.824 89.061-20.712 199.599 56.586 283.069 16.049 17.317 34.192 32.983 54.007 46.587" fill="#3658c1"/><path d="M131.359 476.719c-.2 0-.397-.06-.566-.176-19.822-13.61-38.049-29.333-54.174-46.731-37.465-40.457-62.393-88.844-72.088-139.932-9.435-49.716-4.138-99.585 15.319-144.217l14.812-33.98a1 1 0 0 1 1.834.799C17.202 156.744 11.95 206.208 21.31 255.527c9.625 50.718 34.381 98.764 71.59 138.945 16.025 17.291 34.14 32.917 53.84 46.442a1 1 0 0 1 .351 1.224l-14.813 33.98a1 1 0 0 1-.919.601zM24.238 140.603l-2.554 5.859C2.389 190.724-2.863 240.189 6.496 289.508c9.625 50.718 34.381 98.765 71.59 138.946 15.754 16.997 33.527 32.386 52.842 45.753l13.999-32.112c-19.559-13.501-37.554-29.063-53.494-46.263C53.968 355.374 29.04 306.987 19.345 255.9c-7.444-39.22-5.719-78.533 4.893-115.297z" fill="#111"/></svg></g><g transform="translate(378.0 830.4) rotate(0.0 297.59999999999997 298.2) scale(1.225061901439324 1.2246834078396986)"><svg width="485.853" height="486.983" viewBox="0 0 485.853 486.983"><linearGradient id="d" gradientUnits="userSpaceOnUse" x1="158.462" x2="316.556" y1="28.503" y2="439.338"><stop offset="0" stop-color="#3658c1"/><stop offset=".15" stop-color="#3556bd"/><stop offset=".301" stop-color="#3351b1"/><stop offset=".453" stop-color="#2e499d"/><stop offset=".605" stop-color="#283e80"/><stop offset=".757" stop-color="#212f5c"/><stop offset=".908" stop-color="#171d30"/><stop offset="1" stop-color="#111"/></linearGradient><g><path d="m241.737 1 132.436 62.806-72.805 22.971c-12.432 3.923-26.458-2.712-31.306-14.851z" fill="#b0c3ff"/><path d="M294.029 88.899c-10.588 0-20.846-6.464-24.896-16.603L240.809 1.371a1 1 0 0 1 1.357-1.275l132.436 62.807a1 1 0 0 1-.128 1.858l-72.805 22.971a25.39 25.39 0 0 1-7.64 1.167zM243.611 2.995l27.38 68.56c4.646 11.635 18.138 18.041 30.076 14.269l70.377-22.204z" fill="#111"/><path d="m460.61 380.149-266.867 84.199c-19.569 6.174-41.608-4.282-49.224-23.351L13.133 112.009c-3.833-9.597-3.283-19.548.704-27.853l-9.534 19.861c-3.986 8.305-4.537 18.255-.704 27.852l131.386 328.988c7.616 19.07 29.655 29.526 49.224 23.351l266.867-84.199c9.721-3.067 17.005-9.661 20.94-17.859l9.534-19.861c-3.936 8.198-11.219 14.793-20.94 17.86z" fill="url(#d)"/><path d="M172.663 486.974c-16.419 0-32.328-10.024-38.607-25.746L2.67 132.241c-3.814-9.552-3.554-19.729.731-28.656l9.534-19.86a1 1 0 1 1 1.803.865c-4.041 8.418-4.281 18.023-.677 27.048l131.386 328.987c7.414 18.564 28.943 28.779 47.994 22.769l266.867-84.198.301.954-.301-.954c9.112-2.875 16.324-9.013 20.314-17.285l.026-.053a1 1 0 1 1 1.803.865l-9.534 19.86c-4.226 8.803-11.876 15.331-21.541 18.381l-266.868 84.199a39.346 39.346 0 0 1-11.845 1.811zM9.713 95.059l-4.508 9.391c-4.04 8.418-4.281 18.023-.677 27.049l131.386 328.987c7.414 18.565 28.944 28.782 47.994 22.769l266.867-84.199c9.132-2.881 16.356-9.039 20.339-17.338l4.513-9.401c-4.011 3.976-9.013 6.987-14.717 8.787l-266.867 84.198c-20.026 6.313-42.659-4.42-50.453-23.935L12.204 112.38c-2.27-5.684-3.097-11.589-2.491-17.321z" fill="#111"/><path d="m241.737 1 28.325 70.926c4.848 12.14 18.873 18.774 31.306 14.851l72.805-22.971 108.081 270.631c7.616 19.07-2.076 39.537-21.644 45.711l-266.868 84.199c-19.569 6.174-41.608-4.282-49.224-23.351L13.133 112.009c-7.616-19.07 2.074-39.536 21.643-45.71z" fill="#fff"/><g fill="#111"><path d="M182.196 467.113c-16.419 0-32.328-10.024-38.606-25.746L12.204 112.38c-3.79-9.489-3.556-19.611.658-28.503 4.21-8.881 11.885-15.463 21.613-18.532L241.437.046a1.002 1.002 0 0 1 1.229.583l28.325 70.926c4.646 11.635 18.139 18.041 30.076 14.269l72.805-22.971c.5-.157 1.036.098 1.23.583l108.081 270.632c3.789 9.488 3.556 19.61-.658 28.501-4.21 8.883-11.886 15.465-21.614 18.535l-266.868 84.198a39.364 39.364 0 0 1-11.847 1.811zm58.957-464.88L35.077 67.253c-9.191 2.899-16.438 9.107-20.407 17.481-3.973 8.382-4.189 17.937-.608 26.903l131.386 328.987c7.414 18.564 28.944 28.78 47.994 22.769l266.868-84.198c9.191-2.9 16.439-9.109 20.408-17.483 3.973-8.383 4.189-17.937.608-26.902L373.589 65.04l-71.92 22.691c-12.914 4.072-27.509-2.85-32.535-15.435z"/><path d="M305.37 382.646c-1.633 0-3.387-.362-5.25-1.086-22.922-8.912-59.534-71.308-80.311-124.007-24.566-62.314-35.533-121.617-26.077-141.009 1.72-3.528 4.092-5.762 7.049-6.637 25.171-7.439 67.341 70.271 89.55 124.328 7.729 18.812 18.827 52.085 24.929 80.682 8.212 38.482 6.32 60.947-5.625 66.771-1.308.64-2.733.958-4.265.958zm-104.021-270.82c-2.397.709-4.354 2.592-5.819 5.595-9.233 18.934 1.76 77.559 26.14 139.398 23.644 59.974 59.161 115.096 79.175 122.877 3.07 1.192 5.734 1.26 7.915.196 10.857-5.294 12.428-27.617 4.545-64.558-6.077-28.476-17.128-61.606-24.824-80.339-26.451-64.382-65.981-129.452-87.132-123.169z"/><path d="M171.012 354.908c-3.653.001-6.883-.872-9.512-2.855-2.867-2.163-4.564-5.524-5.042-9.991-2.308-21.544 23.785-68.115 64.928-115.888 42.907-49.819 93.344-88.202 117.323-89.282 4.436-.198 7.909.881 10.315 3.214 8.516 8.253 5.25 26.881-9.445 53.869-12.14 22.296-31.963 49.933-54.387 75.825-14.404 16.633-39.769 41.66-63.964 60.078-16.048 12.216-36.22 25.029-50.216 25.03zm168.717-216.04c-.304 0-.614.007-.93.021-23.487 1.058-73.312 39.143-115.897 88.589-40.168 46.64-66.673 93.67-64.456 114.37.417 3.895 1.85 6.791 4.259 8.608 2.223 1.677 5.056 2.51 8.465 2.51 10.796.002 27.391-8.347 48.848-24.681 24.081-18.331 49.326-43.24 63.663-59.795 44.205-51.044 80.367-111.04 63.951-126.95-1.831-1.775-4.488-2.672-7.903-2.672z"/><path d="m347.216 292.005-.902-.002c-28.863-.086-66.705-4.38-101.226-11.485-60.614-12.475-142.248-41.852-137.867-64.562.605-3.135 2.642-5.884 6.055-8.17 18.406-12.325 79.196-11.217 147.83 2.696 70.543 14.302 128.048 37.407 139.841 56.187 2.035 3.241 2.696 6.338 1.966 9.206l-.969-.247.969.247c-3.384 13.29-31.942 16.13-55.697 16.13zm-184.665-90.827c-22.741 0-39.896 2.733-48.162 8.269-2.953 1.979-4.705 4.295-5.204 6.887-1.784 9.249 13.891 21.395 44.137 34.198 25.682 10.872 61 21.611 92.17 28.026 70.978 14.609 150.392 16.817 155.484-3.179.59-2.316.01-4.89-1.722-7.648-11.341-18.061-69.608-41.313-138.545-55.289-36.855-7.472-71.379-11.264-98.158-11.264z"/></g><path d="M133.343 236.219c-1.543.487-2.814 1.367-3.745 2.49a7.6 7.6 0 0 0-1.342 2.397c-.581 1.704-.565 3.637.184 5.513 1.727 4.325 6.736 6.701 11.174 5.301 1.667-.526 3.018-1.505 3.967-2.749a7.599 7.599 0 0 0 1.245-2.454c.48-1.622.426-3.428-.274-5.181-1.739-4.35-6.747-6.724-11.209-5.317" fill="#3658c1"/><path d="M137.001 253.319c-4.036 0-7.947-2.464-9.491-6.329-.806-2.019-.878-4.223-.202-6.206a8.561 8.561 0 0 1 1.519-2.713c1.085-1.308 2.542-2.277 4.214-2.805v-.001c4.936-1.558 10.515 1.089 12.437 5.899.764 1.913.869 3.931.304 5.836a8.56 8.56 0 0 1-1.407 2.775c-1.111 1.457-2.654 2.527-4.462 3.098a9.664 9.664 0 0 1-2.912.446zm-3.357-16.146c-1.305.413-2.438 1.164-3.277 2.175a6.57 6.57 0 0 0-1.165 2.081c-.53 1.555-.472 3.222.166 4.819 1.536 3.848 5.997 5.963 9.944 4.718 1.413-.445 2.614-1.275 3.472-2.401.49-.644.854-1.36 1.08-2.13.436-1.472.352-3.037-.244-4.527-1.54-3.861-6.017-5.985-9.976-4.735z" fill="#111"/><path d="M315.01 330.904c-4.438 1.4-6.639 6.051-4.912 10.376 1.231 3.082 4.104 5.171 7.253 5.63a8.88 8.88 0 0 0 3.929-.305c4.439-1.401 6.641-6.05 4.904-10.4-1.269-3.176-4.308-5.299-7.59-5.649a8.814 8.814 0 0 0-3.584.348" fill="#3658c1"/><path d="M318.652 348.005c-.48 0-.962-.035-1.444-.105-3.631-.528-6.71-2.923-8.038-6.248-.94-2.354-.88-4.872.171-7.088 1.049-2.213 2.956-3.852 5.369-4.613a9.782 9.782 0 0 1 3.991-.389c3.749.4 7.051 2.862 8.413 6.272.946 2.368.887 4.896-.166 7.115-1.048 2.211-2.954 3.848-5.366 4.609a9.482 9.482 0 0 1-1.119.277 9.727 9.727 0 0 1-1.811.17zm-3.341-16.147c-1.877.592-3.355 1.857-4.164 3.562-.809 1.708-.852 3.657-.12 5.489 1.064 2.665 3.543 4.585 6.469 5.012a7.926 7.926 0 0 0 3.483-.271c1.876-.591 3.354-1.854 4.161-3.558.812-1.712.853-3.671.115-5.517-1.09-2.73-3.747-4.703-6.768-5.026a7.837 7.837 0 0 0-2.649.165c-.172.043-.35.087-.527.144z" fill="#111"/><path d="M310.153 139.051c-4.438 1.4-6.639 6.05-4.902 10.399.038.095.08.188.12.282.398.902.94 1.713 1.592 2.418 2.338 2.531 6.065 3.672 9.46 2.601 4.463-1.408 6.665-6.058 4.938-10.383l-.024-.055a8.85 8.85 0 0 0-1.511-2.456c-2.329-2.686-6.169-3.912-9.673-2.806" fill="#3658c1"/><path d="M313.777 156.155a10.32 10.32 0 0 1-7.549-3.327 9.769 9.769 0 0 1-1.772-2.693l-.134-.313c-.946-2.368-.887-4.896.166-7.116 1.048-2.21 2.953-3.847 5.365-4.608 3.772-1.188 8.085.058 10.729 3.104a9.827 9.827 0 0 1 1.682 2.733c.966 2.414.905 4.929-.144 7.142-1.052 2.218-2.968 3.861-5.395 4.628a9.867 9.867 0 0 1-2.948.45zm-3.323-16.15c-1.875.591-3.352 1.854-4.159 3.557-.812 1.713-.853 3.672-.115 5.518l.073.173a7.886 7.886 0 0 0 1.444 2.219c2.133 2.308 5.519 3.244 8.425 2.325 1.891-.597 3.379-1.866 4.19-3.577.808-1.704.851-3.65.12-5.48a7.945 7.945 0 0 0-1.362-2.227c-2.128-2.456-5.59-3.464-8.616-2.508z" fill="#111"/><path d="M246.896 225.471c-11.574 3.652-17.296 15.736-12.791 27.015 4.495 11.255 17.517 17.451 29.091 13.799 11.549-3.644 17.285-15.759 12.79-27.013-4.504-11.279-17.541-17.445-29.09-13.801" fill="#3658c1"/><path d="M256.377 268.329c-9.867 0-19.428-6.024-23.201-15.472-2.284-5.72-2.144-11.818.395-17.175 2.536-5.35 7.161-9.315 13.025-11.165 12.034-3.795 25.636 2.656 30.32 14.384 2.279 5.708 2.135 11.805-.407 17.168-2.54 5.357-7.16 9.324-13.011 11.171a23.685 23.685 0 0 1-7.121 1.089zm-2.639-42.905c-2.188 0-4.391.322-6.541 1.001-5.327 1.68-9.524 5.271-11.819 10.113-2.297 4.848-2.42 10.38-.344 15.576 4.304 10.777 16.802 16.709 27.862 13.217 5.314-1.676 9.507-5.271 11.805-10.119 2.301-4.855 2.428-10.385.357-15.569-3.468-8.682-12.254-14.219-21.32-14.219zm-6.842.047h.01z" fill="#111"/></g></svg></g></svg>